<svg width="122" height="14" viewBox="0 0 122 14" fill="none" xmlns="http://www.w3.org/2000/svg">
  <path fill-rule="evenodd" clip-rule="evenodd"
    d="M19.5014 0.069175C18.935 -0.136027 18.2999 0.130777 18.0824 0.664859L18.0813 0.668535L14.103 11.0408H14.0603L11.1386 0.735948L11.1376 0.731798C11.0041 0.286116 10.572 -0.00262492 10.103 0.000932466C9.63458 -0.00262492 9.20242 0.286116 9.06916 0.731798L9.06797 0.735948L6.14613 11.0408H6.10356L2.12522 0.668535L2.12403 0.664859C1.90663 0.130777 1.27129 -0.136027 0.705054 0.069175C0.138634 0.274258 -0.144167 0.873144 0.0732953 1.40699L0.0740499 1.40841L4.84991 13.1014H4.85155C4.997 13.4581 5.29534 13.7587 5.70397 13.9066C6.46981 14.1838 7.32865 13.8233 7.62227 13.1014C7.64623 13.042 7.66597 12.9827 7.68113 12.9225L10.086 3.86141H10.1203L12.5254 12.9225C12.5406 12.9827 12.5603 13.042 12.5841 13.1014C12.878 13.8233 13.7367 14.1838 14.5025 13.9066C14.9112 13.7587 15.2095 13.4581 15.3549 13.1014H15.3567L20.1325 1.40841L20.1332 1.40699C20.3506 0.873144 20.0677 0.274258 19.5014 0.069175ZM114.083 6.07209H116.422C118.329 6.07209 119.826 5.51079 119.826 3.86769C119.826 2.22406 118.329 1.70166 116.565 1.70166H114.083V6.07209ZM116.257 7.67682H114.083V12.8399C114.083 13.7489 113.406 13.9228 113.078 13.9228C112.729 13.9228 112.053 13.7489 112.053 12.8399V1.21845C112.053 0.445191 112.442 0.077357 113.263 0.077357H116.708C119.518 0.077357 121.877 1.08303 121.877 3.86769C121.877 5.87874 120.441 7.15484 118.37 7.48378L121.775 12.3178C121.959 12.5887 122 12.8012 122 12.9751C122 13.5166 121.59 13.9228 120.974 13.9228C120.687 13.9228 120.339 13.8069 120.072 13.4006L116.257 7.67682ZM108.113 7.5803C108.975 7.5803 109.098 7.00021 109.098 6.7487C109.098 6.49749 108.975 5.93631 108.113 5.93631H102.083V1.83714H108.523C109.405 1.83714 109.528 1.25693 109.528 1.00566C109.528 0.734703 109.405 0.155086 108.523 0.155086H101.263C100.443 0.155086 100.053 0.522149 100.053 1.29606V12.7041C100.053 13.4779 100.443 13.8454 101.263 13.8454H108.852C109.713 13.8454 109.836 13.2653 109.836 12.9944C109.836 12.7239 109.713 12.1438 108.852 12.1438H102.083V7.5803H108.113ZM97.9642 13.0523C97.9642 12.8012 97.9026 12.5497 97.5541 12.2212L91.1755 6.42018L97.0822 1.66312C97.4516 1.3729 97.5131 1.06364 97.5131 0.850851C97.5131 0.36758 97.103 0.000339566 96.549 0.000339566C96.3234 0.000339566 96.0364 0.0967448 95.7084 0.36758L88.899 6.18788H88.8579V1.08303C88.8579 0.174059 88.181 0.000339566 87.8528 0.000339566C87.5042 0.000339566 86.8273 0.174059 86.8273 1.08303V12.9172C86.8273 13.8261 87.5042 14 87.8528 14C88.181 14 88.8579 13.8261 88.8579 12.9172V6.76791H88.899L96.0569 13.5938C96.3441 13.884 96.6926 14 96.9387 14C97.5745 14 97.9642 13.5358 97.9642 13.0523ZM70.0779 14C70.4059 14 71.0827 13.8454 71.0827 12.9364V1.31509C71.0827 0.212775 70.2625 0.000102409 69.8317 0.000102409C69.4421 0.000102409 68.8881 0.135283 68.4372 1.10242L63.6378 11.5441H63.5966L58.7769 1.10242C58.3256 0.135283 57.7719 0.000102409 57.3617 0.000102409C56.931 0.000102409 56.0901 0.212775 56.0901 1.31509V12.9558C56.0901 13.8454 56.7466 14 57.0747 14C57.4026 14 58.0592 13.8454 58.0592 12.9558V4.06086H58.1206L62.3254 13.1297C62.674 13.8648 63.1868 14 63.5555 14C63.925 14 64.4379 13.8648 64.7658 13.1297L69.0113 4.02185H69.0524V12.9364C69.0524 13.8454 69.7496 14 70.0779 14ZM81.4334 8.75483L78.9547 2.55804L76.4585 8.75483H81.4334ZM84.1837 14C83.887 14 83.4809 13.8693 83.2318 13.2461L82.1223 10.4981H75.7515L74.6416 13.2653C74.3862 13.9047 73.9585 14 73.7262 14C73.2429 14 72.7537 13.6707 72.7537 13.0416C72.7537 12.8681 72.8 12.6858 72.9034 12.4513L77.7833 0.984491C78.1424 0.112219 78.6179 0.000220989 78.9917 0.000220989C79.3558 0.000220989 79.8226 0.112219 80.2001 0.984253L85.0254 12.413C85.1415 12.6974 85.1562 12.8776 85.1562 13.003C85.1562 13.6576 84.6668 14 84.1837 14ZM51.9302 7.5803C52.7916 7.5803 52.9149 7.00021 52.9149 6.7487C52.9149 6.49749 52.7916 5.93631 51.9302 5.93631H45.9005V1.83714H52.3404C53.2222 1.83714 53.3454 1.25693 53.3454 1.00566C53.3454 0.734703 53.2222 0.155086 52.3404 0.155086H45.08C44.2596 0.155086 43.8699 0.522149 43.8699 1.29606V12.7041C43.8699 13.4779 44.2596 13.8454 45.08 13.8454H52.6686C53.5303 13.8454 53.6534 13.2653 53.6534 12.9944C53.6534 12.7239 53.5303 12.1438 52.6686 12.1438H45.9005V7.5803H51.9302ZM41.9104 1.52782C42.0333 1.25675 42.0538 1.04437 42.0538 0.928225C42.0538 0.386909 41.6025 0.000102409 41.0285 0.000102409C40.6797 0.000102409 40.2695 0.135283 40.0028 0.773953L35.7984 11.3702H35.7369L31.4913 0.792925C31.2245 0.135283 30.7937 0.000102409 30.4658 0.000102409C29.8712 0.000102409 29.4196 0.406 29.4196 0.947731C29.4196 1.06346 29.4609 1.27643 29.5633 1.52782L34.301 12.9172C34.6907 13.884 35.2856 14 35.7164 14C36.1673 14 36.7212 13.884 37.1315 12.9172L41.9104 1.52782ZM27.2916 8.75483L24.8131 2.55804L22.3166 8.75483H27.2916ZM30.0418 14C29.745 14 29.3392 13.8693 29.0903 13.2461L27.9799 10.4981H21.6098L20.4995 13.2653C20.2442 13.9047 19.8165 14 19.5844 14C19.1013 14 18.612 13.6707 18.612 13.0416C18.612 12.8686 18.658 12.6863 18.7615 12.4513L23.6414 0.984491C24.0008 0.112219 24.4758 0.000220989 24.8497 0.000220989C25.2138 0.000220989 25.6804 0.112219 26.058 0.984253L30.8837 12.413C30.9996 12.6969 31.0145 12.8776 31.0145 13.003C31.0145 13.6576 30.5249 14 30.0418 14Z"
    fill="#1C1B21" />
</svg>