<svg width="800" height="115" viewBox="0 0 800 115" fill="none" xmlns="http://www.w3.org/2000/svg">
<path fill-rule="evenodd" clip-rule="evenodd" d="M127.878 8.48632C124.164 7.04369 119.999 8.9194 118.573 12.6742L118.566 12.7L92.479 85.6203H92.1986L73.0402 13.1739L73.0336 13.1448C72.1578 10.0115 69.3248 7.98155 66.2493 8.00656C63.1775 7.98155 60.3437 10.0115 59.4699 13.1448L59.4621 13.1739L40.3025 85.6203H40.0233L13.9359 12.7L13.9281 12.6742C12.5025 8.9194 8.3363 7.04369 4.62331 8.48632C0.909079 9.92812 -0.945355 14.1385 0.480625 17.8916L0.485573 17.9016L31.8027 100.107H31.8134C32.7672 102.615 34.7235 104.728 37.4031 105.768C42.425 107.716 48.0567 105.182 49.9821 100.107C50.1392 99.6894 50.2687 99.2726 50.3681 98.8491L66.138 35.1469H66.3627L82.1338 98.8491C82.2332 99.2726 82.3627 99.6894 82.519 100.107C84.4456 105.182 90.0765 107.716 95.0984 105.768C97.7784 104.728 99.7343 102.615 100.688 100.107H100.7L132.016 17.9016L132.021 17.8916C133.447 14.1385 131.591 9.92812 127.878 8.48632ZM748.088 50.6887H763.421C775.927 50.6887 785.744 46.7426 785.744 35.1911C785.744 23.6358 775.927 19.9632 764.362 19.9632H748.088V50.6887ZM762.342 61.9705H748.088V98.2685C748.088 104.659 743.648 105.881 741.497 105.881C739.209 105.881 734.774 104.659 734.774 98.2685V16.5661C734.774 11.1298 737.327 8.54384 742.708 8.54384H765.301C783.727 8.54384 799.193 15.614 799.193 35.1911C799.193 49.3294 789.78 58.3007 776.195 60.6133L798.522 94.5979C799.731 96.5028 800 97.9967 800 99.2193C800 103.026 797.312 105.881 793.274 105.881C791.392 105.881 789.106 105.066 787.36 102.21L762.342 61.9705ZM708.939 61.2919C714.588 61.2919 715.395 57.2137 715.395 55.4455C715.395 53.6794 714.588 49.7341 708.939 49.7341H669.4V20.9156H711.628C717.411 20.9156 718.219 16.8366 718.219 15.0701C718.219 13.1652 717.411 9.0903 711.628 9.0903H664.017C658.641 9.0903 656.084 11.6709 656.084 17.1117V97.3135C656.084 102.754 658.641 105.337 664.017 105.337H713.781C719.43 105.337 720.236 101.259 720.236 99.3547C720.236 97.4527 719.43 93.3749 713.781 93.3749H669.4V61.2919H708.939ZM642.388 99.762C642.388 97.9967 641.984 96.2281 639.699 93.9189L597.872 53.1359L636.605 19.6923C639.027 17.6519 639.43 15.4777 639.43 13.9818C639.43 10.5842 636.741 8.00239 633.108 8.00239C631.629 8.00239 629.747 8.68015 627.596 10.5842L582.944 51.5027H582.675V15.614C582.675 9.22369 578.236 8.00239 576.084 8.00239C573.798 8.00239 569.36 9.22369 569.36 15.614V98.8116C569.36 105.202 573.798 106.424 576.084 106.424C578.236 106.424 582.675 105.202 582.675 98.8116V55.5805H582.944L629.881 103.568C631.764 105.609 634.05 106.424 635.664 106.424C639.833 106.424 642.388 103.161 642.388 99.762ZM459.527 106.424C461.678 106.424 466.116 105.337 466.116 98.9467V17.2455C466.116 9.49587 460.738 8.00072 457.913 8.00072C455.358 8.00072 451.725 8.95108 448.769 15.7503L417.297 89.1587H417.027L385.422 15.7503C382.463 8.95108 378.832 8.00072 376.142 8.00072C373.318 8.00072 367.804 9.49587 367.804 17.2455V99.0834C367.804 105.337 372.109 106.424 374.261 106.424C376.411 106.424 380.716 105.337 380.716 99.0834V36.5491H381.119L408.691 100.306C410.977 105.474 414.34 106.424 416.757 106.424C419.18 106.424 422.544 105.474 424.694 100.306L452.533 36.2748H452.803V98.9467C452.803 105.337 457.374 106.424 459.527 106.424ZM533.989 69.5492L517.736 25.9838L501.367 69.5492H533.989ZM552.024 106.424C550.079 106.424 547.416 105.505 545.783 101.124L538.507 81.8047H496.731L489.453 101.259C487.778 105.755 484.974 106.424 483.45 106.424C480.281 106.424 477.074 104.109 477.074 99.6865C477.074 98.4669 477.377 97.1851 478.055 95.5366L510.055 14.9213C512.409 8.78894 515.527 8.00155 517.978 8.00155C520.366 8.00155 523.427 8.78894 525.902 14.9196L557.543 95.2673C558.305 97.2664 558.402 98.5336 558.402 99.4152C558.402 104.017 555.192 106.424 552.024 106.424ZM340.526 61.2919C346.174 61.2919 346.983 57.2137 346.983 55.4455C346.983 53.6794 346.174 49.7341 340.526 49.7341H300.987V20.9156H343.216C348.998 20.9156 349.806 16.8366 349.806 15.0701C349.806 13.1652 348.998 9.0903 343.216 9.0903H295.606C290.227 9.0903 287.671 11.6709 287.671 17.1117V97.3135C287.671 102.754 290.227 105.337 295.606 105.337H345.368C351.018 105.337 351.825 101.259 351.825 99.3547C351.825 97.4527 351.018 93.3749 345.368 93.3749H300.987V61.2919H340.526ZM274.822 18.7411C275.628 16.8353 275.762 15.3423 275.762 14.5257C275.762 10.7201 272.804 8.00072 269.039 8.00072C266.752 8.00072 264.062 8.95108 262.313 13.4411L234.744 87.9358H234.34L206.5 13.5745C204.751 8.95108 201.926 8.00072 199.776 8.00072C195.877 8.00072 192.916 10.8543 192.916 14.6628C192.916 15.4765 193.186 16.9737 193.858 18.7411L224.924 98.8116C227.48 105.609 231.381 106.424 234.206 106.424C237.162 106.424 240.795 105.609 243.485 98.8116L274.822 18.7411ZM178.961 69.5492L162.709 25.9838L146.338 69.5492H178.961ZM196.995 106.424C195.049 106.424 192.388 105.505 190.756 101.124L183.475 81.8047H141.704L134.423 101.259C132.749 105.755 129.944 106.424 128.422 106.424C125.255 106.424 122.046 104.109 122.046 99.6865C122.046 98.4702 122.347 97.1885 123.026 95.5366L155.025 14.9213C157.382 8.78894 160.497 8.00155 162.949 8.00155C165.336 8.00155 168.396 8.78894 170.872 14.9196L202.516 95.2673C203.276 97.2631 203.374 98.5336 203.374 99.4152C203.374 104.017 200.164 106.424 196.995 106.424Z" fill="white"/>
</svg>
