<svg width="168" height="168" viewBox="0 0 168 168" fill="none" xmlns="http://www.w3.org/2000/svg">
<rect x="0.5" y="0.5" width="167" height="167" rx="83.5" fill="#DBDBDB" stroke="#DBDBDB"/>
<circle cx="84" cy="84" r="46" stroke="white" stroke-width="4"/>
<path d="M83.4765 101.327L65.9431 112.286C65.2029 112.748 64.2668 112.107 64.4309 111.249L68.3909 90.5698C68.4584 90.2174 68.3319 89.8559 68.0595 89.6225L52.7652 76.513C52.0986 75.9417 52.4391 74.8501 53.3124 74.7591L74.4102 72.5614C74.7738 72.5236 75.0878 72.2902 75.229 71.953L83.1024 53.1443C83.4414 52.3345 84.5847 52.3233 84.9395 53.1263L93.2662 71.971C93.4109 72.2983 93.7193 72.5233 94.0751 72.5612L114.65 74.75C115.529 74.8435 115.864 75.947 115.185 76.5127L99.4742 89.6049C99.1835 89.8471 99.0544 90.2326 99.1407 90.601L103.956 111.175C104.158 112.039 103.219 112.719 102.462 112.257L84.5271 101.321C84.204 101.124 83.7974 101.127 83.4765 101.327Z" fill="white"/>
</svg>
