<?xml version="1.0" encoding="utf-8"?>
<!-- Generator: Adobe Illustrator 23.0.4, SVG Export Plug-In . SVG Version: 6.00 Build 0)  -->
<svg version="1.1" id="Layer_1" xmlns="http://www.w3.org/2000/svg" xmlns:xlink="http://www.w3.org/1999/xlink" x="0px" y="0px"
	 viewBox="0 0 1000 900" style="enable-background:new 0 0 1000 900;" xml:space="preserve">
<style type="text/css">
	.st0{fill:#DBDBDB;}
	.st1{fill:#F5F5F5;}
	.st2{fill:#7B3837;}
	.st3{opacity:0.5;}
	.st4{clip-path:url(#SVGID_2_);}
	.st5{clip-path:url(#SVGID_4_);}
	.st6{fill:#9E9E9E;}
	.st7{fill:#05B28E;}
	.st8{fill:#6BE5AD;}
	.st9{fill:#B5F2D6;}
	.st10{fill:#F72C5A;}
	.st11{fill:#FC5A76;}
	.st12{fill:#FDACBA;}
	.st13{fill:#FEE581;}
	.st14{fill:#FED43D;}
	.st15{fill:#3E4CD6;}
	.st16{fill:#7A98DE;}
	.st17{fill:#BCCBEE;}
	.st18{fill:#FEEA9E;}
	.st19{fill:#82D8C6;}
	.st20{fill:#FFFFFF;}
	.st21{fill:#FEF2C0;}
	.st22{fill:#231F20;}
</style>
<g>
	<g>
		<rect x="100" y="177.5" class="st0" width="800" height="605"/>
	</g>
	<g>
		<g>
			<path class="st1" d="M500,837.5c203.8,0,369-5.8,369-13c0-7.2-165.2-13-369-13s-369,5.8-369,13C131,831.6,296.2,837.5,500,837.5"
				/>
		</g>
	</g>
	<g>
		<polygon class="st2" points="135.2,834.5 140.1,782.5 167,782.5 150.1,834.5 		"/>
	</g>
	<g>
		<polygon class="st2" points="864.9,834.5 859.9,782.5 833,782.5 850,834.5 		"/>
	</g>
	<g>
		<polygon class="st2" points="179.1,824.5 183.1,782.5 204.8,782.5 191.1,824.5 		"/>
	</g>
	<g>
		<g class="st3">
			<g>
				<defs>
					<rect id="SVGID_1_" x="166.5" y="775.5" width="48.5" height="49.9"/>
				</defs>
				<clipPath id="SVGID_2_">
					<use xlink:href="#SVGID_1_"  style="overflow:visible;"/>
				</clipPath>
				<g class="st4">
					<polygon class="st2" points="183.1,782.5 179.1,824.5 191.1,824.5 204.8,782.5 					"/>
				</g>
			</g>
		</g>
	</g>
	<g>
		<polygon class="st2" points="813.4,824.5 809.4,782.5 787.7,782.5 801.3,824.5 		"/>
	</g>
	<g>
		<g class="st3">
			<g>
				<defs>
					<rect id="SVGID_3_" x="777.5" y="775.5" width="48.5" height="49.9"/>
				</defs>
				<clipPath id="SVGID_4_">
					<use xlink:href="#SVGID_3_"  style="overflow:visible;"/>
				</clipPath>
				<g class="st5">
					<polygon class="st2" points="809.4,782.5 813.4,824.5 801.3,824.5 787.7,782.5 					"/>
				</g>
			</g>
		</g>
	</g>
	<g>
		<rect x="100" y="182.5" class="st1" width="10" height="600"/>
	</g>
	<g>
		<rect x="890" y="182.5" class="st1" width="10" height="600"/>
	</g>
	<g>
		<rect x="100" y="772.5" class="st1" width="800" height="10"/>
	</g>
	<g>
		<rect x="695" y="182.5" class="st1" width="10" height="600"/>
	</g>
	<g>
		<rect x="100" y="177.5" class="st1" width="800" height="10"/>
	</g>
	<g>
		<polygon class="st1" points="100,568.5 103,579.5 700,388.1 696.6,377.5 		"/>
	</g>
	<g>
		<rect x="100" y="577.5" class="st1" width="800" height="10"/>
	</g>
	<g>
		<rect x="495" y="582.5" class="st1" width="10" height="200"/>
	</g>
	<g>
		<polygon class="st6" points="695,389.5 110,577.5 130,576.8 679,403.5 		"/>
	</g>
	<g>
		<polygon class="st6" points="494,587.5 110,587.5 126,603.5 478,603.5 		"/>
	</g>
	<g>
		<polygon class="st6" points="541,187.6 110,187.6 128,203.6 523,203.6 		"/>
	</g>
	<g>
		
			<rect x="591.7" y="490" transform="matrix(1.953121e-03 -1 1 1.953121e-03 186.8852 1168.3307)" class="st6" width="174" height="1"/>
	</g>
	<g>
		<rect x="477.5" y="592.1" class="st6" width="1" height="180.5"/>
	</g>
	<g>
		<rect x="125" y="592.1" class="st6" width="1" height="180.5"/>
	</g>
	<g>
		<rect x="126" y="192.2" class="st6" width="1" height="367.3"/>
	</g>
	<g>
		<polygon class="st6" points="695,188 505,188 521,204 679,204 		"/>
	</g>
	<g>
		<polygon class="st6" points="889,188 705,188 721,204 873,204 		"/>
	</g>
	<g>
		<polygon class="st6" points="695,587.5 505,587.5 521,603.5 679,603.5 		"/>
	</g>
	<g>
		<rect x="678" y="193" class="st6" width="1" height="190.9"/>
	</g>
	<g>
		<rect x="872" y="193" class="st6" width="1" height="384.5"/>
	</g>
	<g>
		<rect x="678" y="592.5" class="st6" width="1" height="179.1"/>
	</g>
	<g>
		<rect x="721.5" y="194.9" class="st6" width="1" height="381.3"/>
	</g>
	<g>
		<rect x="521.5" y="593.4" class="st6" width="1" height="179.1"/>
	</g>
	<g>
		<polygon class="st6" points="890,587.5 706,587.5 722,603.5 874,603.5 		"/>
	</g>
	<g>
		<polygon class="st6" points="890,388.6 706,388.6 722,404.6 874,404.6 		"/>
	</g>
	<g>
		<rect x="873.5" y="592.5" class="st6" width="1" height="179.1"/>
	</g>
	<g>
		<rect x="721.5" y="593.4" class="st6" width="1" height="177.6"/>
	</g>
	<g>
		<rect x="700" y="378.6" class="st1" width="200" height="10"/>
	</g>
	<g>
		<g>
			<path class="st7" d="M470.5,618.3l-21.4,152.4l13.3,1.9l20.7-147.4c0,0,0.7-5-4.3-5.6L470.5,618.3z"/>
		</g>
		<g>
			<path class="st8" d="M470.5,618.3l-21.4,152.4l-13.3-1.9l20.7-147.4c0,0,0.7-5,5.6-4.3L470.5,618.3z"/>
		</g>
	</g>
	<g>
		
			<rect x="453.4" y="715.8" transform="matrix(0.1392 -0.9903 0.9903 0.1392 -330.5562 1078.2004)" class="st9" width="3" height="26.9"/>
	</g>
	<g>
		
			<rect x="450.7" y="735" transform="matrix(0.1392 -0.9903 0.9903 0.1392 -351.9299 1092.0801)" class="st9" width="3" height="26.9"/>
	</g>
	<g>
		<g>
			<path class="st10" d="M611,618.3l-21.4,152.4l13.3,1.9l20.7-147.4c0,0,0.7-5-4.3-5.6L611,618.3z"/>
		</g>
		<g>
			<path class="st11" d="M611,618.3l-21.4,152.4l-13.3-1.9L597,621.4c0,0,0.7-5,5.6-4.3L611,618.3z"/>
		</g>
	</g>
	<g>
		
			<rect x="592.6" y="727.3" transform="matrix(0.1393 -0.9902 0.9902 0.1393 -222.4634 1225.6104)" class="st12" width="2.4" height="26.9"/>
	</g>
	<g>
		
			<rect x="607.6" y="620.8" transform="matrix(0.1393 -0.9902 0.9902 0.1393 -104.0879 1148.7487)" class="st12" width="2.4" height="26.9"/>
	</g>
	<g>
		
			<rect x="590.5" y="742.7" transform="matrix(0.1393 -0.9902 0.9902 0.1393 -239.562 1236.7126)" class="st12" width="2.4" height="26.9"/>
	</g>
	<g>
		
			<rect x="605.4" y="636.2" transform="matrix(0.1393 -0.9902 0.9902 0.1393 -121.1864 1159.851)" class="st12" width="2.4" height="26.9"/>
	</g>
	<g>
		<g>
			<path class="st13" d="M521.8,429.1c0,0,1.2,3.8-2.6,5L376,478.5l-4-12.8l143.2-44.5c0,0,3.8-1.2,5,2.6L521.8,429.1z"/>
		</g>
		<g>
			<path class="st14" d="M513.1,426.1c0,0-0.3-1-1.3-0.7l-98,30.4c0,0-1,0.3-0.7,1.3l1.6,5.2c0,0,0.3,1,1.3,0.7l98-30.4
				c0,0,1-0.3,0.7-1.3L513.1,426.1z"/>
		</g>
		<g>
			<path class="st14" d="M404.6,459.8c0,0-0.3-1-1.3-0.7l-26.6,8.3c0,0-1,0.3-0.7,1.3l1.6,5.2c0,0,0.3,1,1.3,0.7l26.6-8.3
				c0,0,1-0.3,0.7-1.3L404.6,459.8z"/>
		</g>
		<g>
			<path class="st15" d="M280.3,608v164.5h100.6V618.7c0,0,0-10.7-10.7-10.7H280.3z"/>
		</g>
	</g>
	<g>
		<rect x="251.5" y="608" class="st16" width="28.8" height="164.5"/>
	</g>
	<g>
		<rect x="251.5" y="624" class="st17" width="28.8" height="21"/>
	</g>
	<g>
		<rect x="348.9" y="606.4" class="st2" width="6.4" height="166.1"/>
	</g>
	<g>
		<rect x="623.7" y="618.6" class="st14" width="31.4" height="153.9"/>
	</g>
	<g>
		<g>
			<path class="st18" d="M639.4,706.2c5.9,0,10.6-4.8,10.6-10.6c0-5.9-4.8-10.6-10.6-10.6c-5.9,0-10.6,4.8-10.6,10.6
				C628.8,701.5,633.6,706.2,639.4,706.2"/>
		</g>
	</g>
	<g>
		<rect x="656" y="618.6" class="st7" width="31.4" height="153.9"/>
	</g>
	<g>
		<g>
			<path class="st19" d="M671.7,706.2c5.9,0,10.6-4.8,10.6-10.6c0-5.9-4.8-10.6-10.6-10.6c-5.9,0-10.6,4.8-10.6,10.6
				C661.1,701.5,665.8,706.2,671.7,706.2"/>
		</g>
		<g>
			<path class="st14" d="M198.5,634.5v138h13.4v-133c0,0,0-5-5-5H198.5z"/>
		</g>
		<g>
			<path class="st13" d="M198.5,634.5v138H185v-133c0,0,0-5,5-5H198.5z"/>
		</g>
	</g>
	<g>
		<path class="st2" d="M207.4,767.2h-17.9V642.4h17.9V767.2z M191.5,765.2h13.9V644.4h-13.9V765.2z"/>
	</g>
	<g>
		<g>
			<path class="st11" d="M220.1,609.5c0,0,4-0.3,4.3,3.7l10.4,158.4l-13.4,0.9l-10.4-158.4c0,0-0.3-4,3.7-4.3L220.1,609.5z"/>
		</g>
		<g>
			<path class="st10" d="M217.8,658.8c0,0-1,0.1-0.9,1.1l3.8,57.9c0,0,0.1,1,1.1,0.9l5.5-0.4c0,0,1-0.1,0.9-1.1l-3.8-57.9
				c0,0-0.1-1-1.1-0.9L217.8,658.8z"/>
		</g>
	</g>
	<g>
		
			<rect x="211.8" y="627" transform="matrix(0.9979 -6.525452e-02 6.525452e-02 0.9979 -40.507 15.6002)" class="st12" width="13.4" height="1.7"/>
	</g>
	<g>
		
			<rect x="212.6" y="638" transform="matrix(0.9979 -6.525452e-02 6.525452e-02 0.9979 -41.2188 15.6703)" class="st12" width="13.4" height="1.7"/>
	</g>
	<g>
		<g>
			<path class="st10" d="M185.5,304.6l116.6,100.5l8.8-10.2l-112.8-97.2c0,0-3.8-3.3-7.1,0.5L185.5,304.6z"/>
		</g>
		<g>
			<path class="st11" d="M185.5,304.6l116.6,100.5l-8.8,10.2l-112.8-97.2c0,0-3.8-3.3-0.5-7.1L185.5,304.6z"/>
		</g>
	</g>
	<g>
		
			<rect x="265.8" y="384.2" transform="matrix(0.6527 -0.7577 0.7577 0.6527 -194.9798 345.4144)" class="st12" width="26.9" height="2.4"/>
	</g>
	<g>
		
			<rect x="184.3" y="313.9" transform="matrix(0.6527 -0.7577 0.7577 0.6527 -170.0835 259.2794)" class="st12" width="26.9" height="2.4"/>
	</g>
	<g>
		
			<rect x="277.6" y="394.3" transform="matrix(0.6527 -0.7577 0.7577 0.6527 -198.5758 357.8562)" class="st12" width="26.9" height="2.4"/>
	</g>
	<g>
		
			<rect x="196.1" y="324.1" transform="matrix(0.6527 -0.7577 0.7577 0.6527 -173.6797 271.7212)" class="st12" width="26.9" height="2.4"/>
	</g>
	<g>
		<g>
			<path class="st16" d="M438.5,382.7c-10-28.2-41-43-69.2-33c-28.2,10-43,41-33,69.2c10,28.2,41,43,69.2,33
				C433.7,442,448.5,410.9,438.5,382.7"/>
		</g>
		<g>
			<path class="st15" d="M387.4,457.1c-23.2,0-45-14.4-53.1-37.5c-10.4-29.3,5-61.5,34.3-71.9c14.2-5,29.4-4.2,43,2.3
				c13.6,6.5,23.8,17.8,28.8,32l0,0c10.4,29.3-5,61.5-34.3,71.9C400,456.1,393.6,457.1,387.4,457.1z M387.4,348.6
				c-5.9,0-11.7,1-17.4,3c-27.1,9.6-41.4,39.5-31.8,66.6c9.6,27.1,39.5,41.4,66.6,31.8c27.1-9.6,41.4-39.5,31.8-66.6l0,0
				c-4.6-13.1-14.1-23.6-26.7-29.7C402.7,350.3,395,348.6,387.4,348.6z"/>
		</g>
		<g>
			<path class="st10" d="M441,409.8c0,0,0.9,2.7,3.8,2.8l32.6,1.3c0,0,2.8,0.1,1.9-2.6l-27.6-77.8c0,0-0.9-2.7-3.1-0.8l-24.5,21.5
				c0,0-2.1,1.9-1.2,4.6L441,409.8z"/>
		</g>
	</g>
	<g>
		<polygon class="st11" points="449.6,412.8 454.2,413 431.2,348.1 427.8,351.1 		"/>
	</g>
	<g>
		<polygon class="st11" points="472.6,413.8 445.1,336 441.6,339 468,413.6 		"/>
	</g>
	<g>
		<g>
			<path class="st14" d="M360.6,406.6c0,0-4.4-12.6,9.7-17.6c-13.7,1.3-18.7-7.9-18.7-7.9c2.3,11.5-2.3,13.7-11.7,17
				C354.6,394.8,357.3,397.2,360.6,406.6"/>
		</g>
		<g>
			<path class="st14" d="M387.6,380.6c0,0-3.4-9.5,7.4-13.3c-10.4,1-14.2-6-14.2-6c1.8,8.8-1.7,10.4-8.9,12.9
				C383,371.6,385.1,373.4,387.6,380.6"/>
		</g>
		<g>
			<path class="st14" d="M368.5,434.5c0,0-3.4-9.5,7.4-13.3c-10.4,1-14.2-6-14.2-6c1.8,8.8-1.7,10.4-8.9,12.9
				C364,425.5,366,427.4,368.5,434.5"/>
		</g>
	</g>
	<g>
		<polygon class="st20" points="321.6,650 410.1,650 414.4,773.5 325.9,773.5 		"/>
	</g>
	<g>
		<g>
			<path class="st15" d="M343.7,683.4c3.2,0,5.8-2.6,5.6-5.8c-0.1-3.2-2.8-5.8-6-5.8c-3.2,0-5.8,2.6-5.6,5.8
				C337.7,680.7,340.4,683.4,343.7,683.4"/>
		</g>
		<g>
			<path class="st8" d="M344.5,706.7c3.2,0,5.8-2.6,5.6-5.8c-0.1-3.2-2.8-5.8-6-5.8s-5.8,2.6-5.6,5.8
				C338.5,704.1,341.2,706.7,344.5,706.7"/>
		</g>
		<g>
			<path class="st10" d="M345.3,730.1c3.2,0,5.8-2.6,5.6-5.8c-0.1-3.2-2.8-5.8-6-5.8c-3.2,0-5.8,2.6-5.6,5.8
				C339.4,727.5,342.1,730.1,345.3,730.1"/>
		</g>
		<g>
			<path class="st14" d="M346.1,751.8c3.2,0,5.8-2.6,5.6-5.8c-0.1-3.2-2.8-5.8-6-5.8s-5.8,2.6-5.6,5.8
				C340.1,749.2,342.8,751.8,346.1,751.8"/>
		</g>
		<g>
			<path class="st10" d="M371.1,751.8c3.2,0,5.8-2.6,5.6-5.8c-0.1-3.2-2.8-5.8-6-5.8s-5.8,2.6-5.6,5.8
				C365.2,749.2,367.9,751.8,371.1,751.8"/>
		</g>
		<g>
			<path class="st8" d="M394.5,751.8c3.2,0,5.8-2.6,5.6-5.8c-0.1-3.2-2.8-5.8-6-5.8s-5.8,2.6-5.6,5.8
				C388.5,749.2,391.3,751.8,394.5,751.8"/>
		</g>
		<g>
			<path class="st15" d="M370.3,728.4c3.2,0,5.8-2.6,5.6-5.8c-0.1-3.2-2.8-5.8-6-5.8s-5.8,2.6-5.6,5.8
				C364.3,725.8,367.1,728.4,370.3,728.4"/>
		</g>
		<g>
			<path class="st14" d="M393.7,728.4c3.2,0,5.8-2.6,5.6-5.8c-0.1-3.2-2.8-5.8-6-5.8s-5.8,2.6-5.6,5.8
				C387.7,725.8,390.4,728.4,393.7,728.4"/>
		</g>
		<g>
			<path class="st10" d="M369.5,706.7c3.2,0,5.8-2.6,5.6-5.8c-0.1-3.2-2.8-5.8-6-5.8s-5.8,2.6-5.6,5.8
				C363.6,704.1,366.3,706.7,369.5,706.7"/>
		</g>
		<g>
			<path class="st8" d="M392.9,706.7c3.2,0,5.8-2.6,5.6-5.8c-0.1-3.2-2.8-5.8-6-5.8s-5.8,2.6-5.6,5.8
				C387,704.1,389.7,706.7,392.9,706.7"/>
		</g>
		<g>
			<path class="st14" d="M368.7,683.4c3.2,0,5.8-2.6,5.6-5.8c-0.1-3.2-2.8-5.8-6-5.8s-5.8,2.6-5.6,5.8
				C362.8,680.7,365.5,683.4,368.7,683.4"/>
		</g>
		<g>
			<path class="st15" d="M392.1,683.4c3.2,0,5.8-2.6,5.6-5.8c-0.1-3.2-2.8-5.8-6-5.8s-5.8,2.6-5.6,5.8
				C386.2,680.7,388.9,683.4,392.1,683.4"/>
		</g>
		<g>
			<path class="st11" d="M592.8,566.3c27.4,0,49.7-22.2,49.7-49.7c0-27.4-22.2-49.7-49.7-49.7c-27.4,0-49.7,22.2-49.7,49.7
				C543.1,544.1,565.4,566.3,592.8,566.3"/>
		</g>
	</g>
	<g>
		<polygon class="st7" points="560.7,553.5 555.9,577.5 570.4,559.9 		"/>
	</g>
	<g>
		<polygon class="st7" points="623.3,553.5 628.1,577.5 613.6,559.9 		"/>
	</g>
	<g>
		<g>
			<path class="st11" d="M592.8,566.3c27.4,0,49.7-22.2,49.7-49.7c0-27.4-22.2-49.7-49.7-49.7c-27.4,0-49.7,22.2-49.7,49.7
				C543.1,544.1,565.4,566.3,592.8,566.3"/>
		</g>
		<g>
			<path class="st10" d="M592.8,561.5c24.8,0,44.9-20.1,44.9-44.9c0-24.8-20.1-44.9-44.9-44.9c-24.8,0-44.9,20.1-44.9,44.9
				C547.9,541.4,568,561.5,592.8,561.5"/>
		</g>
		<g>
			<path class="st6" d="M592.8,556.7c22.1,0,40.1-17.9,40.1-40.1c0-22.1-17.9-40.1-40.1-40.1c-22.1,0-40.1,17.9-40.1,40.1
				C552.7,538.8,570.7,556.7,592.8,556.7"/>
		</g>
	</g>
	<g>
		
			<rect x="560.7" y="466.9" transform="matrix(0.8387 -0.5447 0.5447 0.8387 -165.8155 383.7014)" class="st7" width="8" height="9.6"/>
	</g>
	<g>
		<g>
			<path class="st11" d="M570.3,456.1c0,0,2.5-1.6,4.1,0.9l3.6,5.6l-27.7,17.7l-3.6-5.6c0,0-1.6-2.5,0.9-4.1L570.3,456.1z"/>
		</g>
	</g>
	<g>
		
			<rect x="615.7" y="467.7" transform="matrix(0.5447 -0.8387 0.8387 0.5447 -113.0861 735.1832)" class="st7" width="9.6" height="8"/>
	</g>
	<g>
		<g>
			<path class="st11" d="M614.9,456.1c0,0-2.5-1.6-4.1,0.9l-3.6,5.6l27.7,17.7l3.6-5.6c0,0,1.6-2.5-0.9-4.1L614.9,456.1z"/>
		</g>
		<g>
			<path class="st10" d="M202.4,505l8.5,27.5L360.8,486c0,0,12.4-3.9,8.6-16.3l-0.8-2.7c0,0-3.9-12.4-16.3-8.6L202.4,505z"/>
		</g>
		<g>
			<path class="st20" d="M203,507l7.3,23.6l149.6-46.4c0,0,10.5-3.3,7.2-13.8l-0.8-2.6c0,0-3.3-10.5-13.8-7.2L203,507z"/>
		</g>
		<g>
			<path class="st1" d="M203,507l1.6,5.2l157.9-49c0,0-5.9-3.9-14.4-1.3C339.6,464.6,203,507,203,507"/>
		</g>
		<g>
			<path class="st14" d="M181.7,480.9l8.5,27.5l149.8-46.5c0,0,12.4-3.9,8.6-16.3l-0.8-2.7c0,0-3.9-12.4-16.3-8.6L181.7,480.9z"/>
		</g>
		<g>
			<path class="st20" d="M182.4,482.9l7.3,23.6L339.3,460c0,0,10.5-3.3,7.2-13.8l-0.8-2.6c0,0-3.3-10.5-13.8-7.2L182.4,482.9z"/>
		</g>
		<g>
			<path class="st1" d="M182.4,482.9l1.6,5.2l157.9-49c0,0-5.9-3.9-14.4-1.3C319,440.5,182.4,482.9,182.4,482.9"/>
		</g>
	</g>
	<g>
		<rect x="119.3" y="618.6" class="st10" width="32.9" height="153.9"/>
	</g>
	<g>
		<rect x="123.8" y="618.6" class="st20" width="23.9" height="153.9"/>
	</g>
	<g>
		<rect x="123.8" y="618.6" class="st1" width="3.7" height="153.9"/>
	</g>
	<g>
		<rect x="152.2" y="618.6" class="st15" width="32.9" height="153.9"/>
	</g>
	<g>
		<rect x="156.6" y="618.6" class="st20" width="23.9" height="153.9"/>
	</g>
	<g>
		<rect x="156.6" y="618.6" class="st1" width="3.7" height="153.9"/>
	</g>
	<g>
		
			<rect x="142" y="390.5" transform="matrix(0.9239 -0.3827 0.3827 0.9239 -166.8671 95.9307)" class="st7" width="31.4" height="153.9"/>
	</g>
	<g>
		<g>
			<path class="st19" d="M161.8,477.2c5.4-2.2,8-8.5,5.7-13.9c-2.2-5.4-8.5-8-13.9-5.7c-5.4,2.2-8,8.5-5.7,13.9
				C150.1,476.9,156.4,479.5,161.8,477.2"/>
		</g>
		<g>
			<path class="st16" d="M128.6,253.4c0,0,3.2-2.4,5.6,0.9l88.6,120.9l-10.8,8l-88.6-120.9c0,0-2.4-3.2,0.9-5.6L128.6,253.4z"/>
		</g>
		<g>
			<path class="st15" d="M151.6,294c0,0-0.8,0.6-0.2,1.4l32.4,44.2c0,0,0.6,0.8,1.4,0.2l4.4-3.2c0,0,0.8-0.6,0.2-1.4l-32.4-44.2
				c0,0-0.6-0.8-1.4-0.2L151.6,294z"/>
		</g>
	</g>
	<g>
		
			<rect x="129.9" y="268.1" transform="matrix(0.8065 -0.5912 0.5912 0.8065 -132.5425 132.7793)" class="st17" width="13.4" height="1.6"/>
	</g>
	<g>
		
			<rect x="136" y="276.4" transform="matrix(0.8065 -0.5912 0.5912 0.8065 -136.2963 138.0169)" class="st17" width="13.4" height="1.6"/>
	</g>
	<g>
		<g>
			<path class="st15" d="M313.9,424.6l-138.7,43.1l4,12.8L313.2,439c0,0,4.8-1.5,3.3-6.3L313.9,424.6z"/>
		</g>
		<g>
			<path class="st16" d="M313.9,424.6l-138.7,43.1l-4-12.8l133.9-41.6c0,0,4.8-1.5,6.3,3.3L313.9,424.6z"/>
		</g>
		<g>
			<path class="st17" d="M183.3,474.6l-5.3-17.1l125.4-38.9l5.3,17.1L183.3,474.6z M180.5,458.8l4.1,13.3l121.6-37.8l-4.1-13.3
				L180.5,458.8z"/>
		</g>
		<g>
			<path class="st14" d="M122.6,369.8l147.9,42.4l3.7-12.9l-143.1-41c0,0-4.8-1.4-6.2,3.4L122.6,369.8z"/>
		</g>
		<g>
			<path class="st13" d="M122.6,369.8l147.9,42.4l-3.7,12.9l-143.1-41c0,0-4.8-1.4-3.4-6.2L122.6,369.8z"/>
		</g>
	</g>
	<g>
		
			<rect x="216.8" y="399.2" transform="matrix(0.2758 -0.9612 0.9612 0.2758 -218.3741 511.5524)" class="st21" width="26.9" height="3"/>
	</g>
	<g>
		
			<rect x="235.5" y="404.6" transform="matrix(0.2758 -0.9612 0.9612 0.2758 -209.9984 533.3765)" class="st21" width="26.9" height="3"/>
	</g>
	<g>
		<path class="st20" d="M338.6,417.2C338.6,417.2,338.5,417.2,338.6,417.2c-0.3,0-0.5-0.3-0.5-0.6l2-13l0.3-15.6
			c0-0.3,0.2-0.5,0.5-0.5c0.3,0,0.5,0.2,0.5,0.5l-0.3,15.7l-2,13.1C339.1,417,338.8,417.2,338.6,417.2z"/>
	</g>
	<g>
		<path class="st20" d="M362,430.5c-0.2,0-0.3-0.1-0.4-0.3l-8.3-15l-14.7,2.3c-0.3,0-0.5-0.1-0.6-0.4c0-0.3,0.1-0.5,0.4-0.6l15-2.3
			c0.2,0,0.4,0.1,0.5,0.3l8.4,15.3c0.1,0.2,0,0.5-0.2,0.7C362.1,430.5,362,430.5,362,430.5z"/>
	</g>
	<g>
		<path class="st20" d="M338.5,417.3c-0.1,0-0.3,0-0.3-0.1c-0.2-0.2-0.2-0.5,0-0.7l10.6-10.9c0.1-0.1,0.2-0.2,0.4-0.2c0,0,0,0,0,0
			l16.3,0.1l11.9-10.8c0.2-0.2,0.5-0.2,0.7,0s0.2,0.5,0,0.7l-12,10.9c-0.1,0.1-0.2,0.1-0.3,0.1c0,0,0,0,0,0l-16.2-0.1l-10.4,10.7
			C338.8,417.2,338.7,417.3,338.5,417.3z"/>
	</g>
	<g>
		<path class="st20" d="M361.5,441.5c-0.2,0-0.3-0.1-0.4-0.2l-7.9-12.8h-6.7c-0.2,0-0.3-0.1-0.4-0.2l-8-10.9
			c-0.2-0.2-0.1-0.5,0.1-0.7c0.2-0.2,0.5-0.1,0.7,0.1l7.9,10.7h6.7c0.2,0,0.3,0.1,0.4,0.2l8,13c0.1,0.2,0.1,0.5-0.2,0.7
			C361.7,441.5,361.6,441.5,361.5,441.5z"/>
	</g>
	<g>
		<path class="st20" d="M346.1,424c-0.2,0-0.3-0.1-0.4-0.2l-1.9-3.3l-5-2.5c-0.2-0.1-0.3-0.4-0.2-0.7c0.1-0.2,0.4-0.3,0.7-0.2
			l5.1,2.5c0.1,0,0.2,0.1,0.2,0.2l2,3.5c0.1,0.2,0.1,0.5-0.2,0.7C346.3,424,346.2,424,346.1,424z"/>
	</g>
	<g>
		<path class="st20" d="M338.5,417.5c-0.2,0-0.5-0.2-0.5-0.4l-1-7.5c0,0,0-0.1,0-0.1l0.5-6c0-0.3,0.3-0.5,0.5-0.5
			c0.3,0,0.5,0.3,0.5,0.5l-0.5,5.9l1,7.4C339.1,417.2,338.9,417.5,338.5,417.5C338.6,417.5,338.6,417.5,338.5,417.5z"/>
	</g>
	<g>
		<g>
			<path class="st22" d="M589.5,521.9l-0.1-1c0.1,0,12.9-1.3,17.8-6.9c-2,0-3.9-0.2-5.7-0.6c-8-1.5-13.6-5.3-13.7-9.2
				c-0.1-3.4,2.7-5.7,7.2-6c5.8-0.4,14.3,2.9,15.1,10c0.2,1.7-0.1,3.3-0.9,4.8c6.4-0.3,12.7-2.7,15.2-8.8c0.7-1.7,1.2-3.4,1.6-4.9
				c-4.1,0.1-8.5-0.9-13.1-3.1c-9.7-4.6-10.6-9-9.7-11.9c1.6-4.8,9.5-8.1,13.4-7.3c3.3,0.7,6.6,3.5,8.7,7.3
				c1.4,2.5,3.1,7.3,1.9,13.8c2.4-0.2,4.7-0.8,6.9-1.8c6.9-3.1,10.6-9.1,11.1-11c0.5-1.7,1.2-5.4,1-9.3c-0.1,0.1-0.2,0.1-0.3,0.2
				c-5.2,3-11.2,3.9-15.6,2.3c-5.3-1.9-7.9-8.3-6.6-12.8c0.6-2.1,2.8-6.8,11.5-5.2c4.3,0.8,7.5,2.9,9.5,6.2c1.4,2.3,2.1,4.9,2.4,7.5
				c4.4-3.1,7.4-7.6,8.5-12.8c0,0,0,0,0,0c-8.5,1.2-19.9-3.1-24.8-9.5c-2.3-3-2.9-6.1-1.7-8.9c1.8-4.4,6-6,11.3-4.5
				c10.7,3.1,17.6,14,16.5,21.6c3.5-0.8,7.5-2.9,9.6-8l0.9,0.4c-1.8,4.7-5.5,7.7-10.7,8.7c-1.2,5.8-4.5,10.8-9.5,14.1
				c0.3,4.3-0.5,8.4-1,10.2c-0.6,2-4.5,8.4-11.7,11.6c-2.4,1.1-4.9,1.7-7.5,1.9c-0.4,1.7-0.9,3.4-1.7,5.3c-2.8,6.7-9.8,9.2-16.8,9.4
				c-0.1,0.1-0.1,0.2-0.2,0.3C603.3,520.5,590.1,521.8,589.5,521.9z M596.1,499.1c-0.3,0-0.6,0-0.9,0c-1.5,0.1-6.4,0.8-6.3,5
				c0.1,3.4,5.5,6.9,12.9,8.3c2,0.4,4.2,0.6,6.3,0.6c0.9-1.4,1.3-3,1.1-4.7C608.4,502.1,601.4,499.1,596.1,499.1z M615.3,477.9
				c-3.7,0-9.9,2.8-11.2,6.7c-1.2,3.6,2,7.3,9.2,10.6c4.5,2.1,8.8,3.1,12.9,3c1.2-6.4-0.5-11-1.8-13.4c-1.9-3.6-5-6.2-8-6.8
				C616,478,615.7,477.9,615.3,477.9z M631.9,461.3c-3.8,0-6.4,1.7-7.3,4.7c-1.1,4.1,1.2,9.9,6,11.6c4.2,1.5,9.9,0.6,14.8-2.3
				c0.2-0.1,0.5-0.3,0.7-0.4c-0.2-2.6-0.9-5.3-2.3-7.6c-1.9-3.1-4.9-5-8.9-5.8C633.9,461.4,632.9,461.3,631.9,461.3z M636.6,439.2
				c-2.5,0-5.2,0.9-6.6,4.4c-1.3,3.1,0.2,6,1.6,7.9c4.7,6.1,15.6,10.3,23.9,9.1c0.1,0,0.3,0,0.4-0.1c0,0,0-0.1,0-0.1
				c1.4-8.6-7.5-18.4-15.8-20.8C639.1,439.4,637.9,439.2,636.6,439.2z"/>
		</g>
		<g>
			<path class="st22" d="M528.7,529.2c-2.2,0-4.4-1.3-6.2-3.7c-4.5-6-5.5-17-0.1-22.4c-2.6-1.2-6.3-1.8-10.1,0.6l-0.5-0.9
				c3.5-2.2,7.5-2.3,11.4-0.4c3.7-3.2,8.3-4.8,13.2-4.5c2-3,4.5-5.2,5.8-6.2c1.4-1,7.1-3.3,13.5-1.8c2.1,0.5,4,1.3,5.8,2.5
				c1.1-0.9,2.3-1.8,3.7-2.6c5.2-3,11-1.2,15.7,2.1c0.1,0,0.2,0,0.3-0.1c6.4-1.6,15.7,4.1,16.1,4.4l-0.5,0.9
				c-0.1-0.1-8.9-5.4-14.8-4.4c1.2,1,2.3,2,3.3,3.1c4.5,4.9,6.3,10.3,4.4,13c-1.7,2.3-4.7,2.5-7.9,0.4c-4-2.6-8-9-4.9-14.2
				c0.7-1.2,1.7-2.1,2.9-2.6c-4.3-2.9-9.5-4.4-14-1.7c-1.3,0.8-2.4,1.5-3.4,2.3c2.7,2,5.1,4.8,7,8.5c4.1,7.9,2.5,11.3,0.4,12.7
				c-3.6,2.5-10.3,0.5-12.5-1.9c-1.8-2.1-2.6-5.6-2.1-9.2c0.4-2.3,1.6-6.2,5.6-10c-1.6-1-3.4-1.8-5.2-2.2c-6-1.4-11.4,0.7-12.7,1.6
				c-1.2,0.8-3.4,2.8-5.2,5.4c0,0,0.1,0,0.1,0c4.9,0.6,9.3,3,11.4,6.3c2.5,3.9,1,9.5-2.1,11.8c-3,2.3-6.8,1.4-10.2-2.3
				c-2.4-2.7-3.5-5.7-3.2-8.9c0.2-2.1,1-4.2,2.1-6c-3.1-0.1-7.5,0.6-11.6,4c6.2,3.5,11.4,11.9,11.5,18.5c0,3.2-1.1,5.5-3.3,6.8
				C531,528.8,529.8,529.2,528.7,529.2z M523.2,503.6C523.2,503.6,523.2,503.6,523.2,503.6c-5.2,4.9-4.2,15.7,0,21.3
				c1.4,1.9,4.4,4.8,8.4,2.4c2.4-1.4,2.9-4,2.8-5.9c-0.1-6.3-5.1-14.4-11-17.7C523.4,503.6,523.3,503.6,523.2,503.6z M536.8,498.9
				c-1.1,1.8-2,3.9-2.3,6c-0.3,2.9,0.7,5.7,2.9,8.1c3.1,3.4,6.3,4.2,8.8,2.2c2.7-2,4-7.1,1.8-10.5c-2-3-6.1-5.3-10.7-5.8
				C537.2,498.9,537,498.9,536.8,498.9z M561.4,493.6c-3.9,3.6-5.1,7.3-5.4,9.5c-0.5,3.2,0.2,6.5,1.8,8.4c1.9,2.2,8.2,3.9,11.2,1.8
				c2.5-1.7,2.3-5.7-0.7-11.4C566.3,498.3,564,495.6,561.4,493.6z M580.5,493c-1.3,0.5-2.3,1.3-3,2.5c-2.7,4.6,0.9,10.4,4.6,12.8
				c1,0.7,4.5,2.6,6.5-0.1c1.6-2.3-0.2-7.2-4.3-11.7C583.2,495.3,581.9,494.1,580.5,493z"/>
		</g>
		<g>
			<path class="st2" d="M554.8,319.2c-0.5,0-1-0.4-1.1-0.9c-5.8-31.8-15.4-42.9-15.5-43c-0.4-0.5-0.4-1.1,0.1-1.6
				c0.5-0.4,1.1-0.4,1.6,0.1c0.4,0.5,10.2,11.5,16.1,44.1c0.1,0.6-0.3,1.2-0.9,1.3C554.9,319.2,554.8,319.2,554.8,319.2z"/>
		</g>
		<g>
			<path class="st8" d="M394.6,111.6c4.2,8.4-38.3,33.2-43.5,5.4C346,89.2,390.4,103.2,394.6,111.6"/>
		</g>
		<g>
			<path class="st7" d="M402.5,145.4c9.1,2.4,0,50.7-24.4,36.4C353.6,167.5,393.4,143.1,402.5,145.4"/>
		</g>
		<g>
			<path class="st7" d="M529.5,110.8c0,0,55.2-28,55.2,16.3C584.6,148.1,543.9,148.1,529.5,110.8"/>
		</g>
		<g>
			<path class="st8" d="M560.9,205.8c7.2-7.7,50.2,27.4,23,43.7C556.6,265.8,553.7,213.5,560.9,205.8"/>
		</g>
	</g>
	<g>
		<polygon class="st10" points="535.3,135.2 521.1,177.1 460.3,177.1 444.9,135.2 		"/>
	</g>
	<g>
		<g>
			<path class="st11" d="M539.4,117.5c0,0,7,0,7,7v3.7c0,0,0,7-7,7h-98.5c0,0-7,0-7-7v-3.7c0,0,0-7,7-7H539.4z"/>
		</g>
		<g>
			<path class="st2" d="M548,236.9C547.9,236.9,547.9,236.8,548,236.9c-0.7-0.1-1.2-0.6-1.1-1.2c0.1-1.1,8.3-105.4-32.5-126.9
				c-17-9-31.9-10.1-44.2-3.5c-9.2,5-13.4,12.7-13.5,12.8c-0.3,0.5-1,0.7-1.5,0.4c-0.5-0.3-0.7-1-0.4-1.5
				c0.2-0.3,18.1-32.6,60.7-10.2c17.7,9.3,28.8,33.9,32.9,73.1c3,29,0.9,55.7,0.8,55.9C549,236.4,548.5,236.9,548,236.9z"/>
		</g>
		<g>
			<path class="st2" d="M346.8,164.2c-17.4,0-28-6.9-34-12.9c-7-7-9.3-14.2-9.4-14.5c-0.2-0.6,0.1-1.2,0.7-1.4
				c0.6-0.2,1.2,0.1,1.4,0.7c0.4,1.1,9.1,27.8,45.2,25.7c17.8-1,34.7-25,51.1-48.2c17.8-25.1,36.2-51.1,57.1-51.1
				c40.2,0,49.9,54.3,50,54.8c0.1,0.6-0.3,1.2-0.9,1.3c-0.6,0.1-1.2-0.3-1.3-0.9c-0.1-0.5-9.5-53-47.8-53
				c-19.8,0-37.8,25.5-55.3,50.2c-17.5,24.7-34,48-52.8,49.1C349.5,164.1,348.1,164.2,346.8,164.2z"/>
		</g>
		<g>
			<path class="st2" d="M388.3,166.2c-0.4,0-0.7-0.2-0.9-0.5c-0.3-0.5-0.2-1.2,0.3-1.5c10.6-7.1,16.7-15.2,18.2-24.2
				c2-12.2-5.5-21.9-5.6-22c-0.4-0.5-0.3-1.2,0.2-1.5c0.5-0.4,1.2-0.3,1.5,0.2c0.3,0.4,8.1,10.5,6,23.7c-1.5,9.7-8,18.3-19.1,25.7
				C388.7,166.2,388.5,166.2,388.3,166.2z"/>
		</g>
		<g>
			<path class="st2" d="M563.4,126.5c-0.2,0-0.3,0-0.5-0.1c-30.3-15.2-48-17.5-48.2-17.5c-0.6-0.1-1-0.6-1-1.2c0.1-0.6,0.6-1,1.2-1
				c0.7,0.1,18.2,2.4,48.9,17.8c0.5,0.3,0.8,0.9,0.5,1.5C564.2,126.3,563.8,126.5,563.4,126.5z"/>
		</g>
		<g>
			<path class="st2" d="M575.6,231.3c-0.4,0-0.9-0.3-1-0.7c-9.7-24.9-27.2-42.5-27.3-42.6c-0.4-0.4-0.4-1.1,0-1.6
				c0.4-0.4,1.1-0.4,1.6,0c0.2,0.2,17.9,18.1,27.8,43.4c0.2,0.6-0.1,1.2-0.6,1.4C575.8,231.3,575.7,231.3,575.6,231.3z"/>
		</g>
		<g>
			<path class="st2" d="M368.4,119.9c-0.5,0-0.9-0.3-1.1-0.8c-0.2-0.6,0.1-1.2,0.7-1.4c22.2-7,35.1-6.7,35.7-6.7
				c0.6,0,1.1,0.5,1.1,1.1c0,0.6-0.5,1.1-1.1,1.1c-0.1,0-13.1-0.3-34.9,6.6C368.7,119.9,368.5,119.9,368.4,119.9z"/>
		</g>
		<g>
			<path class="st2" d="M533.8,372.6C533.8,372.6,533.7,372.6,533.8,372.6c-0.7,0-1.1-0.6-1.1-1.2c2.2-39.3,7.5-95.6,7.6-96.1
				c0.1-0.6,0.6-1.1,1.2-1c0.6,0.1,1.1,0.6,1,1.2c-0.1,0.6-5.4,56.8-7.6,96C534.8,372.2,534.4,372.6,533.8,372.6z"/>
		</g>
		<g>
			<path class="st8" d="M529.3,151.9c10.5,0,14.2,65.5-16.3,55.2C482.5,196.7,518.8,151.9,529.3,151.9"/>
		</g>
		<g>
			<path class="st7" d="M526.2,316.4c11.4,1.2,9,63-23.1,49.8C471,353.1,514.8,315.2,526.2,316.4"/>
		</g>
		<g>
			<path class="st2" d="M519.3,197.1c0,0-0.1,0-0.1,0c-0.6-0.1-1-0.6-1-1.2c4.4-37.2,15.4-64,15.5-64.3c0.2-0.6,0.9-0.8,1.4-0.6
				c0.6,0.2,0.8,0.9,0.6,1.4c-0.1,0.3-11,26.8-15.4,63.7C520.3,196.7,519.8,197.1,519.3,197.1z"/>
		</g>
		<g>
			<path class="st2" d="M513,346.9c-0.1,0-0.2,0-0.3,0c-0.6-0.1-0.9-0.8-0.8-1.3c8.2-32.2,25-45,25.7-45.5c0.5-0.4,1.2-0.3,1.5,0.2
				c0.4,0.5,0.3,1.2-0.2,1.5c0,0-4.3,3.2-9.4,10.3c-4.8,6.5-11.3,17.7-15.5,34C513.9,346.6,513.5,346.9,513,346.9z"/>
		</g>
		<g>
			<path class="st8" d="M544,287c9.8-6,45.5,44.6,12,53.6C522.5,349.6,534.2,293,544,287"/>
		</g>
		<g>
			<path class="st7" d="M540.4,224.7c10.5,0,26,61.8-16.3,55.2C481.8,273.3,529.8,224.7,540.4,224.7"/>
		</g>
		<g>
			<path class="st2" d="M529.2,264.4c0,0-0.1,0-0.1,0c-0.6-0.1-1-0.6-1-1.2c4.4-37.4,18.4-56,19-56.8c0.4-0.5,1.1-0.6,1.5-0.2
				c0.5,0.4,0.6,1.1,0.2,1.5c-0.1,0.2-14.2,19-18.5,55.7C530.3,264,529.8,264.4,529.2,264.4z"/>
		</g>
		<g>
			<path class="st11" d="M512.9,117.5c0,0,7,0,7,7v3.7c0,0,0,7-7,7h-46.1c0,0-7,0-7-7v-3.7c0,0,0-7,7-7H512.9z"/>
		</g>
	</g>
	<g>
		<rect x="216" y="577.5" class="st1" width="396.9" height="7"/>
	</g>
	<g>
		<g>
			<path class="st2" d="M608.7,551.3c19.3-7,26.6-27.4,16.1-45.5s-34.6-27.1-53.9-20c-19.3,7-26.6,27.4-16.1,45.5
				S589.4,558.3,608.7,551.3"/>
		</g>
		<g>
			<path class="st20" d="M607.7,553.3c19.3-7,26.6-27.4,16.1-45.5c-10.5-18.1-34.6-27.1-53.9-20c-19.3,7-26.6,27.4-16.1,45.5
				C564.2,551.4,588.4,560.3,607.7,553.3"/>
		</g>
		<g>
			<path class="st11" d="M604.7,548c1.5-0.6,2.1-2.2,1.3-3.6s-2.8-2.2-4.3-1.6c-1.5,0.6-2.1,2.2-1.3,3.6
				C601.2,547.9,603.2,548.6,604.7,548"/>
		</g>
		<g>
			<path class="st11" d="M575.9,498.2c1.5-0.6,2.1-2.2,1.3-3.6c-0.8-1.4-2.8-2.2-4.3-1.6c-1.5,0.6-2.1,2.2-1.3,3.6
				C572.5,498.1,574.4,498.8,575.9,498.2"/>
		</g>
		<g>
			<path class="st11" d="M616.2,512.1c1.5-0.6,2.1-2.2,1.3-3.6c-0.8-1.4-2.8-2.2-4.3-1.6c-1.5,0.6-2.1,2.2-1.3,3.6
				C612.7,512,614.6,512.7,616.2,512.1"/>
		</g>
		<g>
			<path class="st11" d="M564.4,531c1.5-0.6,2.1-2.2,1.3-3.6c-0.8-1.4-2.8-2.2-4.3-1.6s-2.1,2.2-1.3,3.6
				C560.9,530.8,562.8,531.6,564.4,531"/>
		</g>
		<g>
			<path class="st11" d="M574.7,543.1c1.5-0.6,2.1-2.2,1.3-3.6c-0.8-1.4-2.8-2.2-4.3-1.6c-1.5,0.6-2.1,2.2-1.3,3.6
				C571.2,542.9,573.2,543.6,574.7,543.1"/>
		</g>
		<g>
			<path class="st11" d="M589.8,548.7c1.5-0.6,2.1-2.2,1.3-3.6c-0.8-1.4-2.8-2.2-4.3-1.6s-2.1,2.2-1.3,3.6
				C586.4,548.5,588.3,549.3,589.8,548.7"/>
		</g>
		<g>
			<path class="st11" d="M616.5,539c1.5-0.6,2.1-2.2,1.3-3.6c-0.8-1.4-2.8-2.2-4.3-1.6s-2.1,2.2-1.3,3.6
				C613,538.8,614.9,539.6,616.5,539"/>
		</g>
		<g>
			<path class="st11" d="M620.8,526.6c1.5-0.6,2.1-2.2,1.3-3.6c-0.8-1.4-2.8-2.2-4.3-1.6c-1.5,0.6-2.1,2.2-1.3,3.6
				C617.3,526.5,619.3,527.2,620.8,526.6"/>
		</g>
		<g>
			<path class="st11" d="M558.1,514.2c1.5-0.6,3.5,0.2,4.3,1.6c0.8,1.4,0.3,3.1-1.3,3.6s-3.5-0.2-4.3-1.6
				C556,516.4,556.5,514.8,558.1,514.2"/>
		</g>
		<g>
			<path class="st11" d="M562.6,501.5c1.5-0.6,3.5,0.2,4.3,1.6c0.8,1.4,0.3,3.1-1.3,3.6c-1.5,0.6-3.5-0.2-4.3-1.6
				C560.5,503.7,561,502.1,562.6,501.5"/>
		</g>
		<g>
			<path class="st11" d="M589.2,491.8c1.5-0.6,3.5,0.2,4.3,1.6c0.8,1.4,0.3,3.1-1.3,3.6c-1.5,0.6-3.5-0.2-4.3-1.6
				C587.1,494,587.7,492.4,589.2,491.8"/>
		</g>
		<g>
			<path class="st11" d="M603.9,497.2c1.5-0.6,3.5,0.2,4.3,1.6c0.8,1.4,0.3,3.1-1.3,3.6c-1.5,0.6-3.5-0.2-4.3-1.6
				C601.7,499.4,602.3,497.8,603.9,497.2"/>
		</g>
	</g>
	<g>
		<polygon class="st14" points="585.9,515.5 589.5,501.2 590.7,515.6 		"/>
	</g>
	<g>
		<polygon class="st14" points="557,524.1 583.7,517.6 584.6,522 		"/>
	</g>
	<g>
		<g>
			<path class="st7" d="M591.1,524.4c3.1-1.1,4.2-4.4,2.6-7.3c-1.7-2.9-5.5-4.3-8.6-3.2c-3.1,1.1-4.2,4.4-2.6,7.3
				C584.1,524.1,588,525.6,591.1,524.4"/>
		</g>
		<g>
			<path class="st15" d="M780.1,309.9l3-2.7c4.5-3.8,10.4-5.7,17.7-5.7c7.9,0,14,2.3,18.3,7c4.3,4.7,6.4,11.3,6.4,20.1
				c0,9.1-1.9,16.1-5.6,21.1c-3.7,5-9.1,7.5-16,7.5c-6.2,0-11.2-1.8-15.1-5.3c-3.8-3.6-6.1-8.5-6.7-15h-30.2
				c0.3,8.7,2.7,16.5,7.3,23.4c4.6,6.8,10.9,12.1,18.9,15.9c8,3.8,16.6,5.7,25.9,5.7c10.6,0,19.9-2.2,27.7-6.5
				c7.8-4.3,13.8-10.4,18-18.3c4.2-7.9,6.3-16.8,6.3-26.7c0-16.4-4.2-29.1-12.5-38.2c-8.3-9.1-19.8-13.6-34.5-13.6
				c-8.2,0-15.9,1.9-23.2,5.8l3.8-33.1h61.2v-25.5h-86.3l-8.9,78.2L780.1,309.9z"/>
		</g>
		<g>
			<path class="st20" d="M772.9,309.9l3-2.7c4.5-3.8,10.4-5.7,17.7-5.7c7.9,0,14,2.3,18.3,7c4.3,4.7,6.4,11.3,6.4,20.1
				c0,9.1-1.9,16.1-5.6,21.1c-3.7,5-9.1,7.5-16,7.5c-6.2,0-11.2-1.8-15.1-5.3c-3.8-3.6-6.1-8.5-6.7-15h-30.2
				c0.3,8.7,2.7,16.5,7.3,23.4c4.6,6.8,10.9,12.1,18.9,15.9c8,3.8,16.6,5.7,25.9,5.7c10.6,0,19.9-2.2,27.7-6.5
				c7.8-4.3,13.8-10.4,18-18.3c4.2-7.9,6.3-16.8,6.3-26.7c0-16.4-4.2-29.1-12.5-38.2c-8.3-9.1-19.8-13.6-34.5-13.6
				c-8.2,0-15.9,1.9-23.2,5.8l3.8-33.1h61.2v-25.5h-86.3l-8.9,78.2L772.9,309.9z"/>
		</g>
		<g>
			<path class="st15" d="M825.4,519.1c-0.1,12.1-1.9,21-5.2,26.9c-3.3,5.9-8.7,8.8-16.2,8.8c-7.5,0-13-3.1-16.4-9.2
				c-3.4-6.1-5.1-15.4-5.1-28v-37.5c0.2-11.8,2-20.4,5.4-26c3.4-5.5,8.7-8.3,15.9-8.3c7.4,0,12.8,2.9,16.3,8.7
				c3.5,5.8,5.2,15.1,5.2,27.9V519.1z M855.9,485.3c-0.2-20.7-4.8-36.5-13.6-47.5c-8.9-11-21.7-16.5-38.5-16.5
				c-16.8,0-29.6,5.6-38.5,16.7c-8.9,11.1-13.4,27.5-13.4,49v28.3c0.2,20.7,4.8,36.5,13.6,47.6c8.9,11.1,21.7,16.6,38.5,16.6
				c17,0,29.9-5.6,38.7-16.9c8.8-11.3,13.2-27.6,13.2-48.8V485.3z"/>
		</g>
		<g>
			<path class="st20" d="M818.2,519.1c-0.1,12.1-1.9,21-5.2,26.9c-3.3,5.9-8.7,8.8-16.2,8.8c-7.5,0-13-3.1-16.4-9.2
				c-3.4-6.1-5.1-15.4-5.1-28v-37.5c0.2-11.8,2-20.4,5.4-26c3.4-5.5,8.7-8.3,15.9-8.3c7.4,0,12.8,2.9,16.3,8.7
				c3.5,5.8,5.2,15.1,5.2,27.9V519.1z M848.8,485.3c-0.2-20.7-4.8-36.5-13.6-47.5c-8.9-11-21.7-16.5-38.5-16.5
				c-16.8,0-29.6,5.6-38.5,16.7c-8.9,11.1-13.4,27.5-13.4,49v28.3c0.2,20.7,4.8,36.5,13.6,47.6c8.9,11.1,21.7,16.6,38.5,16.6
				c17,0,29.9-5.6,38.7-16.9c8.8-11.3,13.2-27.6,13.2-48.8V485.3z"/>
		</g>
		<g>
			<path class="st15" d="M825.4,714.6c-0.1,12.1-1.9,21-5.2,26.9c-3.3,5.9-8.7,8.8-16.2,8.8c-7.5,0-13-3.1-16.4-9.2
				c-3.4-6.1-5.1-15.4-5.1-28v-37.5c0.2-11.8,2-20.4,5.4-26c3.4-5.5,8.7-8.3,15.9-8.3c7.4,0,12.8,2.9,16.3,8.7
				c3.5,5.8,5.2,15.1,5.2,27.9V714.6z M855.9,680.8c-0.2-20.7-4.8-36.5-13.6-47.5c-8.9-11-21.7-16.5-38.5-16.5
				c-16.8,0-29.6,5.6-38.5,16.7c-8.9,11.1-13.4,27.5-13.4,49v28.3c0.2,20.7,4.8,36.5,13.6,47.6c8.9,11.1,21.7,16.6,38.5,16.6
				c17,0,29.9-5.6,38.7-16.9c8.8-11.3,13.2-27.6,13.2-48.8V680.8z"/>
		</g>
		<g>
			<path class="st20" d="M818.2,714.6c-0.1,12.1-1.9,21-5.2,26.9c-3.3,5.9-8.7,8.8-16.2,8.8c-7.5,0-13-3.1-16.4-9.2
				c-3.4-6.1-5.1-15.4-5.1-28v-37.5c0.2-11.8,2-20.4,5.4-26c3.4-5.5,8.7-8.3,15.9-8.3c7.4,0,12.8,2.9,16.3,8.7
				c3.5,5.8,5.2,15.1,5.2,27.9V714.6z M848.8,680.8c-0.2-20.7-4.8-36.5-13.6-47.5c-8.9-11-21.7-16.5-38.5-16.5
				c-16.8,0-29.6,5.6-38.5,16.7c-8.9,11.1-13.4,27.5-13.4,49v28.3c0.2,20.7,4.8,36.5,13.6,47.6c8.9,11.1,21.7,16.6,38.5,16.6
				c17,0,29.9-5.6,38.7-16.9c8.8-11.3,13.2-27.6,13.2-48.8V680.8z"/>
		</g>
	</g>
	<g>
		<rect x="725" y="378.6" class="st1" width="147" height="7"/>
	</g>
	<g>
		<rect x="725" y="577.1" class="st1" width="147" height="7"/>
	</g>
	<g>
		<rect x="725" y="772.5" class="st1" width="147" height="7"/>
	</g>
</g>
</svg>
