<?xml version="1.0" encoding="utf-8"?>
<!-- Generator: Adobe Illustrator 23.0.4, SVG Export Plug-In . SVG Version: 6.00 Build 0)  -->
<svg version="1.1" id="Layer_1" xmlns="http://www.w3.org/2000/svg" xmlns:xlink="http://www.w3.org/1999/xlink" x="0px" y="0px"
	 viewBox="0 0 1000 900" style="enable-background:new 0 0 1000 900;" xml:space="preserve">
<style type="text/css">
	.st0{fill:#DBDBDB;}
	.st1{fill:#F5F5F5;}
	.st2{fill:#9E9E9E;}
	.st3{fill:#0000FF;}
	.st4{fill:#05B28E;}
	.st5{fill:#6BE5AD;}
	.st6{fill:#B5F2D6;}
	.st7{fill:#F72C5A;}
	.st8{fill:#FC5A76;}
	.st9{fill:#FDACBA;}
	.st10{fill:#FEE581;}
	.st11{fill:#FED43D;}
	.st12{fill:#3E4CD6;}
	.st13{fill:#7A98DE;}
	.st14{fill:#BCCBEE;}
	.st15{fill:#7B3837;}
	.st16{fill:#FEEA9E;}
	.st17{fill:#82D8C6;}
	.st18{fill:#FFFFFF;}
	.st19{fill:#FEF2C0;}
	.st20{opacity:0.5;}
	.st21{clip-path:url(#SVGID_2_);}
	.st22{clip-path:url(#SVGID_4_);}
</style>
<g>
	<g>
		<rect x="100" y="177.5" class="st0" width="800" height="605"/>
	</g>
	<g>
		<g>
			<path class="st1" d="M500,837.5c203.8,0,369-5.8,369-13c0-7.2-165.2-13-369-13s-369,5.8-369,13C131,831.6,296.2,837.5,500,837.5"
				/>
		</g>
	</g>
	<g>
		<rect x="100" y="182.5" class="st1" width="10" height="600"/>
	</g>
	<g>
		<rect x="890" y="182.5" class="st1" width="10" height="600"/>
	</g>
	<g>
		<rect x="100" y="772.5" class="st1" width="800" height="10"/>
	</g>
	<g>
		<rect x="695" y="182.5" class="st1" width="10" height="600"/>
	</g>
	<g>
		<rect x="495" y="182.5" class="st1" width="10" height="200"/>
	</g>
	<g>
		<rect x="100" y="177.5" class="st1" width="800" height="10"/>
	</g>
	<g>
		<rect x="100" y="377.5" class="st1" width="600" height="10"/>
	</g>
	<g>
		<rect x="100" y="577.5" class="st1" width="800" height="10"/>
	</g>
	<g>
		<rect x="495" y="582.5" class="st1" width="10" height="200"/>
	</g>
	<g>
		<polygon class="st2" points="695,387.5 110,387.5 126,403.5 679,403.5 		"/>
	</g>
	<g>
		<polygon class="st2" points="494,587.5 110,587.5 126,603.5 478,603.5 		"/>
	</g>
	<g>
		<polygon class="st2" points="494,187.6 110,187.6 126,203.6 478,203.6 		"/>
	</g>
	<g>
		<rect x="678" y="392.5" class="st2" width="1" height="185"/>
	</g>
	<g>
		<rect x="477.5" y="592.1" class="st2" width="1" height="180.5"/>
	</g>
	<g>
		<rect x="477.5" y="192.2" class="st2" width="1" height="185.3"/>
	</g>
	<g>
		<rect x="125" y="392.5" class="st2" width="1" height="185"/>
	</g>
	<g>
		<rect x="125" y="592.1" class="st2" width="1" height="180.5"/>
	</g>
	<g>
		<rect x="125" y="192.2" class="st2" width="1" height="185.3"/>
	</g>
	<g>
		<polygon class="st2" points="695,188 505,188 521,204 679,204 		"/>
	</g>
	<g>
		<polygon class="st2" points="889,188 705,188 721,204 873,204 		"/>
	</g>
	<g>
		<polygon class="st2" points="695,587.5 505,587.5 521,603.5 679,603.5 		"/>
	</g>
	<g>
		<rect x="678" y="193" class="st2" width="1" height="184.5"/>
	</g>
	<g>
		<rect x="872" y="193" class="st2" width="1" height="384.5"/>
	</g>
	<g>
		<rect x="678" y="592.5" class="st2" width="1" height="179.1"/>
	</g>
	<g>
		<rect x="521.5" y="193.9" class="st2" width="1" height="183"/>
	</g>
	<g>
		<rect x="721.5" y="194.9" class="st2" width="1" height="381.3"/>
	</g>
	<g>
		<rect x="521.5" y="593.4" class="st2" width="1" height="179.1"/>
	</g>
	<g>
		<polygon class="st2" points="890,587.5 706,587.5 722,603.5 874,603.5 		"/>
	</g>
	<g>
		<rect x="873.5" y="592.5" class="st2" width="1" height="179.1"/>
	</g>
	<g>
		<rect x="721.5" y="593.4" class="st2" width="1" height="177.6"/>
	</g>
	<g>
		<path class="st3" d="M515.1,679.6c-0.2,0-0.4-0.2-0.4-0.4l-5.7-87.7l104.4,4.9c0.2,0,0.4,0.2,0.4,0.4c0,0.2-0.2,0.4-0.4,0.4
			l-103.5-4.9l5.6,86.8C515.5,679.4,515.3,679.6,515.1,679.6C515.1,679.6,515.1,679.6,515.1,679.6z"/>
	</g>
	<g>
		<path class="st3" d="M602.7,626.8c0,0-0.1,0-0.1,0l-92.8-34.3c-0.2-0.1-0.3-0.2-0.3-0.4c0,0,0-0.1,0-0.1c0.1-0.2,0.3-0.3,0.5-0.2
			l92.8,34.3c0.2,0.1,0.3,0.2,0.3,0.4c0,0,0,0.1,0,0.1C603,626.7,602.8,626.8,602.7,626.8z"/>
	</g>
	<g>
		<path class="st3" d="M561.2,670.5c-0.1,0-0.3-0.1-0.3-0.2l-51.7-78c-0.1-0.2-0.1-0.4,0.1-0.6c0.2-0.1,0.4-0.1,0.6,0.1l51.7,78
			c0.1,0.2,0.1,0.4-0.1,0.6C561.3,670.4,561.3,670.5,561.2,670.5z"/>
	</g>
	<g>
		<g>
			<path class="st3" d="M514.7,674c-0.1,0-0.2-0.1-0.3-0.2c-0.1-0.2-0.1-0.4,0.1-0.6c0.1-0.1,3.5-2.5,10.8-4.4
				c6.7-1.7,18.1-3.3,34.5-1.1c5.6-11.9,16.1-22.9,24-30c7.7-7,14.5-11.7,15.8-12.6c-0.5-2.2-3.2-17.1,10.9-28.7
				c0.2-0.1,0.4-0.1,0.6,0.1c0.1,0.2,0.1,0.4-0.1,0.6c-7.7,6.4-10.1,13.7-10.8,18.7c-0.8,5.4,0.3,9.4,0.3,9.5l0.1,0.3l-0.2,0.2
				c-0.3,0.2-29.4,19.8-39.8,42.7l-0.1,0.3l-0.3,0c-16.4-2.3-27.8-0.7-34.4,1c-7.2,1.9-10.6,4.3-10.6,4.3
				C514.9,674,514.8,674,514.7,674z"/>
		</g>
		<g>
			<path class="st3" d="M513.5,654.7c-0.1,0-0.2,0-0.2-0.1c-0.2-0.1-0.2-0.4-0.1-0.6c7.1-9.5,26.3-6.2,32.6-5.2
				c0.6,0.1,1.2,0.2,1.5,0.2c2.4-9.4,11.4-17.4,18.6-22.4c7-4.9,13.7-8,15.1-8.7c-0.2-2-0.7-13.8,9.1-22.4c0.2-0.1,0.4-0.1,0.6,0
				c0.1,0.2,0.1,0.4,0,0.6c-10.4,9.1-8.8,21.8-8.8,21.9l0,0.3l-0.3,0.1c-0.3,0.1-29.4,13.1-33.5,31l-0.1,0.3h-0.3
				c-0.3,0-0.8-0.1-1.9-0.3c-6.2-1-25.1-4.2-31.9,4.8C513.7,654.6,513.6,654.7,513.5,654.7z"/>
		</g>
		<g>
			<path class="st3" d="M535.9,631.8l-0.3-0.1c-0.2-0.1-17.3-5.7-23.3-0.1c-0.2,0.2-0.4,0.1-0.6,0c-0.2-0.2-0.1-0.4,0-0.6
				c5.9-5.5,21.2-1,23.8-0.2c1.3-2.3,9.7-16.5,25.6-19.9c0,0,0,0,0-0.1c-1.1-8.5,4-13.4,8.5-16c0.2-0.1,0.4,0,0.6,0.1
				c0.1,0.2,0,0.4-0.1,0.6c-6.3,3.7-9,8.8-8.2,15.2c0,0.2,0.1,0.4,0.1,0.5v0.3l-0.3,0.1c-17.1,3.5-25.5,19.7-25.5,19.9L535.9,631.8z
				"/>
		</g>
		<g>
			<path class="st3" d="M511.2,617.9c-0.2,0-0.3-0.1-0.4-0.3c-0.1-0.2,0-0.4,0.2-0.5c0.4-0.1,9.1-3.5,14.2-1.9
				c2.9-5,15.4-10.5,17.5-11.4c-0.2-1.4-0.4-6.3,5.8-10.3c0.2-0.1,0.4-0.1,0.6,0.1s0.1,0.4-0.1,0.6c-6.8,4.3-5.5,9.5-5.4,9.8
				l0.1,0.3l-0.3,0.1c-0.2,0.1-15,6.3-17.6,11.4l-0.2,0.3l-0.3-0.1c-4.8-1.7-13.9,1.7-14,1.8C511.3,617.9,511.2,617.9,511.2,617.9z"
				/>
		</g>
		<g>
			<path class="st4" d="M873.4,618.3l-21.4,152.4l13.3,1.9L886,625.1c0,0,0.7-5-4.3-5.6L873.4,618.3z"/>
		</g>
		<g>
			<path class="st5" d="M873.4,618.3l-21.4,152.4l-13.3-1.9l20.7-147.4c0,0,0.7-5,5.6-4.3L873.4,618.3z"/>
		</g>
	</g>
	<g>
		
			<rect x="856.3" y="715.8" transform="matrix(0.1392 -0.9903 0.9903 0.1392 16.1967 1477.1146)" class="st6" width="3" height="26.9"/>
	</g>
	<g>
		
			<rect x="853.6" y="735" transform="matrix(0.1392 -0.9903 0.9903 0.1392 -5.1771 1490.9941)" class="st6" width="3" height="26.9"/>
	</g>
	<g>
		<g>
			<path class="st7" d="M611,618.3l-21.4,152.4l13.3,1.9l20.7-147.4c0,0,0.7-5-4.3-5.6L611,618.3z"/>
		</g>
		<g>
			<path class="st8" d="M611,618.3l-21.4,152.4l-13.3-1.9L597,621.4c0,0,0.7-5,5.6-4.3L611,618.3z"/>
		</g>
	</g>
	<g>
		
			<rect x="592.6" y="727.3" transform="matrix(0.1393 -0.9902 0.9902 0.1393 -222.4634 1225.6104)" class="st9" width="2.4" height="26.9"/>
	</g>
	<g>
		
			<rect x="607.6" y="620.8" transform="matrix(0.1393 -0.9902 0.9902 0.1393 -104.0879 1148.7487)" class="st9" width="2.4" height="26.9"/>
	</g>
	<g>
		
			<rect x="590.5" y="742.7" transform="matrix(0.1393 -0.9902 0.9902 0.1393 -239.562 1236.7126)" class="st9" width="2.4" height="26.9"/>
	</g>
	<g>
		
			<rect x="605.4" y="636.2" transform="matrix(0.1393 -0.9902 0.9902 0.1393 -121.1864 1159.851)" class="st9" width="2.4" height="26.9"/>
	</g>
	<g>
		<g>
			<path class="st10" d="M484.3,223.7c0,0,4,0.2,3.8,4.2l-8.5,149.7l-13.4-0.8l8.5-149.7c0,0,0.2-4,4.2-3.8L484.3,223.7z"/>
		</g>
		<g>
			<path class="st11" d="M478.4,230.8c0,0-1-0.1-1.1,0.9l-5.8,102.4c0,0-0.1,1,0.9,1.1l5.5,0.3c0,0,1,0.1,1.1-0.9l5.8-102.4
				c0,0,0.1-1-0.9-1.1L478.4,230.8z"/>
		</g>
		<g>
			<path class="st11" d="M472,344.2c0,0-1-0.1-1.1,0.9l-1.6,27.8c0,0-0.1,1,0.9,1.1l5.5,0.3c0,0,1,0.1,1.1-0.9l1.6-27.8
				c0,0,0.1-1-0.9-1.1L472,344.2z"/>
		</g>
		<g>
			<path class="st8" d="M722.7,422.6c0,0,4-0.2,4.2,3.7l9.2,149.6l-13.4,0.8l-9.2-149.6c0,0-0.2-4,3.7-4.2L722.7,422.6z"/>
		</g>
		<g>
			<path class="st7" d="M720.1,469.2c0,0-1,0.1-0.9,1.1l3.3,54.7c0,0,0.1,1,1.1,0.9l5.5-0.3c0,0,1-0.1,0.9-1.1l-3.3-54.7
				c0,0-0.1-1-1.1-0.9L720.1,469.2z"/>
		</g>
	</g>
	<g>
		
			<rect x="714.4" y="439.2" transform="matrix(0.9981 -6.084536e-02 6.084536e-02 0.9981 -25.4354 44.6895)" class="st9" width="13.4" height="1.6"/>
	</g>
	<g>
		
			<rect x="715" y="449.5" transform="matrix(0.9981 -6.084536e-02 6.084536e-02 0.9981 -26.0633 44.7471)" class="st9" width="13.4" height="1.6"/>
	</g>
	<g>
		<g>
			<path class="st12" d="M280.3,608v164.5h100.6V618.7c0,0,0-10.7-10.7-10.7H280.3z"/>
		</g>
	</g>
	<g>
		<rect x="251.5" y="608" class="st13" width="28.8" height="164.5"/>
	</g>
	<g>
		<rect x="251.5" y="624" class="st14" width="28.8" height="21"/>
	</g>
	<g>
		<rect x="348.9" y="606.4" class="st15" width="6.4" height="166.1"/>
	</g>
	<g>
		<rect x="623.7" y="618.6" class="st11" width="31.4" height="153.9"/>
	</g>
	<g>
		<g>
			<path class="st16" d="M639.4,706.2c5.9,0,10.6-4.8,10.6-10.6c0-5.9-4.8-10.6-10.6-10.6c-5.9,0-10.6,4.8-10.6,10.6
				C628.8,701.5,633.6,706.2,639.4,706.2"/>
		</g>
	</g>
	<g>
		<rect x="656" y="618.6" class="st4" width="31.4" height="153.9"/>
	</g>
	<g>
		<g>
			<path class="st17" d="M671.7,706.2c5.9,0,10.6-4.8,10.6-10.6c0-5.9-4.8-10.6-10.6-10.6c-5.9,0-10.6,4.8-10.6,10.6
				C661.1,701.5,665.8,706.2,671.7,706.2"/>
		</g>
		<g>
			<path class="st11" d="M198.5,634.5v138h13.4v-133c0,0,0-5-5-5H198.5z"/>
		</g>
		<g>
			<path class="st10" d="M198.5,634.5v138H185v-133c0,0,0-5,5-5H198.5z"/>
		</g>
	</g>
	<g>
		<path class="st15" d="M207.4,767.2h-17.9V642.4h17.9V767.2z M191.5,765.2h13.9V644.4h-13.9V765.2z"/>
	</g>
	<g>
		<g>
			<path class="st8" d="M220.1,609.5c0,0,4-0.3,4.3,3.7l10.4,158.4l-13.4,0.9l-10.4-158.4c0,0-0.3-4,3.7-4.3L220.1,609.5z"/>
		</g>
		<g>
			<path class="st7" d="M217.8,658.8c0,0-1,0.1-0.9,1.1l3.8,57.9c0,0,0.1,1,1.1,0.9l5.5-0.4c0,0,1-0.1,0.9-1.1l-3.8-57.9
				c0,0-0.1-1-1.1-0.9L217.8,658.8z"/>
		</g>
	</g>
	<g>
		
			<rect x="211.8" y="627" transform="matrix(0.9979 -6.525452e-02 6.525452e-02 0.9979 -40.507 15.6002)" class="st9" width="13.4" height="1.7"/>
	</g>
	<g>
		
			<rect x="212.6" y="638" transform="matrix(0.9979 -6.525452e-02 6.525452e-02 0.9979 -41.2188 15.6703)" class="st9" width="13.4" height="1.7"/>
	</g>
	<g>
		<g>
			<path class="st13" d="M601.7,348.6c29.9,0,54.2-24.3,54.2-54.2c0-29.9-24.3-54.2-54.2-54.2c-29.9,0-54.2,24.3-54.2,54.2
				C547.5,324.3,571.8,348.6,601.7,348.6"/>
		</g>
		<g>
			<path class="st12" d="M601.7,350.7c-31,0-56.3-25.3-56.3-56.3s25.3-56.3,56.3-56.3s56.3,25.3,56.3,56.3S632.7,350.7,601.7,350.7z
				 M601.7,242.2c-28.8,0-52.2,23.4-52.2,52.2c0,28.8,23.4,52.2,52.2,52.2s52.2-23.4,52.2-52.2C653.9,265.6,630.5,242.2,601.7,242.2
				z"/>
		</g>
		<g>
			<path class="st7" d="M575.3,342c0,0-2.8,0-3.9,2.6l-12.1,30.3c0,0-1.1,2.6,1.8,2.6h82.5c0,0,2.8,0,1.8-2.6l-12.1-30.3
				c0,0-1.1-2.6-3.9-2.6H575.3z"/>
		</g>
	</g>
	<g>
		<polygon class="st8" points="569.6,349.1 567.9,353.3 636.8,353.3 635,349.1 		"/>
	</g>
	<g>
		<polygon class="st8" points="561.1,370.4 643.6,370.4 641.9,366.2 562.8,366.2 		"/>
	</g>
	<g>
		<g>
			<path class="st11" d="M605.2,267.2c0,0,13.3,0,13.3,15c3.3-13.3,13.6-15,13.6-15c-11.7-1.7-12.1-6.7-12.1-16.7
				C618.3,265.5,615.2,267.2,605.2,267.2"/>
		</g>
		<g>
			<path class="st7" d="M460.9,222.6L439.5,375l13.3,1.9l20.7-147.4c0,0,0.7-5-4.3-5.6L460.9,222.6z"/>
		</g>
		<g>
			<path class="st8" d="M460.9,222.6L439.5,375l-13.3-1.9l20.7-147.4c0,0,0.7-5,5.6-4.3L460.9,222.6z"/>
		</g>
	</g>
	<g>
		
			<rect x="442.5" y="331.7" transform="matrix(0.1393 -0.9902 0.9902 0.1393 40.1129 736.4172)" class="st9" width="2.4" height="26.9"/>
	</g>
	<g>
		
			<rect x="457.5" y="225.2" transform="matrix(0.1393 -0.9902 0.9902 0.1393 158.4884 659.5555)" class="st9" width="2.4" height="26.9"/>
	</g>
	<g>
		
			<rect x="440.3" y="347.1" transform="matrix(0.1393 -0.9902 0.9902 0.1393 23.0142 747.5195)" class="st9" width="2.4" height="26.9"/>
	</g>
	<g>
		
			<rect x="455.3" y="240.5" transform="matrix(0.1393 -0.9902 0.9902 0.1393 141.3898 670.6577)" class="st9" width="2.4" height="26.9"/>
	</g>
	<g>
		<g>
			<path class="st11" d="M621,298.2c0,0,10.1,0,10.1,11.4c2.5-10.1,10.4-11.4,10.4-11.4c-8.9-1.3-9.2-5.1-9.2-12.7
				C631,296.9,628.6,298.2,621,298.2"/>
		</g>
		<g>
			<path class="st11" d="M576.5,262.2c0,0,10.1,0,10.1,11.4c2.5-10.1,10.4-11.4,10.4-11.4c-8.9-1.3-9.2-5.1-9.2-12.7
				C586.5,260.9,584.1,262.2,576.5,262.2"/>
		</g>
	</g>
	<g>
		<polygon class="st18" points="713.7,649 802.2,649 806.5,772.5 718,772.5 		"/>
	</g>
	<g>
		<g>
			<path class="st12" d="M735.8,682.4c3.2,0,5.8-2.6,5.6-5.8c-0.1-3.2-2.8-5.8-6-5.8c-3.2,0-5.8,2.6-5.6,5.8
				C729.8,679.7,732.5,682.4,735.8,682.4"/>
		</g>
		<g>
			<path class="st5" d="M736.6,705.7c3.2,0,5.8-2.6,5.6-5.8c-0.1-3.2-2.8-5.8-6-5.8c-3.2,0-5.8,2.6-5.6,5.8
				C730.6,703.1,733.3,705.7,736.6,705.7"/>
		</g>
		<g>
			<path class="st7" d="M737.4,729.1c3.2,0,5.8-2.6,5.6-5.8c-0.1-3.2-2.8-5.8-6-5.8c-3.2,0-5.8,2.6-5.6,5.8
				C731.5,726.5,734.2,729.1,737.4,729.1"/>
		</g>
		<g>
			<path class="st11" d="M738.1,750.8c3.2,0,5.8-2.6,5.6-5.8c-0.1-3.2-2.8-5.8-6-5.8c-3.2,0-5.8,2.6-5.6,5.8
				C732.2,748.2,734.9,750.8,738.1,750.8"/>
		</g>
		<g>
			<path class="st7" d="M763.2,750.8c3.2,0,5.8-2.6,5.6-5.8c-0.1-3.2-2.8-5.8-6-5.8c-3.2,0-5.8,2.6-5.6,5.8
				C757.3,748.2,760,750.8,763.2,750.8"/>
		</g>
		<g>
			<path class="st5" d="M786.6,750.8c3.2,0,5.8-2.6,5.6-5.8c-0.1-3.2-2.8-5.8-6-5.8c-3.2,0-5.8,2.6-5.6,5.8
				C780.6,748.2,783.3,750.8,786.6,750.8"/>
		</g>
		<g>
			<path class="st12" d="M762.4,727.4c3.2,0,5.8-2.6,5.6-5.8c-0.1-3.2-2.8-5.8-6-5.8c-3.2,0-5.8,2.6-5.6,5.8
				C756.4,724.8,759.2,727.4,762.4,727.4"/>
		</g>
		<g>
			<path class="st11" d="M785.8,727.4c3.2,0,5.8-2.6,5.6-5.8c-0.1-3.2-2.8-5.8-6-5.8c-3.2,0-5.8,2.6-5.6,5.8
				C779.8,724.8,782.5,727.4,785.8,727.4"/>
		</g>
		<g>
			<path class="st7" d="M761.6,705.7c3.2,0,5.8-2.6,5.6-5.8c-0.1-3.2-2.8-5.8-6-5.8c-3.2,0-5.8,2.6-5.6,5.8
				C755.7,703.1,758.4,705.7,761.6,705.7"/>
		</g>
		<g>
			<path class="st5" d="M785,705.7c3.2,0,5.8-2.6,5.6-5.8c-0.1-3.2-2.8-5.8-6-5.8c-3.2,0-5.8,2.6-5.6,5.8
				C779.1,703.1,781.8,705.7,785,705.7"/>
		</g>
		<g>
			<path class="st11" d="M760.8,682.4c3.2,0,5.8-2.6,5.6-5.8c-0.1-3.2-2.8-5.8-6-5.8c-3.2,0-5.8,2.6-5.6,5.8
				C754.9,679.7,757.6,682.4,760.8,682.4"/>
		</g>
		<g>
			<path class="st12" d="M784.2,682.4c3.2,0,5.8-2.6,5.6-5.8c-0.1-3.2-2.8-5.8-6-5.8c-3.2,0-5.8,2.6-5.6,5.8
				C778.2,679.7,781,682.4,784.2,682.4"/>
		</g>
		<g>
			<path class="st8" d="M411.3,761.3c27.4,0,49.7-22.2,49.7-49.7c0-27.4-22.2-49.7-49.7-49.7c-27.4,0-49.7,22.2-49.7,49.7
				C361.6,739.1,383.9,761.3,411.3,761.3"/>
		</g>
	</g>
	<g>
		<polygon class="st4" points="379.3,748.5 374.5,772.5 388.9,754.9 		"/>
	</g>
	<g>
		<polygon class="st4" points="441.8,748.5 446.6,772.5 432.2,754.9 		"/>
	</g>
	<g>
		<g>
			<path class="st8" d="M411.3,761.3c27.4,0,49.7-22.2,49.7-49.7c0-27.4-22.2-49.7-49.7-49.7c-27.4,0-49.7,22.2-49.7,49.7
				C361.6,739.1,383.9,761.3,411.3,761.3"/>
		</g>
		<g>
			<path class="st7" d="M411.3,756.5c24.8,0,44.9-20.1,44.9-44.9c0-24.8-20.1-44.9-44.9-44.9c-24.8,0-44.9,20.1-44.9,44.9
				C366.4,736.4,386.5,756.5,411.3,756.5"/>
		</g>
		<g>
			<path class="st18" d="M411.3,751.7c22.1,0,40.1-17.9,40.1-40.1c0-22.1-17.9-40.1-40.1-40.1c-22.1,0-40.1,17.9-40.1,40.1
				C371.3,733.8,389.2,751.7,411.3,751.7"/>
		</g>
	</g>
	<g>
		
			<rect x="379.3" y="661.9" transform="matrix(0.8387 -0.5447 0.5447 0.8387 -301.3011 316.3258)" class="st4" width="8" height="9.6"/>
	</g>
	<g>
		<g>
			<path class="st8" d="M388.8,651.1c0,0,2.5-1.6,4.1,0.9l3.6,5.6l-27.7,17.7l-3.6-5.6c0,0-1.6-2.5,0.9-4.1L388.8,651.1z"/>
		</g>
	</g>
	<g>
		
			<rect x="434.2" y="662.7" transform="matrix(0.5447 -0.8387 0.8387 0.5447 -359.2549 671.7849)" class="st4" width="9.6" height="8"/>
	</g>
	<g>
		<g>
			<path class="st8" d="M433.5,651.1c0,0-2.5-1.6-4.1,0.9l-3.6,5.6l27.7,17.7l3.6-5.6c0,0,1.6-2.5-0.9-4.1L433.5,651.1z"/>
		</g>
		<g>
			<path class="st8" d="M411.3,745.3c1.8,0,3.2-1.4,3.2-3.2s-1.4-3.2-3.2-3.2c-1.8,0-3.2,1.4-3.2,3.2S409.6,745.3,411.3,745.3"/>
		</g>
		<g>
			<path class="st8" d="M411.3,684.4c1.8,0,3.2-1.4,3.2-3.2s-1.4-3.2-3.2-3.2c-1.8,0-3.2,1.4-3.2,3.2S409.6,684.4,411.3,684.4"/>
		</g>
		<g>
			<path class="st8" d="M441.8,713.2c1.8,0,3.2-1.4,3.2-3.2s-1.4-3.2-3.2-3.2c-1.8,0-3.2,1.4-3.2,3.2S440,713.2,441.8,713.2"/>
		</g>
		<g>
			<path class="st8" d="M382.5,713.2c1.8,0,3.2-1.4,3.2-3.2s-1.4-3.2-3.2-3.2c-1.8,0-3.2,1.4-3.2,3.2S380.7,713.2,382.5,713.2"/>
		</g>
		<g>
			<path class="st8" d="M385.7,729.3c1.8,0,3.2-1.4,3.2-3.2s-1.4-3.2-3.2-3.2c-1.8,0-3.2,1.4-3.2,3.2S383.9,729.3,385.7,729.3"/>
		</g>
		<g>
			<path class="st8" d="M396.9,740.5c1.8,0,3.2-1.4,3.2-3.2s-1.4-3.2-3.2-3.2c-1.8,0-3.2,1.4-3.2,3.2S395.1,740.5,396.9,740.5"/>
		</g>
		<g>
			<path class="st8" d="M427.4,740.5c1.8,0,3.2-1.4,3.2-3.2s-1.4-3.2-3.2-3.2c-1.8,0-3.2,1.4-3.2,3.2S425.6,740.5,427.4,740.5"/>
		</g>
		<g>
			<path class="st8" d="M438.3,729.6c1.8,0,3.2-1.4,3.2-3.2s-1.4-3.2-3.2-3.2c-1.8,0-3.2,1.4-3.2,3.2S436.5,729.6,438.3,729.6"/>
		</g>
		<g>
			<path class="st8" d="M385.7,694c1.8,0,3.2,1.4,3.2,3.2s-1.4,3.2-3.2,3.2c-1.8,0-3.2-1.4-3.2-3.2S383.9,694,385.7,694"/>
		</g>
		<g>
			<path class="st8" d="M396.9,682.8c1.8,0,3.2,1.4,3.2,3.2s-1.4,3.2-3.2,3.2c-1.8,0-3.2-1.4-3.2-3.2S395.1,682.8,396.9,682.8"/>
		</g>
		<g>
			<path class="st8" d="M427.4,682.8c1.8,0,3.2,1.4,3.2,3.2s-1.4,3.2-3.2,3.2c-1.8,0-3.2-1.4-3.2-3.2S425.6,682.8,427.4,682.8"/>
		</g>
		<g>
			<path class="st8" d="M438.3,693.7c1.8,0,3.2,1.4,3.2,3.2s-1.4,3.2-3.2,3.2c-1.8,0-3.2-1.4-3.2-3.2S436.5,693.7,438.3,693.7"/>
		</g>
	</g>
	<g>
		<polygon class="st11" points="422.6,692.4 411.3,705.5 415.7,707.4 		"/>
	</g>
	<g>
		<polygon class="st11" points="379.3,703.6 406.5,711.6 408.1,706.8 		"/>
	</g>
	<g>
		<g>
			<path class="st4" d="M411.3,716.4c3.5,0,6.4-2.9,6.4-6.4c0-3.5-2.9-6.4-6.4-6.4c-3.5,0-6.4,2.9-6.4,6.4
				C404.9,713.6,407.8,716.4,411.3,716.4"/>
		</g>
		<g>
			<path class="st7" d="M218.6,348.3v28.8h156.9c0,0,13,0,13-13v-2.8c0,0,0-13-13-13H218.6z"/>
		</g>
		<g>
			<path class="st18" d="M218.6,350.4v24.7h156.6c0,0,11,0,11-11v-2.7c0,0,0-11-11-11H218.6z"/>
		</g>
		<g>
			<path class="st1" d="M218.6,350.4v5.5h165.4c0,0-4.5-5.5-13.4-5.5H218.6z"/>
		</g>
		<g>
			<path class="st11" d="M218.6,319.2v28.8h156.9c0,0,13,0,13-13v-2.8c0,0,0-13-13-13H218.6z"/>
		</g>
		<g>
			<path class="st18" d="M218.6,321.3V346h156.6c0,0,11,0,11-11v-2.7c0,0,0-11-11-11H218.6z"/>
		</g>
		<g>
			<path class="st1" d="M218.6,321.3v5.5h165.4c0,0-4.5-5.5-13.4-5.5H218.6z"/>
		</g>
	</g>
	<g>
		<rect x="119.3" y="618.6" class="st7" width="32.9" height="153.9"/>
	</g>
	<g>
		<rect x="123.8" y="618.6" class="st18" width="23.9" height="153.9"/>
	</g>
	<g>
		<rect x="123.8" y="618.6" class="st1" width="3.7" height="153.9"/>
	</g>
	<g>
		<rect x="152.2" y="618.6" class="st12" width="32.9" height="153.9"/>
	</g>
	<g>
		<rect x="156.6" y="618.6" class="st18" width="23.9" height="153.9"/>
	</g>
	<g>
		<rect x="156.6" y="618.6" class="st1" width="3.7" height="153.9"/>
	</g>
	<g>
		<rect x="118.5" y="223.5" class="st4" width="31.4" height="153.9"/>
	</g>
	<g>
		<g>
			<path class="st17" d="M134.2,311.1c5.9,0,10.6-4.8,10.6-10.6s-4.8-10.6-10.6-10.6c-5.9,0-10.6,4.8-10.6,10.6
				S128.3,311.1,134.2,311.1"/>
		</g>
		<g>
			<path class="st13" d="M185.9,222.7c0,0,4-0.2,4.2,3.7l9.2,149.6l-13.4,0.8l-9.2-149.6c0,0-0.2-4,3.7-4.2L185.9,222.7z"/>
		</g>
		<g>
			<path class="st12" d="M183.3,269.3c0,0-1,0.1-0.9,1.1l3.3,54.7c0,0,0.1,1,1.1,0.9l5.5-0.3c0,0,1-0.1,0.9-1.1l-3.3-54.7
				c0,0-0.1-1-1.1-0.9L183.3,269.3z"/>
		</g>
	</g>
	<g>
		
			<rect x="177.6" y="239.3" transform="matrix(0.9981 -6.085012e-02 6.085012e-02 0.9981 -14.267 11.6584)" class="st14" width="13.4" height="1.6"/>
	</g>
	<g>
		
			<rect x="178.2" y="249.6" transform="matrix(0.9981 -6.085012e-02 6.085012e-02 0.9981 -14.895 11.716)" class="st14" width="13.4" height="1.6"/>
	</g>
	<g>
		<g>
			<path class="st12" d="M370.1,305.8H224.9v13.4h140.2c0,0,5,0,5-5V305.8z"/>
		</g>
		<g>
			<path class="st13" d="M370.1,305.8H224.9v-13.4h140.2c0,0,5,0,5,5V305.8z"/>
		</g>
	</g>
	<g>
		<path class="st14" d="M361.8,314.8H230.5v-17.9h131.3V314.8z M232.5,312.8h127.3v-13.9H232.5V312.8z"/>
	</g>
	<g>
		<g>
			<path class="st11" d="M163.3,222.7v153.9h13.4V227.7c0,0,0-5-5-5H163.3z"/>
		</g>
		<g>
			<path class="st10" d="M163.3,222.7v153.9h-13.4V227.7c0,0,0-5,5-5H163.3z"/>
		</g>
	</g>
	<g>
		<rect x="149.9" y="333.3" class="st19" width="26.9" height="3"/>
	</g>
	<g>
		<rect x="149.9" y="352.7" class="st19" width="26.9" height="3"/>
	</g>
	<g>
		<polygon class="st15" points="135.2,834.5 140.1,782.5 167,782.5 150.1,834.5 		"/>
	</g>
	<g>
		<polygon class="st15" points="864.9,834.5 859.9,782.5 833,782.5 850,834.5 		"/>
	</g>
	<g>
		<polygon class="st15" points="179.1,824.5 183.1,782.5 204.8,782.5 191.1,824.5 		"/>
	</g>
	<g>
		<g class="st20">
			<g>
				<defs>
					<rect id="SVGID_1_" x="166.5" y="775.5" width="48.5" height="49.9"/>
				</defs>
				<clipPath id="SVGID_2_">
					<use xlink:href="#SVGID_1_"  style="overflow:visible;"/>
				</clipPath>
				<g class="st21">
					<polygon class="st15" points="183.1,782.5 179.1,824.5 191.1,824.5 204.8,782.5 					"/>
				</g>
			</g>
		</g>
	</g>
	<g>
		<polygon class="st15" points="813.4,824.5 809.4,782.5 787.7,782.5 801.3,824.5 		"/>
	</g>
	<g>
		<g class="st20">
			<g>
				<defs>
					<rect id="SVGID_3_" x="777.5" y="775.5" width="48.5" height="49.9"/>
				</defs>
				<clipPath id="SVGID_4_">
					<use xlink:href="#SVGID_3_"  style="overflow:visible;"/>
				</clipPath>
				<g class="st22">
					<polygon class="st15" points="809.4,782.5 813.4,824.5 801.3,824.5 787.7,782.5 					"/>
				</g>
			</g>
		</g>
		<g>
			<path class="st5" d="M458.7,111.6c-4.2,8.4,38.3,33.2,43.5,5.4C507.4,89.2,462.9,103.2,458.7,111.6"/>
		</g>
		<g>
			<path class="st4" d="M450.9,145.4c-9.1,2.4,0,50.7,24.4,36.4C499.7,167.5,460,143.1,450.9,145.4"/>
		</g>
		<g>
			<path class="st4" d="M323.9,110.8c0,0-55.2-28-55.2,16.3C268.7,148.1,309.5,148.1,323.9,110.8"/>
		</g>
		<g>
			<path class="st5" d="M292.4,205.8c-7.2-7.7-50.2,27.4-23,43.7C296.7,265.8,299.6,213.5,292.4,205.8"/>
		</g>
	</g>
	<g>
		<polygon class="st7" points="318,135.2 332.2,177.1 393,177.1 408.5,135.2 		"/>
	</g>
	<g>
		<g>
			<path class="st8" d="M314,117.5c0,0-7,0-7,7v3.7c0,0,0,7,7,7h98.5c0,0,7,0,7-7v-3.7c0,0,0-7-7-7H314z"/>
		</g>
		<g>
			<path class="st15" d="M305.4,236.9c-0.6,0-1.1-0.4-1.1-1c0-0.3-2.2-26.9,0.8-55.9c4.1-39.2,15.1-63.8,32.9-73.1
				c42.5-22.4,60.5,9.9,60.7,10.2c0.3,0.5,0.1,1.2-0.4,1.5s-1.2,0.1-1.5-0.4c0-0.1-4.3-7.8-13.5-12.8c-12.3-6.7-27.2-5.5-44.2,3.5
				c-40.8,21.5-32.6,125.9-32.5,126.9C306.5,236.3,306.1,236.8,305.4,236.9C305.4,236.8,305.4,236.9,305.4,236.9z"/>
		</g>
		<g>
			<path class="st15" d="M506.6,164.2c-1.3,0-2.7,0-4.1-0.1c-18.8-1.1-35.3-24.4-52.8-49.1c-17.5-24.7-35.5-50.2-55.3-50.2
				c-38.3,0-47.7,52.4-47.8,53c-0.1,0.6-0.7,1-1.3,0.9c-0.6-0.1-1-0.7-0.9-1.3c0.1-0.5,9.8-54.8,50-54.8c20.9,0,39.3,26,57.1,51.1
				c16.4,23.2,33.3,47.1,51.1,48.2c36.2,2.1,45.1-25.4,45.2-25.7c0.2-0.6,0.8-0.9,1.4-0.7c0.6,0.2,0.9,0.8,0.7,1.4
				C549.9,137.1,541.1,164.2,506.6,164.2z"/>
		</g>
		<g>
			<path class="st15" d="M465.1,166.2c-0.2,0-0.4-0.1-0.6-0.2c-11.1-7.4-17.6-16.1-19.1-25.7c-2.1-13.2,5.7-23.3,6-23.7
				c0.4-0.5,1.1-0.6,1.5-0.2s0.6,1.1,0.2,1.5c-0.1,0.1-7.5,9.8-5.6,22c1.4,9,7.6,17.2,18.2,24.2c0.5,0.3,0.6,1,0.3,1.5
				C465.8,166.1,465.4,166.2,465.1,166.2z"/>
		</g>
		<g>
			<path class="st15" d="M289.9,126.5c-0.4,0-0.8-0.2-1-0.6c-0.3-0.5-0.1-1.2,0.5-1.5c30.7-15.4,48.2-17.7,48.9-17.8
				c0.6-0.1,1.2,0.4,1.2,1c0.1,0.6-0.4,1.2-1,1.2c-0.2,0-17.9,2.4-48.2,17.5C290.2,126.5,290.1,126.5,289.9,126.5z"/>
		</g>
		<g>
			<path class="st15" d="M277.8,231.3c-0.1,0-0.3,0-0.4-0.1c-0.6-0.2-0.8-0.9-0.6-1.4c9.9-25.3,27.7-43.2,27.8-43.4
				c0.4-0.4,1.1-0.4,1.6,0c0.4,0.4,0.4,1.1,0,1.6c-0.2,0.2-17.6,17.8-27.3,42.6C278.6,231.1,278.2,231.3,277.8,231.3z"/>
		</g>
		<g>
			<path class="st15" d="M484.9,119.9c-0.1,0-0.2,0-0.3-0.1c-21.8-6.9-34.8-6.6-34.9-6.6c-0.6,0-1.1-0.5-1.1-1.1
				c0-0.6,0.5-1.1,1.1-1.1c0.5,0,13.5-0.3,35.7,6.7c0.6,0.2,0.9,0.8,0.7,1.4C485.8,119.6,485.4,119.9,484.9,119.9z"/>
		</g>
		<g>
			<path class="st15" d="M319.6,372.6c-0.6,0-1.1-0.5-1.1-1c-2.2-39.2-7.5-95.5-7.6-96c-0.1-0.6,0.4-1.1,1-1.2
				c0.6-0.1,1.1,0.4,1.2,1c0.1,0.6,5.4,56.8,7.6,96.1C320.7,372.1,320.2,372.6,319.6,372.6C319.6,372.6,319.6,372.6,319.6,372.6z"/>
		</g>
		<g>
			<path class="st5" d="M324,151.9c-10.5,0-14.2,65.5,16.3,55.2C370.8,196.7,334.6,151.9,324,151.9"/>
		</g>
		<g>
			<path class="st4" d="M327.1,316.4c-11.4,1.2-9,63,23.1,49.8C382.3,353.1,338.6,315.2,327.1,316.4"/>
		</g>
		<g>
			<path class="st15" d="M334,197.1c-0.6,0-1-0.4-1.1-1c-4.3-36.9-15.3-63.4-15.4-63.7c-0.2-0.6,0-1.2,0.6-1.4
				c0.6-0.2,1.2,0,1.4,0.6c0.1,0.3,11.1,27.1,15.5,64.3c0.1,0.6-0.4,1.2-1,1.2C334.1,197.1,334.1,197.1,334,197.1z"/>
		</g>
		<g>
			<path class="st15" d="M340.4,346.9c-0.5,0-0.9-0.3-1.1-0.8c-4.2-16.4-10.7-27.6-15.5-34c-5.2-7-9.4-10.2-9.4-10.3
				c-0.5-0.4-0.6-1.1-0.2-1.5c0.4-0.5,1.1-0.6,1.5-0.2c0.7,0.5,17.5,13.4,25.7,45.5c0.2,0.6-0.2,1.2-0.8,1.3
				C340.6,346.9,340.5,346.9,340.4,346.9z"/>
		</g>
		<g>
			<path class="st5" d="M309.3,287c-9.8-6-45.5,44.6-12,53.6C330.8,349.6,319.1,293,309.3,287"/>
		</g>
		<g>
			<path class="st15" d="M298.6,319.2c-0.1,0-0.1,0-0.2,0c-0.6-0.1-1-0.7-0.9-1.3c5.9-32.6,15.6-43.6,16.1-44.1
				c0.4-0.4,1.1-0.5,1.6-0.1c0.4,0.4,0.5,1.1,0.1,1.6l0,0c-0.1,0.1-9.8,11.1-15.5,43C299.6,318.9,299.1,319.2,298.6,319.2z"/>
		</g>
		<g>
			<path class="st4" d="M313,224.7c-10.5,0-26,61.8,16.3,55.2C371.6,273.3,323.5,224.7,313,224.7"/>
		</g>
		<g>
			<path class="st15" d="M324.1,264.4c-0.6,0-1-0.4-1.1-1c-4.3-36.7-18.4-55.5-18.5-55.7c-0.4-0.5-0.3-1.2,0.2-1.5
				c0.5-0.4,1.2-0.3,1.5,0.2c0.6,0.8,14.6,19.4,19,56.8c0.1,0.6-0.4,1.2-1,1.2C324.2,264.4,324.2,264.4,324.1,264.4z"/>
		</g>
		<g>
			<path class="st8" d="M340.4,117.5c0,0-7,0-7,7v3.7c0,0,0,7,7,7h46.1c0,0,7,0,7-7v-3.7c0,0,0-7-7-7H340.4z"/>
		</g>
	</g>
	<g>
		<path class="st3" d="M879.5,313C879.5,313,879.5,313,879.5,313c-0.3,0-0.5-0.3-0.5-0.5l7.9-122l-145.4,6.9c-0.3,0-0.5-0.2-0.5-0.5
			c0-0.3,0.2-0.5,0.5-0.5l146.5-6.9l-8,123.1C880,312.8,879.8,313,879.5,313z"/>
	</g>
	<g>
		<path class="st3" d="M756.5,238.9c-0.2,0-0.4-0.1-0.5-0.3c0-0.1,0-0.1,0-0.2c0-0.2,0.1-0.4,0.3-0.5l130.4-48.3
			c0.3-0.1,0.5,0,0.6,0.3c0,0.1,0,0.1,0,0.2c0,0.2-0.1,0.4-0.3,0.5l-130.4,48.3C756.6,238.9,756.6,238.9,756.5,238.9z"/>
	</g>
	<g>
		<path class="st3" d="M814.7,300.2c-0.1,0-0.2,0-0.3-0.1c-0.2-0.2-0.3-0.5-0.1-0.7l72.6-109.6c0.2-0.2,0.5-0.3,0.7-0.1
			c0.2,0.2,0.3,0.5,0.1,0.7l-72.6,109.6C815,300.1,814.8,300.2,814.7,300.2z"/>
	</g>
	<g>
		<g>
			<path class="st3" d="M880,305.2c-0.1,0-0.2,0-0.3-0.1c-0.2-0.1-19.1-13.6-63.3-7.4l-0.4,0.1l-0.2-0.3
				c-7.7-16.7-22.5-32.1-33.6-42.1c-12-10.8-22.3-17.8-22.4-17.8l-0.3-0.2l0.1-0.3c0.1-0.2,5.9-22.5-14.8-39.6
				c-0.2-0.2-0.2-0.5-0.1-0.7c0.2-0.2,0.5-0.2,0.7-0.1c11.1,9.2,14.6,19.7,15.6,26.9c1,6.8-0.1,12-0.4,13.3
				c1.8,1.2,11.3,7.9,22.2,17.7c11.1,10,25.8,25.3,33.7,42.1c23.1-3.2,39.1-1,48.5,1.5c10.3,2.7,15,6,15.1,6.2
				c0.2,0.2,0.3,0.5,0.1,0.7C880.3,305.1,880.1,305.2,880,305.2z"/>
		</g>
		<g>
			<path class="st3" d="M881.7,278c-0.2,0-0.3-0.1-0.4-0.2c-9.5-12.8-36.1-8.3-44.8-6.8c-1.5,0.2-2.3,0.4-2.7,0.4h-0.4l-0.1-0.4
				c-5.8-25.2-46.7-43.4-47.1-43.5l-0.3-0.2l0.1-0.4c0-0.2,2.3-18.1-12.3-30.9c-0.2-0.2-0.2-0.5,0-0.7c0.2-0.2,0.5-0.2,0.7,0
				c13.8,12.1,12.9,28.7,12.7,31.4c3.9,1.8,41.3,19.5,47.3,43.7c0.5-0.1,1.2-0.2,2.2-0.3c8.9-1.5,35.9-6,45.8,7.2
				c0.2,0.2,0.1,0.5-0.1,0.7C881.9,278,881.8,278,881.7,278z"/>
		</g>
		<g>
			<path class="st3" d="M850.2,245.9l-0.2-0.4c-0.1-0.2-11.9-23.1-35.9-28l-0.4-0.1V217c0-0.1,0-0.4,0.1-0.7
				c1.2-9.1-2.7-16.3-11.5-21.5c-0.2-0.1-0.3-0.4-0.2-0.7c0.1-0.2,0.5-0.3,0.7-0.2c6.3,3.7,13.6,10.6,12,22.5c0,0.1,0,0.1,0,0.2
				c22.5,4.8,34.3,25,36,28.1c3.3-1.1,25-7.6,33.4,0.2c0.2,0.2,0.2,0.5,0,0.7c-0.2,0.2-0.5,0.2-0.7,0c-8.4-7.9-32.5,0-32.8,0.1
				L850.2,245.9z"/>
		</g>
		<g>
			<path class="st3" d="M885,226.4c-0.1,0-0.1,0-0.2,0c-0.1,0-12.9-4.9-19.7-2.5l-0.4,0.2l-0.2-0.4c-3.6-7.3-24.6-16-24.8-16.1
				l-0.4-0.2l0.1-0.4c0.1-0.3,1.9-7.7-7.6-13.8c-0.2-0.1-0.3-0.5-0.1-0.7c0.1-0.2,0.5-0.3,0.7-0.1c5.3,3.4,7.2,7.3,7.9,9.9
				c0.5,2.1,0.4,3.8,0.3,4.6c2.9,1.2,20.7,9,24.7,16.1c7.1-2.2,19.4,2.5,20,2.7c0.3,0.1,0.4,0.4,0.3,0.6
				C885.4,226.3,885.2,226.4,885,226.4z"/>
		</g>
		<g>
			<path class="st3" d="M886,211.5c-0.2,0-0.3-0.1-0.4-0.2c-2.1-3.5-10.5-2.4-10.6-2.4l-0.3,0l-0.2-0.3c0-0.1-3.8-6.1-16.2-7.4
				l-0.9-0.1l0.5-0.7c0.3-0.3,0.4-1.2,0.1-2.3c-0.3-1.1-1.4-3.8-5.4-5.5c-0.3-0.1-0.4-0.4-0.3-0.7c0.1-0.3,0.4-0.4,0.7-0.3
				c4.4,1.9,5.6,5,5.9,6.2c0.2,0.9,0.3,1.8,0.1,2.5c11,1.3,15.2,6.2,16.1,7.5c1.6-0.2,9-0.8,11.2,2.9c0.1,0.2,0.1,0.5-0.2,0.7
				C886.1,211.5,886.1,211.5,886,211.5z"/>
		</g>
		<g>
			<path class="st3" d="M886.5,201.8c-0.2,0-0.3-0.1-0.4-0.3c-0.9-1.7-2.7-1.7-4.3-1.5c-0.3,0-0.5,0-0.7,0h-0.4l-0.1-0.4
				c-0.7-2.3-5.3-3.6-7.1-3.9l-0.5-0.1l0.1-0.5c0-0.1,0.6-2.4-1.8-3.7c-0.2-0.1-0.3-0.4-0.2-0.7c0.1-0.2,0.4-0.3,0.7-0.2
				c2.1,1.1,2.5,3.1,2.4,4.3c1.5,0.3,6.1,1.5,7.2,4.1c0.1,0,0.2,0,0.2,0c1.4-0.1,4-0.4,5.3,2c0.1,0.2,0,0.5-0.2,0.7
				C886.6,201.8,886.5,201.8,886.5,201.8z"/>
		</g>
		<g>
			<path class="st3" d="M814.6,464c5.8,0,10.5-4.7,10.5-10.5c0-5.8-4.7-10.5-10.5-10.5c-5.8,0-10.5,4.7-10.5,10.5
				C804.1,459.3,808.8,464,814.6,464"/>
		</g>
	</g>
	<g>
		<path class="st3" d="M796,464.5c-0.1,0-0.2,0-0.3-0.1c-0.2-0.2-0.3-0.5-0.1-0.7l4.1-6.2h7.3c0.3,0,0.5,0.2,0.5,0.5
			s-0.2,0.5-0.5,0.5h-6.7l-3.9,5.8C796.3,464.5,796.2,464.5,796,464.5z"/>
	</g>
	<g>
		<path class="st3" d="M795,456.5c-0.1,0-0.3,0-0.4-0.1c-0.2-0.2-0.2-0.5,0-0.7l5.2-5.2l6.3,2.6c0.3,0.1,0.4,0.4,0.3,0.7
			s-0.4,0.4-0.7,0.3l-5.7-2.4l-4.8,4.8C795.3,456.5,795.1,456.5,795,456.5z"/>
	</g>
	<g>
		<path class="st3" d="M795,451.5c-0.1,0-0.2,0-0.3-0.1c-0.2-0.2-0.2-0.5,0-0.7l5.8-6.4l5.9,5.3c0.2,0.2,0.2,0.5,0,0.7
			c-0.2,0.2-0.5,0.2-0.7,0l-5.1-4.7l-5.2,5.6C795.3,451.5,795.1,451.5,795,451.5z"/>
	</g>
	<g>
		<path class="st3" d="M834,451.5c-0.1,0-0.3,0-0.4-0.1l-4.7-4.7l-5.7,2.8c-0.2,0.1-0.5,0-0.7-0.2c-0.1-0.2,0-0.5,0.2-0.7l6.3-3.2
			l5.3,5.3c0.2,0.2,0.2,0.5,0,0.7C834.3,451.5,834.1,451.5,834,451.5z"/>
	</g>
	<g>
		<path class="st3" d="M834,456.5c-0.1,0-0.2,0-0.3-0.1l-5.3-3.9l-5.3,1.4c-0.3,0.1-0.5-0.1-0.6-0.3c-0.1-0.3,0.1-0.5,0.3-0.6
			l5.7-1.6l5.7,4.1c0.2,0.2,0.3,0.5,0.1,0.7C834.3,456.5,834.2,456.5,834,456.5z"/>
	</g>
	<g>
		<path class="st3" d="M832,464.5c-0.2,0-0.3-0.1-0.4-0.2l-3.4-5.8H823c-0.3,0-0.5-0.2-0.5-0.5s0.2-0.5,0.5-0.5h5.8l3.6,6.3
			c0.1,0.2,0.1,0.5-0.2,0.7C832.2,464.5,832.1,464.5,832,464.5z"/>
	</g>
	<g>
		<g>
			<path class="st18" d="M814.6,462.1c-3.3,0-4.9-1.5-4.9-1.6c-0.2-0.2-0.2-0.5,0-0.7c0.2-0.2,0.5-0.2,0.6,0c0,0,1.4,1.3,4.3,1.3
				c2.9,0,4.3-1.3,4.3-1.3c0.2-0.2,0.5-0.2,0.7,0c0.2,0.2,0.2,0.5,0,0.7C819.5,460.6,817.9,462.1,814.6,462.1z"/>
		</g>
		<g>
			<path class="st18" d="M812,456.6c0.8,0,1.4-0.8,1.4-1.8c0-1-0.6-1.8-1.4-1.8c-0.8,0-1.4,0.8-1.4,1.8
				C810.6,455.8,811.2,456.6,812,456.6"/>
		</g>
		<g>
			<path class="st18" d="M817.5,456.6c0.8,0,1.4-0.8,1.4-1.8c0-1-0.6-1.8-1.4-1.8c-0.8,0-1.4,0.8-1.4,1.8
				C816.1,455.8,816.7,456.6,817.5,456.6"/>
		</g>
	</g>
	<g>
		<rect x="814" y="216.5" class="st3" width="1" height="231.9"/>
	</g>
	<g>
		<g>
			<path class="st12" d="M422,517.5c-0.1,12-1.7,20.8-4.8,26.5c-3.1,5.6-8,8.4-14.6,8.4c-6.8,0-11.8-2.9-14.9-8.7
				c-3.1-5.8-4.7-14.9-4.7-27.4v-42.7c0.2-11.2,1.9-19.5,4.9-25c3-5.5,7.9-8.3,14.5-8.3c6.8,0,11.8,3,14.9,8.9
				c3.1,5.9,4.7,14.9,4.7,26.9V517.5z M460.7,481.2c0-22.5-5.1-39.9-15.3-52.2c-10.2-12.3-24.5-18.5-43.1-18.5
				c-18.5,0-32.9,6.1-43,18.4c-10.1,12.2-15.2,29.7-15.2,52.2v30.5c0,22.4,5.1,39.8,15.3,52.1c10.2,12.3,24.6,18.5,43.2,18.5
				c18.4,0,32.7-6.1,42.9-18.4c10.1-12.2,15.2-29.7,15.2-52.2V481.2z"/>
		</g>
		<g>
			<path class="st18" d="M414.9,517.5c-0.1,12-1.7,20.8-4.8,26.5c-3.1,5.6-8,8.4-14.6,8.4c-6.8,0-11.8-2.9-14.9-8.7
				c-3.1-5.8-4.7-14.9-4.7-27.4v-42.7c0.2-11.2,1.9-19.5,4.9-25c3-5.5,7.9-8.3,14.5-8.3c6.8,0,11.8,3,14.9,8.9
				c3.1,5.9,4.7,14.9,4.7,26.9V517.5z M453.6,481.2c0-22.5-5.1-39.9-15.3-52.2c-10.2-12.3-24.5-18.5-43.1-18.5
				c-18.5,0-32.9,6.1-43,18.4c-10.1,12.2-15.2,29.7-15.2,52.2v30.5c0,22.4,5.1,39.8,15.3,52.1c10.2,12.3,24.6,18.5,43.2,18.5
				c18.4,0,32.7-6.1,42.9-18.4c10.1-12.2,15.2-29.7,15.2-52.2V481.2z"/>
		</g>
	</g>
	<g>
		<path class="st12" d="M238.2,467.1l2.4-3.9v51.4h-30.1L238.2,467.1z M279.3,412.8h-38.7v0.3l-66.9,107.7l2.3,23.7h64.6v35.5h38.7
			v-35.5h17v-29.9h-17V412.8z"/>
	</g>
	<g>
		<path class="st18" d="M231.1,467.1l2.4-3.9v51.4h-30.1L231.1,467.1z M272.2,412.8h-38.7v0.3l-66.9,107.7l2.3,23.7h64.6v35.5h38.7
			v-35.5h17v-29.9h-17V412.8z"/>
	</g>
	<g>
		<path class="st12" d="M573.1,467.1l2.4-3.9v51.4h-30.1L573.1,467.1z M614.3,412.8h-38.7v0.3l-66.9,107.7l2.3,23.7h64.6v35.5h38.7
			v-35.5h17v-29.9h-17V412.8z"/>
	</g>
	<g>
		<path class="st18" d="M566,467.1l2.4-3.9v51.4h-30.1L566,467.1z M607.1,412.8h-38.7v0.3l-66.9,107.7l2.3,23.7h64.6v35.5h38.7
			v-35.5h17v-29.9h-17V412.8z"/>
	</g>
	<g>
		<rect x="216" y="577.5" class="st1" width="418" height="7"/>
	</g>
</g>
</svg>
