<svg width="372" height="383" viewBox="0 0 372 383" fill="none" xmlns="http://www.w3.org/2000/svg">
<rect x="94.5" y="102.5" width="270" height="40" fill="#A93031" stroke="#961E2E"/>
<path d="M315.967 126.363H311.344L310.465 129H307.661L312.425 116.203H314.868L319.658 129H316.854L315.967 126.363ZM312.056 124.228H315.255L313.646 119.438L312.056 124.228ZM328.239 125.643C328.239 125.145 328.063 124.764 327.712 124.5C327.36 124.23 326.728 123.949 325.813 123.656C324.899 123.357 324.176 123.064 323.643 122.777C322.189 121.992 321.463 120.935 321.463 119.604C321.463 118.913 321.656 118.298 322.043 117.759C322.436 117.214 322.995 116.789 323.722 116.484C324.454 116.18 325.274 116.027 326.183 116.027C327.097 116.027 327.911 116.194 328.626 116.528C329.341 116.856 329.895 117.322 330.287 117.926C330.686 118.529 330.885 119.215 330.885 119.982H328.248C328.248 119.396 328.063 118.942 327.694 118.62C327.325 118.292 326.807 118.128 326.139 118.128C325.494 118.128 324.993 118.266 324.636 118.541C324.278 118.811 324.1 119.168 324.1 119.613C324.1 120.029 324.308 120.378 324.724 120.659C325.146 120.94 325.764 121.204 326.578 121.45C328.078 121.901 329.171 122.461 329.856 123.129C330.542 123.797 330.885 124.629 330.885 125.625C330.885 126.732 330.466 127.603 329.628 128.235C328.79 128.862 327.662 129.176 326.244 129.176C325.26 129.176 324.363 128.997 323.555 128.64C322.746 128.276 322.128 127.781 321.7 127.154C321.278 126.527 321.067 125.801 321.067 124.975H323.713C323.713 126.387 324.557 127.093 326.244 127.093C326.871 127.093 327.36 126.967 327.712 126.715C328.063 126.457 328.239 126.1 328.239 125.643ZM336.231 129H333.595V116.203H336.231V129ZM349.84 129H347.203L342.07 120.58V129H339.434V116.203H342.07L347.212 124.641V116.203H349.84V129Z" fill="white"/>
<rect x="94" y="61" width="271" height="41" fill="#C4C4C4"/>
<path d="M223.895 88V75.2031H228.377C229.93 75.2031 231.107 75.502 231.91 76.0996C232.713 76.6914 233.114 77.5615 233.114 78.71C233.114 79.3369 232.953 79.8906 232.631 80.3711C232.309 80.8457 231.86 81.1943 231.286 81.417C231.942 81.5811 232.458 81.9121 232.833 82.4102C233.214 82.9082 233.404 83.5176 233.404 84.2383C233.404 85.4688 233.012 86.4004 232.227 87.0332C231.441 87.666 230.322 87.9883 228.869 88H223.895ZM226.531 82.4277V85.8818H228.79C229.411 85.8818 229.895 85.7354 230.24 85.4424C230.592 85.1436 230.768 84.7334 230.768 84.2119C230.768 83.04 230.161 82.4453 228.948 82.4277H226.531ZM226.531 80.5645H228.482C229.812 80.541 230.478 80.0107 230.478 78.9736C230.478 78.3936 230.308 77.9775 229.968 77.7256C229.634 77.4678 229.104 77.3389 228.377 77.3389H226.531V80.5645Z" fill="black"/>
<line x1="94" y1="60.5" x2="365" y2="60.5" stroke="black"/>
<rect x="94.5" y="142.5" width="270" height="40" fill="#F4F4F4" stroke="#DDDDDD"/>
<path d="M242.974 169V156.203H247.157C248.546 156.203 249.589 156.49 250.286 157.064C250.989 157.639 251.341 158.488 251.341 159.613C251.341 160.211 251.171 160.741 250.831 161.204C250.491 161.661 250.028 162.016 249.442 162.268C250.134 162.461 250.679 162.83 251.077 163.375C251.481 163.914 251.684 164.559 251.684 165.309C251.684 166.457 251.312 167.359 250.567 168.016C249.823 168.672 248.771 169 247.412 169H242.974ZM244.661 163.015V167.62H247.447C248.232 167.62 248.851 167.418 249.302 167.014C249.759 166.604 249.987 166.041 249.987 165.326C249.987 163.785 249.149 163.015 247.474 163.015H244.661ZM244.661 161.661H247.21C247.948 161.661 248.537 161.477 248.977 161.107C249.422 160.738 249.645 160.237 249.645 159.604C249.645 158.901 249.439 158.392 249.029 158.075C248.619 157.753 247.995 157.592 247.157 157.592H244.661V161.661ZM262.541 163.542C262.541 165.446 262.216 166.861 261.565 167.787C260.915 168.713 259.898 169.176 258.516 169.176C257.15 169.176 256.14 168.725 255.483 167.822C254.827 166.914 254.487 165.561 254.464 163.762V161.591C254.464 159.71 254.789 158.312 255.439 157.398C256.09 156.484 257.109 156.027 258.498 156.027C259.875 156.027 260.889 156.47 261.539 157.354C262.189 158.233 262.523 159.593 262.541 161.433V163.542ZM260.915 161.318C260.915 159.941 260.722 158.939 260.335 158.312C259.948 157.68 259.336 157.363 258.498 157.363C257.666 157.363 257.06 157.677 256.679 158.304C256.298 158.931 256.102 159.895 256.09 161.195V163.797C256.09 165.18 256.289 166.202 256.688 166.864C257.092 167.521 257.701 167.849 258.516 167.849C259.318 167.849 259.913 167.538 260.3 166.917C260.692 166.296 260.897 165.317 260.915 163.981V161.318ZM273.636 157.117L268.336 169H266.631L271.913 157.539H264.987V156.203H273.636V157.117ZM283.992 159.543C283.992 160.182 283.822 160.75 283.482 161.248C283.148 161.746 282.694 162.136 282.12 162.417C282.788 162.704 283.315 163.123 283.702 163.674C284.095 164.225 284.291 164.849 284.291 165.546C284.291 166.653 283.916 167.535 283.166 168.191C282.422 168.848 281.44 169.176 280.222 169.176C278.991 169.176 278.004 168.848 277.26 168.191C276.521 167.529 276.152 166.647 276.152 165.546C276.152 164.854 276.34 164.23 276.715 163.674C277.096 163.117 277.62 162.695 278.288 162.408C277.72 162.127 277.271 161.737 276.943 161.239C276.615 160.741 276.451 160.176 276.451 159.543C276.451 158.465 276.797 157.609 277.488 156.977C278.18 156.344 279.091 156.027 280.222 156.027C281.347 156.027 282.255 156.344 282.946 156.977C283.644 157.609 283.992 158.465 283.992 159.543ZM282.665 165.511C282.665 164.796 282.437 164.213 281.979 163.762C281.528 163.311 280.937 163.085 280.204 163.085C279.472 163.085 278.883 163.308 278.438 163.753C277.998 164.198 277.778 164.784 277.778 165.511C277.778 166.237 277.992 166.809 278.42 167.225C278.854 167.641 279.454 167.849 280.222 167.849C280.983 167.849 281.581 167.641 282.015 167.225C282.448 166.803 282.665 166.231 282.665 165.511ZM280.222 157.363C279.583 157.363 279.064 157.562 278.666 157.961C278.273 158.354 278.077 158.89 278.077 159.569C278.077 160.22 278.271 160.747 278.657 161.151C279.05 161.55 279.571 161.749 280.222 161.749C280.872 161.749 281.391 161.55 281.777 161.151C282.17 160.747 282.366 160.22 282.366 159.569C282.366 158.919 282.164 158.389 281.76 157.979C281.355 157.568 280.843 157.363 280.222 157.363ZM293.953 164.702H295.729V166.029H293.953V169H292.318V166.029H286.491V165.071L292.222 156.203H293.953V164.702ZM288.337 164.702H292.318V158.427L292.125 158.778L288.337 164.702ZM302.139 163.296C300.691 162.88 299.637 162.37 298.975 161.767C298.318 161.157 297.99 160.407 297.99 159.517C297.99 158.509 298.392 157.677 299.194 157.021C300.003 156.358 301.052 156.027 302.341 156.027C303.22 156.027 304.002 156.197 304.688 156.537C305.379 156.877 305.912 157.346 306.287 157.943C306.668 158.541 306.858 159.194 306.858 159.903H305.162C305.162 159.13 304.916 158.523 304.424 158.084C303.932 157.639 303.237 157.416 302.341 157.416C301.509 157.416 300.858 157.601 300.39 157.97C299.927 158.333 299.695 158.84 299.695 159.49C299.695 160.012 299.915 160.454 300.354 160.817C300.8 161.175 301.553 161.503 302.613 161.802C303.68 162.101 304.512 162.432 305.109 162.795C305.713 163.152 306.158 163.571 306.445 164.052C306.738 164.532 306.885 165.098 306.885 165.748C306.885 166.785 306.48 167.617 305.672 168.244C304.863 168.865 303.782 169.176 302.429 169.176C301.55 169.176 300.729 169.009 299.968 168.675C299.206 168.335 298.617 167.872 298.201 167.286C297.791 166.7 297.586 166.035 297.586 165.291H299.282C299.282 166.064 299.566 166.677 300.135 167.128C300.709 167.573 301.474 167.796 302.429 167.796C303.319 167.796 304.002 167.614 304.477 167.251C304.951 166.888 305.188 166.393 305.188 165.766C305.188 165.139 304.969 164.655 304.529 164.315C304.09 163.97 303.293 163.63 302.139 163.296ZM316.248 164.702H318.023V166.029H316.248V169H314.613V166.029H308.786V165.071L314.517 156.203H316.248V164.702ZM310.632 164.702H314.613V158.427L314.42 158.778L310.632 164.702ZM320.988 162.584L321.639 156.203H328.195V157.706H323.019L322.632 161.195C323.259 160.826 323.971 160.642 324.768 160.642C325.934 160.642 326.859 161.028 327.545 161.802C328.23 162.569 328.573 163.609 328.573 164.922C328.573 166.24 328.216 167.28 327.501 168.042C326.792 168.798 325.799 169.176 324.521 169.176C323.391 169.176 322.468 168.862 321.753 168.235C321.038 167.608 320.631 166.741 320.531 165.634H322.069C322.169 166.366 322.43 166.92 322.852 167.295C323.273 167.664 323.83 167.849 324.521 167.849C325.277 167.849 325.869 167.591 326.297 167.075C326.73 166.56 326.947 165.848 326.947 164.939C326.947 164.084 326.713 163.398 326.244 162.883C325.781 162.361 325.163 162.101 324.39 162.101C323.681 162.101 323.124 162.256 322.72 162.566L322.289 162.918L320.988 162.584ZM337.479 156.194V157.574H337.181C335.915 157.598 334.907 157.973 334.157 158.699C333.407 159.426 332.974 160.448 332.856 161.767C333.53 160.993 334.45 160.606 335.616 160.606C336.729 160.606 337.617 160.999 338.279 161.784C338.947 162.569 339.281 163.583 339.281 164.825C339.281 166.144 338.921 167.198 338.2 167.989C337.485 168.78 336.524 169.176 335.317 169.176C334.093 169.176 333.1 168.707 332.338 167.77C331.576 166.826 331.195 165.613 331.195 164.131V163.507C331.195 161.151 331.696 159.353 332.698 158.11C333.706 156.862 335.203 156.224 337.189 156.194H337.479ZM335.344 161.96C334.787 161.96 334.274 162.127 333.806 162.461C333.337 162.795 333.012 163.214 332.83 163.718V164.315C332.83 165.37 333.067 166.22 333.542 166.864C334.017 167.509 334.608 167.831 335.317 167.831C336.05 167.831 336.624 167.562 337.04 167.022C337.462 166.483 337.673 165.777 337.673 164.904C337.673 164.025 337.459 163.316 337.031 162.777C336.609 162.232 336.047 161.96 335.344 161.96ZM344.32 161.811H345.542C346.31 161.799 346.913 161.597 347.353 161.204C347.792 160.812 348.012 160.281 348.012 159.613C348.012 158.113 347.265 157.363 345.771 157.363C345.067 157.363 344.505 157.565 344.083 157.97C343.667 158.368 343.459 158.898 343.459 159.561H341.833C341.833 158.547 342.202 157.706 342.94 157.038C343.685 156.364 344.628 156.027 345.771 156.027C346.978 156.027 347.924 156.347 348.609 156.985C349.295 157.624 349.638 158.512 349.638 159.648C349.638 160.205 349.456 160.744 349.093 161.266C348.735 161.787 348.246 162.177 347.625 162.435C348.328 162.657 348.87 163.026 349.251 163.542C349.638 164.058 349.831 164.688 349.831 165.432C349.831 166.58 349.456 167.491 348.706 168.165C347.956 168.839 346.98 169.176 345.779 169.176C344.578 169.176 343.6 168.851 342.844 168.2C342.094 167.55 341.719 166.691 341.719 165.625H343.354C343.354 166.299 343.573 166.838 344.013 167.242C344.452 167.646 345.041 167.849 345.779 167.849C346.564 167.849 347.165 167.644 347.581 167.233C347.997 166.823 348.205 166.234 348.205 165.467C348.205 164.723 347.977 164.151 347.52 163.753C347.062 163.354 346.403 163.149 345.542 163.138H344.32V161.811Z" fill="black"/>
<rect x="94.5" y="182.5" width="270" height="40" fill="white" stroke="#DDDDDD"/>
<path d="M242.974 209V196.203H247.157C248.546 196.203 249.589 196.49 250.286 197.064C250.989 197.639 251.341 198.488 251.341 199.613C251.341 200.211 251.171 200.741 250.831 201.204C250.491 201.661 250.028 202.016 249.442 202.268C250.134 202.461 250.679 202.83 251.077 203.375C251.481 203.914 251.684 204.559 251.684 205.309C251.684 206.457 251.312 207.359 250.567 208.016C249.823 208.672 248.771 209 247.412 209H242.974ZM244.661 203.015V207.62H247.447C248.232 207.62 248.851 207.418 249.302 207.014C249.759 206.604 249.987 206.041 249.987 205.326C249.987 203.785 249.149 203.015 247.474 203.015H244.661ZM244.661 201.661H247.21C247.948 201.661 248.537 201.477 248.977 201.107C249.422 200.738 249.645 200.237 249.645 199.604C249.645 198.901 249.439 198.392 249.029 198.075C248.619 197.753 247.995 197.592 247.157 197.592H244.661V201.661ZM262.541 203.542C262.541 205.446 262.216 206.861 261.565 207.787C260.915 208.713 259.898 209.176 258.516 209.176C257.15 209.176 256.14 208.725 255.483 207.822C254.827 206.914 254.487 205.561 254.464 203.762V201.591C254.464 199.71 254.789 198.312 255.439 197.398C256.09 196.484 257.109 196.027 258.498 196.027C259.875 196.027 260.889 196.47 261.539 197.354C262.189 198.233 262.523 199.593 262.541 201.433V203.542ZM260.915 201.318C260.915 199.941 260.722 198.939 260.335 198.312C259.948 197.68 259.336 197.363 258.498 197.363C257.666 197.363 257.06 197.677 256.679 198.304C256.298 198.931 256.102 199.895 256.09 201.195V203.797C256.09 205.18 256.289 206.202 256.688 206.864C257.092 207.521 257.701 207.849 258.516 207.849C259.318 207.849 259.913 207.538 260.3 206.917C260.692 206.296 260.897 205.317 260.915 203.981V201.318ZM273.636 197.117L268.336 209H266.631L271.913 197.539H264.987V196.203H273.636V197.117ZM283.992 199.543C283.992 200.182 283.822 200.75 283.482 201.248C283.148 201.746 282.694 202.136 282.12 202.417C282.788 202.704 283.315 203.123 283.702 203.674C284.095 204.225 284.291 204.849 284.291 205.546C284.291 206.653 283.916 207.535 283.166 208.191C282.422 208.848 281.44 209.176 280.222 209.176C278.991 209.176 278.004 208.848 277.26 208.191C276.521 207.529 276.152 206.647 276.152 205.546C276.152 204.854 276.34 204.23 276.715 203.674C277.096 203.117 277.62 202.695 278.288 202.408C277.72 202.127 277.271 201.737 276.943 201.239C276.615 200.741 276.451 200.176 276.451 199.543C276.451 198.465 276.797 197.609 277.488 196.977C278.18 196.344 279.091 196.027 280.222 196.027C281.347 196.027 282.255 196.344 282.946 196.977C283.644 197.609 283.992 198.465 283.992 199.543ZM282.665 205.511C282.665 204.796 282.437 204.213 281.979 203.762C281.528 203.311 280.937 203.085 280.204 203.085C279.472 203.085 278.883 203.308 278.438 203.753C277.998 204.198 277.778 204.784 277.778 205.511C277.778 206.237 277.992 206.809 278.42 207.225C278.854 207.641 279.454 207.849 280.222 207.849C280.983 207.849 281.581 207.641 282.015 207.225C282.448 206.803 282.665 206.231 282.665 205.511ZM280.222 197.363C279.583 197.363 279.064 197.562 278.666 197.961C278.273 198.354 278.077 198.89 278.077 199.569C278.077 200.22 278.271 200.747 278.657 201.151C279.05 201.55 279.571 201.749 280.222 201.749C280.872 201.749 281.391 201.55 281.777 201.151C282.17 200.747 282.366 200.22 282.366 199.569C282.366 198.919 282.164 198.389 281.76 197.979C281.355 197.568 280.843 197.363 280.222 197.363ZM293.953 204.702H295.729V206.029H293.953V209H292.318V206.029H286.491V205.071L292.222 196.203H293.953V204.702ZM288.337 204.702H292.318V198.427L292.125 198.778L288.337 204.702ZM302.139 203.296C300.691 202.88 299.637 202.37 298.975 201.767C298.318 201.157 297.99 200.407 297.99 199.517C297.99 198.509 298.392 197.677 299.194 197.021C300.003 196.358 301.052 196.027 302.341 196.027C303.22 196.027 304.002 196.197 304.688 196.537C305.379 196.877 305.912 197.346 306.287 197.943C306.668 198.541 306.858 199.194 306.858 199.903H305.162C305.162 199.13 304.916 198.523 304.424 198.084C303.932 197.639 303.237 197.416 302.341 197.416C301.509 197.416 300.858 197.601 300.39 197.97C299.927 198.333 299.695 198.84 299.695 199.49C299.695 200.012 299.915 200.454 300.354 200.817C300.8 201.175 301.553 201.503 302.613 201.802C303.68 202.101 304.512 202.432 305.109 202.795C305.713 203.152 306.158 203.571 306.445 204.052C306.738 204.532 306.885 205.098 306.885 205.748C306.885 206.785 306.48 207.617 305.672 208.244C304.863 208.865 303.782 209.176 302.429 209.176C301.55 209.176 300.729 209.009 299.968 208.675C299.206 208.335 298.617 207.872 298.201 207.286C297.791 206.7 297.586 206.035 297.586 205.291H299.282C299.282 206.064 299.566 206.677 300.135 207.128C300.709 207.573 301.474 207.796 302.429 207.796C303.319 207.796 304.002 207.614 304.477 207.251C304.951 206.888 305.188 206.393 305.188 205.766C305.188 205.139 304.969 204.655 304.529 204.315C304.09 203.97 303.293 203.63 302.139 203.296ZM316.248 204.702H318.023V206.029H316.248V209H314.613V206.029H308.786V205.071L314.517 196.203H316.248V204.702ZM310.632 204.702H314.613V198.427L314.42 198.778L310.632 204.702ZM325.585 209H323.95V198.163L320.672 199.367V197.891L325.33 196.142H325.585V209ZM339.483 209H331.099V207.831L335.528 202.909C336.185 202.165 336.636 201.562 336.882 201.099C337.134 200.63 337.26 200.146 337.26 199.648C337.26 198.98 337.058 198.433 336.653 198.005C336.249 197.577 335.71 197.363 335.036 197.363C334.228 197.363 333.598 197.595 333.146 198.058C332.701 198.515 332.479 199.153 332.479 199.974H330.853C330.853 198.796 331.23 197.844 331.986 197.117C332.748 196.391 333.765 196.027 335.036 196.027C336.226 196.027 337.166 196.341 337.857 196.968C338.549 197.589 338.895 198.418 338.895 199.455C338.895 200.715 338.092 202.215 336.486 203.955L333.059 207.673H339.483V209ZM344.32 201.811H345.542C346.31 201.799 346.913 201.597 347.353 201.204C347.792 200.812 348.012 200.281 348.012 199.613C348.012 198.113 347.265 197.363 345.771 197.363C345.067 197.363 344.505 197.565 344.083 197.97C343.667 198.368 343.459 198.898 343.459 199.561H341.833C341.833 198.547 342.202 197.706 342.94 197.038C343.685 196.364 344.628 196.027 345.771 196.027C346.978 196.027 347.924 196.347 348.609 196.985C349.295 197.624 349.638 198.512 349.638 199.648C349.638 200.205 349.456 200.744 349.093 201.266C348.735 201.787 348.246 202.177 347.625 202.435C348.328 202.657 348.87 203.026 349.251 203.542C349.638 204.058 349.831 204.688 349.831 205.432C349.831 206.58 349.456 207.491 348.706 208.165C347.956 208.839 346.98 209.176 345.779 209.176C344.578 209.176 343.6 208.851 342.844 208.2C342.094 207.55 341.719 206.691 341.719 205.625H343.354C343.354 206.299 343.573 206.838 344.013 207.242C344.452 207.646 345.041 207.849 345.779 207.849C346.564 207.849 347.165 207.644 347.581 207.233C347.997 206.823 348.205 206.234 348.205 205.467C348.205 204.723 347.977 204.151 347.52 203.753C347.062 203.354 346.403 203.149 345.542 203.138H344.32V201.811Z" fill="black"/>
<rect x="94.5" y="222.5" width="270" height="40" fill="#F4F4F4" stroke="#DDDDDD"/>
<path d="M240.671 249V236.203H244.854C246.243 236.203 247.286 236.49 247.983 237.064C248.687 237.639 249.038 238.488 249.038 239.613C249.038 240.211 248.868 240.741 248.528 241.204C248.188 241.661 247.726 242.016 247.14 242.268C247.831 242.461 248.376 242.83 248.774 243.375C249.179 243.914 249.381 244.559 249.381 245.309C249.381 246.457 249.009 247.359 248.265 248.016C247.521 248.672 246.469 249 245.109 249H240.671ZM242.358 243.015V247.62H245.145C245.93 247.62 246.548 247.418 246.999 247.014C247.456 246.604 247.685 246.041 247.685 245.326C247.685 243.785 246.847 243.015 245.171 243.015H242.358ZM242.358 241.661H244.907C245.646 241.661 246.234 241.477 246.674 241.107C247.119 240.738 247.342 240.237 247.342 239.604C247.342 238.901 247.137 238.392 246.727 238.075C246.316 237.753 245.692 237.592 244.854 237.592H242.358V241.661ZM260.238 243.542C260.238 245.446 259.913 246.861 259.263 247.787C258.612 248.713 257.596 249.176 256.213 249.176C254.848 249.176 253.837 248.725 253.181 247.822C252.524 246.914 252.185 245.561 252.161 243.762V241.591C252.161 239.71 252.486 238.312 253.137 237.398C253.787 236.484 254.807 236.027 256.195 236.027C257.572 236.027 258.586 236.47 259.236 237.354C259.887 238.233 260.221 239.593 260.238 241.433V243.542ZM258.612 241.318C258.612 239.941 258.419 238.939 258.032 238.312C257.646 237.68 257.033 237.363 256.195 237.363C255.363 237.363 254.757 237.677 254.376 238.304C253.995 238.931 253.799 239.895 253.787 241.195V243.797C253.787 245.18 253.986 246.202 254.385 246.864C254.789 247.521 255.398 247.849 256.213 247.849C257.016 247.849 257.61 247.538 257.997 246.917C258.39 246.296 258.595 245.317 258.612 243.981V241.318ZM271.333 237.117L266.033 249H264.328L269.61 237.539H262.685V236.203H271.333V237.117ZM281.689 239.543C281.689 240.182 281.52 240.75 281.18 241.248C280.846 241.746 280.392 242.136 279.817 242.417C280.485 242.704 281.013 243.123 281.399 243.674C281.792 244.225 281.988 244.849 281.988 245.546C281.988 246.653 281.613 247.535 280.863 248.191C280.119 248.848 279.138 249.176 277.919 249.176C276.688 249.176 275.701 248.848 274.957 248.191C274.219 247.529 273.85 246.647 273.85 245.546C273.85 244.854 274.037 244.23 274.412 243.674C274.793 243.117 275.317 242.695 275.985 242.408C275.417 242.127 274.969 241.737 274.641 241.239C274.312 240.741 274.148 240.176 274.148 239.543C274.148 238.465 274.494 237.609 275.186 236.977C275.877 236.344 276.788 236.027 277.919 236.027C279.044 236.027 279.952 236.344 280.644 236.977C281.341 237.609 281.689 238.465 281.689 239.543ZM280.362 245.511C280.362 244.796 280.134 244.213 279.677 243.762C279.226 243.311 278.634 243.085 277.901 243.085C277.169 243.085 276.58 243.308 276.135 243.753C275.695 244.198 275.476 244.784 275.476 245.511C275.476 246.237 275.689 246.809 276.117 247.225C276.551 247.641 277.151 247.849 277.919 247.849C278.681 247.849 279.278 247.641 279.712 247.225C280.146 246.803 280.362 246.231 280.362 245.511ZM277.919 237.363C277.28 237.363 276.762 237.562 276.363 237.961C275.971 238.354 275.774 238.89 275.774 239.569C275.774 240.22 275.968 240.747 276.354 241.151C276.747 241.55 277.269 241.749 277.919 241.749C278.569 241.749 279.088 241.55 279.475 241.151C279.867 240.747 280.063 240.22 280.063 239.569C280.063 238.919 279.861 238.389 279.457 237.979C279.053 237.568 278.54 237.363 277.919 237.363ZM291.65 244.702H293.426V246.029H291.65V249H290.016V246.029H284.188V245.071L289.919 236.203H291.65V244.702ZM286.034 244.702H290.016V238.427L289.822 238.778L286.034 244.702ZM299.836 243.296C298.389 242.88 297.334 242.37 296.672 241.767C296.016 241.157 295.688 240.407 295.688 239.517C295.688 238.509 296.089 237.677 296.892 237.021C297.7 236.358 298.749 236.027 300.038 236.027C300.917 236.027 301.699 236.197 302.385 236.537C303.076 236.877 303.609 237.346 303.984 237.943C304.365 238.541 304.556 239.194 304.556 239.903H302.859C302.859 239.13 302.613 238.523 302.121 238.084C301.629 237.639 300.935 237.416 300.038 237.416C299.206 237.416 298.556 237.601 298.087 237.97C297.624 238.333 297.393 238.84 297.393 239.49C297.393 240.012 297.612 240.454 298.052 240.817C298.497 241.175 299.25 241.503 300.311 241.802C301.377 242.101 302.209 242.432 302.807 242.795C303.41 243.152 303.855 243.571 304.143 244.052C304.436 244.532 304.582 245.098 304.582 245.748C304.582 246.785 304.178 247.617 303.369 248.244C302.561 248.865 301.479 249.176 300.126 249.176C299.247 249.176 298.427 249.009 297.665 248.675C296.903 248.335 296.314 247.872 295.898 247.286C295.488 246.7 295.283 246.035 295.283 245.291H296.979C296.979 246.064 297.264 246.677 297.832 247.128C298.406 247.573 299.171 247.796 300.126 247.796C301.017 247.796 301.699 247.614 302.174 247.251C302.648 246.888 302.886 246.393 302.886 245.766C302.886 245.139 302.666 244.655 302.227 244.315C301.787 243.97 300.99 243.63 299.836 243.296ZM314.561 243.349H309.19V249H307.503V236.203H315.431V237.592H309.19V241.969H314.561V243.349ZM326.042 237.117L320.742 249H319.037L324.319 237.539H317.394V236.203H326.042V237.117ZM333.296 246.759L336.952 236.203H338.798L334.052 249H332.558L327.82 236.203H329.657L333.296 246.759ZM341.271 249V236.203H345.454C346.843 236.203 347.886 236.49 348.583 237.064C349.286 237.639 349.638 238.488 349.638 239.613C349.638 240.211 349.468 240.741 349.128 241.204C348.788 241.661 348.325 242.016 347.739 242.268C348.431 242.461 348.976 242.83 349.374 243.375C349.778 243.914 349.98 244.559 349.98 245.309C349.98 246.457 349.608 247.359 348.864 248.016C348.12 248.672 347.068 249 345.709 249H341.271ZM342.958 243.015V247.62H345.744C346.529 247.62 347.147 247.418 347.599 247.014C348.056 246.604 348.284 246.041 348.284 245.326C348.284 243.785 347.446 243.015 345.771 243.015H342.958ZM342.958 241.661H345.507C346.245 241.661 346.834 241.477 347.273 241.107C347.719 240.738 347.941 240.237 347.941 239.604C347.941 238.901 347.736 238.392 347.326 238.075C346.916 237.753 346.292 237.592 345.454 237.592H342.958V241.661Z" fill="black"/>
<rect x="94.5" y="262.5" width="270" height="40" fill="white" stroke="#DDDDDD"/>
<path d="M240.513 289V276.203H244.696C246.085 276.203 247.128 276.49 247.825 277.064C248.528 277.639 248.88 278.488 248.88 279.613C248.88 280.211 248.71 280.741 248.37 281.204C248.03 281.661 247.567 282.016 246.981 282.268C247.673 282.461 248.218 282.83 248.616 283.375C249.021 283.914 249.223 284.559 249.223 285.309C249.223 286.457 248.851 287.359 248.106 288.016C247.362 288.672 246.311 289 244.951 289H240.513ZM242.2 283.015V287.62H244.986C245.771 287.62 246.39 287.418 246.841 287.014C247.298 286.604 247.526 286.041 247.526 285.326C247.526 283.785 246.688 283.015 245.013 283.015H242.2ZM242.2 281.661H244.749C245.487 281.661 246.076 281.477 246.516 281.107C246.961 280.738 247.184 280.237 247.184 279.604C247.184 278.901 246.979 278.392 246.568 278.075C246.158 277.753 245.534 277.592 244.696 277.592H242.2V281.661ZM260.08 283.542C260.08 285.446 259.755 286.861 259.104 287.787C258.454 288.713 257.438 289.176 256.055 289.176C254.689 289.176 253.679 288.725 253.022 287.822C252.366 286.914 252.026 285.561 252.003 283.762V281.591C252.003 279.71 252.328 278.312 252.979 277.398C253.629 276.484 254.648 276.027 256.037 276.027C257.414 276.027 258.428 276.47 259.078 277.354C259.729 278.233 260.062 279.593 260.08 281.433V283.542ZM258.454 281.318C258.454 279.941 258.261 278.939 257.874 278.312C257.487 277.68 256.875 277.363 256.037 277.363C255.205 277.363 254.599 277.677 254.218 278.304C253.837 278.931 253.641 279.895 253.629 281.195V283.797C253.629 285.18 253.828 286.202 254.227 286.864C254.631 287.521 255.24 287.849 256.055 287.849C256.857 287.849 257.452 287.538 257.839 286.917C258.231 286.296 258.437 285.317 258.454 283.981V281.318ZM271.175 277.117L265.875 289H264.17L269.452 277.539H262.526V276.203H271.175V277.117ZM281.531 279.543C281.531 280.182 281.361 280.75 281.021 281.248C280.688 281.746 280.233 282.136 279.659 282.417C280.327 282.704 280.854 283.123 281.241 283.674C281.634 284.225 281.83 284.849 281.83 285.546C281.83 286.653 281.455 287.535 280.705 288.191C279.961 288.848 278.979 289.176 277.761 289.176C276.53 289.176 275.543 288.848 274.799 288.191C274.061 287.529 273.691 286.647 273.691 285.546C273.691 284.854 273.879 284.23 274.254 283.674C274.635 283.117 275.159 282.695 275.827 282.408C275.259 282.127 274.811 281.737 274.482 281.239C274.154 280.741 273.99 280.176 273.99 279.543C273.99 278.465 274.336 277.609 275.027 276.977C275.719 276.344 276.63 276.027 277.761 276.027C278.886 276.027 279.794 276.344 280.485 276.977C281.183 277.609 281.531 278.465 281.531 279.543ZM280.204 285.511C280.204 284.796 279.976 284.213 279.519 283.762C279.067 283.311 278.476 283.085 277.743 283.085C277.011 283.085 276.422 283.308 275.977 283.753C275.537 284.198 275.317 284.784 275.317 285.511C275.317 286.237 275.531 286.809 275.959 287.225C276.393 287.641 276.993 287.849 277.761 287.849C278.522 287.849 279.12 287.641 279.554 287.225C279.987 286.803 280.204 286.231 280.204 285.511ZM277.761 277.363C277.122 277.363 276.604 277.562 276.205 277.961C275.812 278.354 275.616 278.89 275.616 279.569C275.616 280.22 275.81 280.747 276.196 281.151C276.589 281.55 277.11 281.749 277.761 281.749C278.411 281.749 278.93 281.55 279.316 281.151C279.709 280.747 279.905 280.22 279.905 279.569C279.905 278.919 279.703 278.389 279.299 277.979C278.895 277.568 278.382 277.363 277.761 277.363ZM291.492 284.702H293.268V286.029H291.492V289H289.857V286.029H284.03V285.071L289.761 276.203H291.492V284.702ZM285.876 284.702H289.857V278.427L289.664 278.778L285.876 284.702ZM299.678 283.296C298.23 282.88 297.176 282.37 296.514 281.767C295.857 281.157 295.529 280.407 295.529 279.517C295.529 278.509 295.931 277.677 296.733 277.021C297.542 276.358 298.591 276.027 299.88 276.027C300.759 276.027 301.541 276.197 302.227 276.537C302.918 276.877 303.451 277.346 303.826 277.943C304.207 278.541 304.397 279.194 304.397 279.903H302.701C302.701 279.13 302.455 278.523 301.963 278.084C301.471 277.639 300.776 277.416 299.88 277.416C299.048 277.416 298.397 277.601 297.929 277.97C297.466 278.333 297.234 278.84 297.234 279.49C297.234 280.012 297.454 280.454 297.894 280.817C298.339 281.175 299.092 281.503 300.152 281.802C301.219 282.101 302.051 282.432 302.648 282.795C303.252 283.152 303.697 283.571 303.984 284.052C304.277 284.532 304.424 285.098 304.424 285.748C304.424 286.785 304.02 287.617 303.211 288.244C302.402 288.865 301.321 289.176 299.968 289.176C299.089 289.176 298.269 289.009 297.507 288.675C296.745 288.335 296.156 287.872 295.74 287.286C295.33 286.7 295.125 286.035 295.125 285.291H296.821C296.821 286.064 297.105 286.677 297.674 287.128C298.248 287.573 299.013 287.796 299.968 287.796C300.858 287.796 301.541 287.614 302.016 287.251C302.49 286.888 302.728 286.393 302.728 285.766C302.728 285.139 302.508 284.655 302.068 284.315C301.629 283.97 300.832 283.63 299.678 283.296ZM307.67 282.584L308.32 276.203H314.877V277.706H309.7L309.313 281.195C309.94 280.826 310.652 280.642 311.449 280.642C312.615 280.642 313.541 281.028 314.227 281.802C314.912 282.569 315.255 283.609 315.255 284.922C315.255 286.24 314.897 287.28 314.183 288.042C313.474 288.798 312.48 289.176 311.203 289.176C310.072 289.176 309.149 288.862 308.435 288.235C307.72 287.608 307.312 286.741 307.213 285.634H308.751C308.851 286.366 309.111 286.92 309.533 287.295C309.955 287.664 310.512 287.849 311.203 287.849C311.959 287.849 312.551 287.591 312.979 287.075C313.412 286.56 313.629 285.848 313.629 284.939C313.629 284.084 313.395 283.398 312.926 282.883C312.463 282.361 311.845 282.101 311.071 282.101C310.362 282.101 309.806 282.256 309.401 282.566L308.971 282.918L307.67 282.584ZM324.161 276.194V277.574H323.862C322.597 277.598 321.589 277.973 320.839 278.699C320.089 279.426 319.655 280.448 319.538 281.767C320.212 280.993 321.132 280.606 322.298 280.606C323.411 280.606 324.299 280.999 324.961 281.784C325.629 282.569 325.963 283.583 325.963 284.825C325.963 286.144 325.603 287.198 324.882 287.989C324.167 288.78 323.206 289.176 321.999 289.176C320.774 289.176 319.781 288.707 319.02 287.77C318.258 286.826 317.877 285.613 317.877 284.131V283.507C317.877 281.151 318.378 279.353 319.38 278.11C320.388 276.862 321.885 276.224 323.871 276.194H324.161ZM322.025 281.96C321.469 281.96 320.956 282.127 320.487 282.461C320.019 282.795 319.693 283.214 319.512 283.718V284.315C319.512 285.37 319.749 286.22 320.224 286.864C320.698 287.509 321.29 287.831 321.999 287.831C322.731 287.831 323.306 287.562 323.722 287.022C324.144 286.483 324.354 285.777 324.354 284.904C324.354 284.025 324.141 283.316 323.713 282.777C323.291 282.232 322.729 281.96 322.025 281.96ZM333.296 286.759L336.952 276.203H338.798L334.052 289H332.558L327.82 276.203H329.657L333.296 286.759ZM341.271 289V276.203H345.454C346.843 276.203 347.886 276.49 348.583 277.064C349.286 277.639 349.638 278.488 349.638 279.613C349.638 280.211 349.468 280.741 349.128 281.204C348.788 281.661 348.325 282.016 347.739 282.268C348.431 282.461 348.976 282.83 349.374 283.375C349.778 283.914 349.98 284.559 349.98 285.309C349.98 286.457 349.608 287.359 348.864 288.016C348.12 288.672 347.068 289 345.709 289H341.271ZM342.958 283.015V287.62H345.744C346.529 287.62 347.147 287.418 347.599 287.014C348.056 286.604 348.284 286.041 348.284 285.326C348.284 283.785 347.446 283.015 345.771 283.015H342.958ZM342.958 281.661H345.507C346.245 281.661 346.834 281.477 347.273 281.107C347.719 280.738 347.941 280.237 347.941 279.604C347.941 278.901 347.736 278.392 347.326 278.075C346.916 277.753 346.292 277.592 345.454 277.592H342.958V281.661Z" fill="black"/>
<rect x="94.5" y="302.5" width="270" height="40" fill="#F4F4F4" stroke="#DDDDDD"/>
<path d="M242.974 329V316.203H247.157C248.546 316.203 249.589 316.49 250.286 317.064C250.989 317.639 251.341 318.488 251.341 319.613C251.341 320.211 251.171 320.741 250.831 321.204C250.491 321.661 250.028 322.016 249.442 322.268C250.134 322.461 250.679 322.83 251.077 323.375C251.481 323.914 251.684 324.559 251.684 325.309C251.684 326.457 251.312 327.359 250.567 328.016C249.823 328.672 248.771 329 247.412 329H242.974ZM244.661 323.015V327.62H247.447C248.232 327.62 248.851 327.418 249.302 327.014C249.759 326.604 249.987 326.041 249.987 325.326C249.987 323.785 249.149 323.015 247.474 323.015H244.661ZM244.661 321.661H247.21C247.948 321.661 248.537 321.477 248.977 321.107C249.422 320.738 249.645 320.237 249.645 319.604C249.645 318.901 249.439 318.392 249.029 318.075C248.619 317.753 247.995 317.592 247.157 317.592H244.661V321.661ZM262.541 323.542C262.541 325.446 262.216 326.861 261.565 327.787C260.915 328.713 259.898 329.176 258.516 329.176C257.15 329.176 256.14 328.725 255.483 327.822C254.827 326.914 254.487 325.561 254.464 323.762V321.591C254.464 319.71 254.789 318.312 255.439 317.398C256.09 316.484 257.109 316.027 258.498 316.027C259.875 316.027 260.889 316.47 261.539 317.354C262.189 318.233 262.523 319.593 262.541 321.433V323.542ZM260.915 321.318C260.915 319.941 260.722 318.939 260.335 318.312C259.948 317.68 259.336 317.363 258.498 317.363C257.666 317.363 257.06 317.677 256.679 318.304C256.298 318.931 256.102 319.895 256.09 321.195V323.797C256.09 325.18 256.289 326.202 256.688 326.864C257.092 327.521 257.701 327.849 258.516 327.849C259.318 327.849 259.913 327.538 260.3 326.917C260.692 326.296 260.897 325.317 260.915 323.981V321.318ZM273.636 317.117L268.336 329H266.631L271.913 317.539H264.987V316.203H273.636V317.117ZM283.992 319.543C283.992 320.182 283.822 320.75 283.482 321.248C283.148 321.746 282.694 322.136 282.12 322.417C282.788 322.704 283.315 323.123 283.702 323.674C284.095 324.225 284.291 324.849 284.291 325.546C284.291 326.653 283.916 327.535 283.166 328.191C282.422 328.848 281.44 329.176 280.222 329.176C278.991 329.176 278.004 328.848 277.26 328.191C276.521 327.529 276.152 326.647 276.152 325.546C276.152 324.854 276.34 324.23 276.715 323.674C277.096 323.117 277.62 322.695 278.288 322.408C277.72 322.127 277.271 321.737 276.943 321.239C276.615 320.741 276.451 320.176 276.451 319.543C276.451 318.465 276.797 317.609 277.488 316.977C278.18 316.344 279.091 316.027 280.222 316.027C281.347 316.027 282.255 316.344 282.946 316.977C283.644 317.609 283.992 318.465 283.992 319.543ZM282.665 325.511C282.665 324.796 282.437 324.213 281.979 323.762C281.528 323.311 280.937 323.085 280.204 323.085C279.472 323.085 278.883 323.308 278.438 323.753C277.998 324.198 277.778 324.784 277.778 325.511C277.778 326.237 277.992 326.809 278.42 327.225C278.854 327.641 279.454 327.849 280.222 327.849C280.983 327.849 281.581 327.641 282.015 327.225C282.448 326.803 282.665 326.231 282.665 325.511ZM280.222 317.363C279.583 317.363 279.064 317.562 278.666 317.961C278.273 318.354 278.077 318.89 278.077 319.569C278.077 320.22 278.271 320.747 278.657 321.151C279.05 321.55 279.571 321.749 280.222 321.749C280.872 321.749 281.391 321.55 281.777 321.151C282.17 320.747 282.366 320.22 282.366 319.569C282.366 318.919 282.164 318.389 281.76 317.979C281.355 317.568 280.843 317.363 280.222 317.363ZM293.953 324.702H295.729V326.029H293.953V329H292.318V326.029H286.491V325.071L292.222 316.203H293.953V324.702ZM288.337 324.702H292.318V318.427L292.125 318.778L288.337 324.702ZM302.139 323.296C300.691 322.88 299.637 322.37 298.975 321.767C298.318 321.157 297.99 320.407 297.99 319.517C297.99 318.509 298.392 317.677 299.194 317.021C300.003 316.358 301.052 316.027 302.341 316.027C303.22 316.027 304.002 316.197 304.688 316.537C305.379 316.877 305.912 317.346 306.287 317.943C306.668 318.541 306.858 319.194 306.858 319.903H305.162C305.162 319.13 304.916 318.523 304.424 318.084C303.932 317.639 303.237 317.416 302.341 317.416C301.509 317.416 300.858 317.601 300.39 317.97C299.927 318.333 299.695 318.84 299.695 319.49C299.695 320.012 299.915 320.454 300.354 320.817C300.8 321.175 301.553 321.503 302.613 321.802C303.68 322.101 304.512 322.432 305.109 322.795C305.713 323.152 306.158 323.571 306.445 324.052C306.738 324.532 306.885 325.098 306.885 325.748C306.885 326.785 306.48 327.617 305.672 328.244C304.863 328.865 303.782 329.176 302.429 329.176C301.55 329.176 300.729 329.009 299.968 328.675C299.206 328.335 298.617 327.872 298.201 327.286C297.791 326.7 297.586 326.035 297.586 325.291H299.282C299.282 326.064 299.566 326.677 300.135 327.128C300.709 327.573 301.474 327.796 302.429 327.796C303.319 327.796 304.002 327.614 304.477 327.251C304.951 326.888 305.188 326.393 305.188 325.766C305.188 325.139 304.969 324.655 304.529 324.315C304.09 323.97 303.293 323.63 302.139 323.296ZM317.646 317.117L312.346 329H310.641L315.923 317.539H308.997V316.203H317.646V317.117ZM326.622 316.194V317.574H326.323C325.058 317.598 324.05 317.973 323.3 318.699C322.55 319.426 322.116 320.448 321.999 321.767C322.673 320.993 323.593 320.606 324.759 320.606C325.872 320.606 326.76 320.999 327.422 321.784C328.09 322.569 328.424 323.583 328.424 324.825C328.424 326.144 328.063 327.198 327.343 327.989C326.628 328.78 325.667 329.176 324.46 329.176C323.235 329.176 322.242 328.707 321.48 327.77C320.719 326.826 320.338 325.613 320.338 324.131V323.507C320.338 321.151 320.839 319.353 321.841 318.11C322.849 316.862 324.346 316.224 326.332 316.194H326.622ZM324.486 321.96C323.93 321.96 323.417 322.127 322.948 322.461C322.479 322.795 322.154 323.214 321.973 323.718V324.315C321.973 325.37 322.21 326.22 322.685 326.864C323.159 327.509 323.751 327.831 324.46 327.831C325.192 327.831 325.767 327.562 326.183 327.022C326.604 326.483 326.815 325.777 326.815 324.904C326.815 324.025 326.602 323.316 326.174 322.777C325.752 322.232 325.189 321.96 324.486 321.96ZM331.846 322.584L332.496 316.203H339.053V317.706H333.876L333.489 321.195C334.116 320.826 334.828 320.642 335.625 320.642C336.791 320.642 337.717 321.028 338.402 321.802C339.088 322.569 339.431 323.609 339.431 324.922C339.431 326.24 339.073 327.28 338.358 328.042C337.649 328.798 336.656 329.176 335.379 329.176C334.248 329.176 333.325 328.862 332.61 328.235C331.896 327.608 331.488 326.741 331.389 325.634H332.927C333.026 326.366 333.287 326.92 333.709 327.295C334.131 327.664 334.688 327.849 335.379 327.849C336.135 327.849 336.727 327.591 337.154 327.075C337.588 326.56 337.805 325.848 337.805 324.939C337.805 324.084 337.57 323.398 337.102 322.883C336.639 322.361 336.021 322.101 335.247 322.101C334.538 322.101 333.981 322.256 333.577 322.566L333.146 322.918L331.846 322.584ZM348.188 323.375C347.848 323.779 347.44 324.104 346.966 324.351C346.497 324.597 345.981 324.72 345.419 324.72C344.681 324.72 344.036 324.538 343.485 324.175C342.94 323.812 342.519 323.302 342.22 322.646C341.921 321.983 341.771 321.254 341.771 320.457C341.771 319.602 341.933 318.831 342.255 318.146C342.583 317.46 343.046 316.936 343.644 316.572C344.241 316.209 344.938 316.027 345.735 316.027C347.001 316.027 347.997 316.502 348.724 317.451C349.456 318.395 349.822 319.684 349.822 321.318V321.793C349.822 324.283 349.33 326.103 348.346 327.251C347.361 328.394 345.876 328.979 343.89 329.009H343.573V327.638H343.916C345.258 327.614 346.289 327.266 347.01 326.592C347.73 325.912 348.123 324.84 348.188 323.375ZM345.683 323.375C346.228 323.375 346.729 323.208 347.186 322.874C347.648 322.54 347.985 322.127 348.196 321.635V320.984C348.196 319.918 347.965 319.051 347.502 318.383C347.039 317.715 346.453 317.381 345.744 317.381C345.029 317.381 344.455 317.656 344.021 318.207C343.588 318.752 343.371 319.473 343.371 320.369C343.371 321.242 343.579 321.963 343.995 322.531C344.417 323.094 344.979 323.375 345.683 323.375Z" fill="black"/>
<rect x="94.5" y="342.5" width="270" height="40" fill="white" stroke="#DDDDDD"/>
<path d="M243.87 369V356.203H248.054C249.442 356.203 250.485 356.49 251.183 357.064C251.886 357.639 252.237 358.488 252.237 359.613C252.237 360.211 252.067 360.741 251.728 361.204C251.388 361.661 250.925 362.016 250.339 362.268C251.03 362.461 251.575 362.83 251.974 363.375C252.378 363.914 252.58 364.559 252.58 365.309C252.58 366.457 252.208 367.359 251.464 368.016C250.72 368.672 249.668 369 248.309 369H243.87ZM245.558 363.015V367.62H248.344C249.129 367.62 249.747 367.418 250.198 367.014C250.655 366.604 250.884 366.041 250.884 365.326C250.884 363.785 250.046 363.015 248.37 363.015H245.558ZM245.558 361.661H248.106C248.845 361.661 249.434 361.477 249.873 361.107C250.318 360.738 250.541 360.237 250.541 359.604C250.541 358.901 250.336 358.392 249.926 358.075C249.516 357.753 248.892 357.592 248.054 357.592H245.558V361.661ZM263.438 363.542C263.438 365.446 263.112 366.861 262.462 367.787C261.812 368.713 260.795 369.176 259.412 369.176C258.047 369.176 257.036 368.725 256.38 367.822C255.724 366.914 255.384 365.561 255.36 363.762V361.591C255.36 359.71 255.686 358.312 256.336 357.398C256.986 356.484 258.006 356.027 259.395 356.027C260.771 356.027 261.785 356.47 262.436 357.354C263.086 358.233 263.42 359.593 263.438 361.433V363.542ZM261.812 361.318C261.812 359.941 261.618 358.939 261.231 358.312C260.845 357.68 260.232 357.363 259.395 357.363C258.562 357.363 257.956 357.677 257.575 358.304C257.194 358.931 256.998 359.895 256.986 361.195V363.797C256.986 365.18 257.186 366.202 257.584 366.864C257.988 367.521 258.598 367.849 259.412 367.849C260.215 367.849 260.81 367.538 261.196 366.917C261.589 366.296 261.794 365.317 261.812 363.981V361.318ZM274.532 357.117L269.232 369H267.527L272.81 357.539H265.884V356.203H274.532V357.117ZM284.889 359.543C284.889 360.182 284.719 360.75 284.379 361.248C284.045 361.746 283.591 362.136 283.017 362.417C283.685 362.704 284.212 363.123 284.599 363.674C284.991 364.225 285.188 364.849 285.188 365.546C285.188 366.653 284.812 367.535 284.062 368.191C283.318 368.848 282.337 369.176 281.118 369.176C279.888 369.176 278.9 368.848 278.156 368.191C277.418 367.529 277.049 366.647 277.049 365.546C277.049 364.854 277.236 364.23 277.611 363.674C277.992 363.117 278.517 362.695 279.185 362.408C278.616 362.127 278.168 361.737 277.84 361.239C277.512 360.741 277.348 360.176 277.348 359.543C277.348 358.465 277.693 357.609 278.385 356.977C279.076 356.344 279.987 356.027 281.118 356.027C282.243 356.027 283.151 356.344 283.843 356.977C284.54 357.609 284.889 358.465 284.889 359.543ZM283.562 365.511C283.562 364.796 283.333 364.213 282.876 363.762C282.425 363.311 281.833 363.085 281.101 363.085C280.368 363.085 279.779 363.308 279.334 363.753C278.895 364.198 278.675 364.784 278.675 365.511C278.675 366.237 278.889 366.809 279.316 367.225C279.75 367.641 280.351 367.849 281.118 367.849C281.88 367.849 282.478 367.641 282.911 367.225C283.345 366.803 283.562 366.231 283.562 365.511ZM281.118 357.363C280.479 357.363 279.961 357.562 279.562 357.961C279.17 358.354 278.974 358.89 278.974 359.569C278.974 360.22 279.167 360.747 279.554 361.151C279.946 361.55 280.468 361.749 281.118 361.749C281.769 361.749 282.287 361.55 282.674 361.151C283.066 360.747 283.263 360.22 283.263 359.569C283.263 358.919 283.061 358.389 282.656 357.979C282.252 357.568 281.739 357.363 281.118 357.363ZM294.85 364.702H296.625V366.029H294.85V369H293.215V366.029H287.388V365.071L293.118 356.203H294.85V364.702ZM289.233 364.702H293.215V358.427L293.021 358.778L289.233 364.702ZM306.322 363.349H300.952V369H299.265V356.203H307.192V357.592H300.952V361.969H306.322V363.349ZM317.021 363.349H311.651V369H309.964V356.203H317.892V357.592H311.651V361.969H317.021V363.349ZM327.105 364.702H328.881V366.029H327.105V369H325.471V366.029H319.644V365.071L325.374 356.203H327.105V364.702ZM321.489 364.702H325.471V358.427L325.277 358.778L321.489 364.702ZM333.463 361.811H334.685C335.452 361.799 336.056 361.597 336.495 361.204C336.935 360.812 337.154 360.281 337.154 359.613C337.154 358.113 336.407 357.363 334.913 357.363C334.21 357.363 333.647 357.565 333.226 357.97C332.81 358.368 332.602 358.898 332.602 359.561H330.976C330.976 358.547 331.345 357.706 332.083 357.038C332.827 356.364 333.771 356.027 334.913 356.027C336.12 356.027 337.066 356.347 337.752 356.985C338.438 357.624 338.78 358.512 338.78 359.648C338.78 360.205 338.599 360.744 338.235 361.266C337.878 361.787 337.389 362.177 336.768 362.435C337.471 362.657 338.013 363.026 338.394 363.542C338.78 364.058 338.974 364.688 338.974 365.432C338.974 366.58 338.599 367.491 337.849 368.165C337.099 368.839 336.123 369.176 334.922 369.176C333.721 369.176 332.742 368.851 331.986 368.2C331.236 367.55 330.861 366.691 330.861 365.625H332.496C332.496 366.299 332.716 366.838 333.155 367.242C333.595 367.646 334.184 367.849 334.922 367.849C335.707 367.849 336.308 367.644 336.724 367.233C337.14 366.823 337.348 366.234 337.348 365.467C337.348 364.723 337.119 364.151 336.662 363.753C336.205 363.354 335.546 363.149 334.685 363.138H333.463V361.811ZM350.341 369H341.956V367.831L346.386 362.909C347.042 362.165 347.493 361.562 347.739 361.099C347.991 360.63 348.117 360.146 348.117 359.648C348.117 358.98 347.915 358.433 347.511 358.005C347.106 357.577 346.567 357.363 345.894 357.363C345.085 357.363 344.455 357.595 344.004 358.058C343.559 358.515 343.336 359.153 343.336 359.974H341.71C341.71 358.796 342.088 357.844 342.844 357.117C343.605 356.391 344.622 356.027 345.894 356.027C347.083 356.027 348.023 356.341 348.715 356.968C349.406 357.589 349.752 358.418 349.752 359.455C349.752 360.715 348.949 362.215 347.344 363.955L343.916 367.673H350.341V369Z" fill="black"/>
<path d="M6.00008 0L11.7736 10H0.226575L6.00008 0ZM18.5 126V125H18.5L18.5 126ZM7.00008 3.00307C7.00008 3.61418 7.00008 4.29015 7.00008 5.02669L5.00008 5.02668C5.00008 4.29014 5.00008 3.61418 5.00008 3.00307H7.00008ZM7.00008 7.0599C7.00008 7.70811 7.00008 8.39041 7.00007 9.1048H5.00007C5.00008 8.3904 5.00008 7.70811 5.00008 7.0599H7.00008ZM7.00007 11.115C7.00007 11.7656 7.00007 12.4378 7.00007 13.1304H5.00007C5.00007 12.4378 5.00007 11.7656 5.00007 11.115L7.00007 11.115ZM7.00007 15.1727C7.00007 15.8304 7.00007 16.5036 7.00007 17.1917H5.00007C5.00007 16.5036 5.00007 15.8304 5.00007 15.1727H7.00007ZM7.00007 19.2127C7.00007 19.8822 7.00007 20.5638 7.00006 21.257H5.00006C5.00007 20.5638 5.00007 19.8822 5.00007 19.2127H7.00007ZM7.00006 23.2635C7.00006 23.9359 7.00006 24.6179 7.00006 25.3088H5.00006C5.00006 24.6179 5.00006 23.9359 5.00006 23.2635L7.00006 23.2635ZM7.00006 27.3167C7.00006 27.9892 7.00006 28.6692 7.00006 29.3564H5.00006C5.00006 28.6692 5.00006 27.9892 5.00006 27.3167H7.00006ZM7.00006 31.3696C7.00006 32.0429 7.00006 32.7222 7.00005 33.4071H5.00005C5.00006 32.7222 5.00006 32.0429 5.00006 31.3696L7.00006 31.3696ZM7.00005 35.4221C7.00005 36.0964 7.00005 36.7756 7.00005 37.4593L5.00005 37.4593C5.00005 36.7756 5.00005 36.0964 5.00005 35.4221L7.00005 35.4221ZM7.00005 39.4745C7.00005 40.1499 7.00005 40.8292 7.00005 41.512H5.00005C5.00005 40.8292 5.00005 40.1499 5.00005 39.4745L7.00005 39.4745ZM7.00005 43.5271C7.00005 44.2019 7.00004 44.8796 7.00004 45.56H5.00004C5.00004 44.8796 5.00005 44.2019 5.00005 43.5271H7.00005ZM7.00004 47.5801C7.00004 48.2542 7.00004 48.9305 7.00004 49.6087L5.00004 49.6087C5.00004 48.9305 5.00004 48.2542 5.00004 47.5801H7.00004ZM7.00004 51.6331C7.00004 52.307 7.00004 52.9824 7.00004 53.6589H5.00004C5.00004 52.9824 5.00004 52.307 5.00004 51.6331H7.00004ZM7.00004 55.6858C7.00004 56.36 7.00003 57.0351 7.00003 57.7105H5.00003C5.00003 57.0351 5.00004 56.36 5.00004 55.6858H7.00004ZM7.00003 59.7375C7.00003 60.4126 7.00003 61.0879 7.00003 61.763H5.00003C5.00003 61.0879 5.00003 60.4126 5.00003 59.7375L7.00003 59.7375ZM7.00003 63.7874C7.00003 64.4641 7.00003 65.1402 7.00003 65.8155H5.00003C5.00003 65.1402 5.00003 64.4641 5.00003 63.7874L7.00003 63.7874ZM7.00003 67.8388C7.00003 68.5164 7.00002 69.1927 7.00002 69.8676H5.00002C5.00002 69.1927 5.00003 68.5164 5.00003 67.8388H7.00003ZM7.00002 71.8915C7.00002 72.5692 7.00002 73.2451 7.00002 73.9187L5.00002 73.9187C5.00002 73.2451 5.00002 72.5692 5.00002 71.8915H7.00002ZM7.00002 75.9447C7.00002 76.6221 7.00002 77.2968 7.00002 77.9685L5.00002 77.9685C5.00002 77.2968 5.00002 76.6221 5.00002 75.9447H7.00002ZM7.00002 79.9981C7.00002 80.6748 7.00002 81.348 7.00002 82.0175L5.00002 82.0175C5.00002 81.348 5.00002 80.6748 5.00002 79.9981H7.00002ZM7.00001 84.0512C7.00001 84.7274 7.00001 85.3992 7.00001 86.0661H5.00001C5.00001 85.3992 5.00001 84.7274 5.00001 84.0512L7.00001 84.0512ZM7.00001 88.104C7.00001 88.7803 7.00001 89.4511 7.00001 90.1159L5.00001 90.1158C5.00001 89.4511 5.00001 88.7803 5.00001 88.104H7.00001ZM7.00001 92.1567C7.00001 92.8343 7.00001 93.505 7.00001 94.1682L5.00001 94.1682C5.00001 93.505 5.00001 92.8343 5.00001 92.1567H7.00001ZM7.00001 96.2087C7.00001 96.8897 7.00001 97.5618 7.00001 98.2247L5 98.2246C5.00001 97.5618 5.00001 96.8897 5.00001 96.2087L7.00001 96.2087ZM7 100.258C7 100.945 7 101.621 7 102.285H5C5 101.621 5 100.945 5 100.258H7ZM7 104.299C7 104.996 7 105.677 7 106.343H5C5 105.677 5 104.996 5 104.299H7ZM7 108.355C7 109.051 7 109.726 7 110.378H5C5 109.726 5 109.051 5 108.355H7ZM7 112.421C7 112.755 7 113.081 7 113.4H5C5 113.081 5 112.755 5 112.421H7ZM7 113.4C7 113.764 7 114.119 7.00124 114.467L5.00125 114.475C5 114.122 5 113.763 5 113.4H7ZM7.03717 116.57C7.06483 117.301 7.11273 117.979 7.19431 118.609L5.21091 118.866C5.119 118.157 5.06768 117.414 5.0386 116.646L7.03717 116.57ZM7.60435 120.509C7.80695 121.123 8.07317 121.657 8.42049 122.123L6.81717 123.318C6.32124 122.653 5.96382 121.92 5.70522 121.137L7.60435 120.509ZM9.72143 123.328C10.1858 123.63 10.7456 123.9 11.4247 124.132L10.7798 126.025C9.96758 125.748 9.25398 125.409 8.63107 125.004L9.72143 123.328ZM13.3485 124.616C13.962 124.727 14.6376 124.815 15.3818 124.879L15.2112 126.872C14.414 126.804 13.6759 126.708 12.9929 126.585L13.3485 124.616ZM17.4528 124.988C17.7909 124.996 18.1398 125 18.5 125V127C18.1249 127 17.7602 126.996 17.4056 126.987L17.4528 124.988ZM18.5 125C18.8075 125 19.1332 125 19.4762 125L19.4762 127C19.1332 127 18.8075 127 18.5 127L18.5 125ZM21.4714 125C22.0942 125 22.7549 125 23.4502 125V127C22.7549 127 22.0942 127 21.4714 127L21.4714 125ZM25.4358 125C26.0762 125 26.7393 125 27.4234 125L27.4234 127C26.7393 127 26.0762 127 25.4358 127V125ZM29.4122 125C30.0607 125 30.7246 125 31.4025 125L31.4025 127C30.7246 127 30.0607 127 29.4122 127L29.4122 125ZM33.3946 125C34.0448 125 34.7058 125 35.3764 125L35.3764 127C34.7058 127 34.0448 127 33.3946 127L33.3946 125ZM37.3594 125C38.0142 125 38.6767 125 39.3461 125L39.3461 127C38.6767 127 38.0142 127 37.3594 127L37.3594 125ZM41.3357 125C41.9938 125 42.6574 125 43.3256 125L43.3256 127C42.6574 127 41.9939 127 41.3357 127L41.3357 125ZM45.3083 125C45.9672 125 46.6297 125 47.2949 125L47.2949 127C46.6297 127 45.9672 127 45.3083 127L45.3083 125ZM49.2833 125C49.9439 125 50.6065 125 51.2702 125L51.2702 127C50.6065 127 49.9439 127 49.2833 127L49.2833 125ZM53.2563 125C53.9186 125 54.5814 125 55.2437 125L55.2437 127C54.5814 127 53.9187 127 53.2563 127L53.2563 125ZM57.2298 125C57.8935 125 58.5561 125 59.2167 125L59.2167 127C58.5561 127 57.8935 127 57.2298 127L57.2298 125ZM61.2051 125C61.8703 125 62.5328 125 63.1917 125L63.1917 127C62.5328 127 61.8703 127 61.2051 127L61.2051 125ZM65.1744 125C65.8426 125 66.5061 125 67.1643 125L67.1643 127C66.5061 127 65.8426 127 65.1744 127L65.1744 125ZM69.1539 125C69.8233 125 70.4858 125 71.1406 125L71.1406 127C70.4858 127 69.8233 127 69.1539 127L69.1539 125ZM73.1236 125C73.7942 125 74.4552 125 75.1054 125L75.1054 127C74.4552 127 73.7942 127 73.1236 127V125ZM77.0975 125C77.7754 125 78.4393 125 79.0878 125L79.0878 127C78.4393 127 77.7754 127 77.0975 127L77.0975 125ZM81.0766 125C81.7606 125 82.4238 125 83.0642 125V127C82.4238 127 81.7607 127 81.0766 127L81.0766 125ZM85.0498 125C85.7451 125 86.4058 125 87.0286 125V127C86.4058 127 85.7451 127 85.0498 127V125ZM89.0238 125C89.3668 125 89.6925 125 90 125V127C89.6925 127 89.3668 127 89.0238 127V125Z" fill="#6FCF97"/>
<rect x="88.5" y="102.5" width="282" height="200" stroke="#6FCF97" stroke-width="3"/>
</svg>
