<svg width="18" height="18" viewBox="0 0 18 18" fill="none" xmlns="http://www.w3.org/2000/svg">
  <path fill-rule="evenodd" clip-rule="evenodd" d="M0.460012 16.5399L16.4668 0.533128L17.1739 1.24023L1.16712 17.247L0.460012 16.5399Z" fill="#BDBDBD"/>
  <path fill-rule="evenodd" clip-rule="evenodd" d="M2.00012 1H16.0001C16.5524 1 17.0001 1.44772 17.0001 2V16C17.0001 16.5523 16.5524 17 16.0001 17H2.00012C1.44784 17 1.00012 16.5523 1.00012 16V13H0.00012207V16C0.00012207 17.1046 0.895553 18 2.00012 18H16.0001C17.1047 18 18.0001 17.1046 18.0001 16V2C18.0001 0.895431 17.1047 0 16.0001 0H2.00012C0.895553 0 0.00012207 0.89543 0.00012207 2V10H1.00012V2C1.00012 1.44772 1.44784 1 2.00012 1Z" fill="#BDBDBD"/>
  <path transform="translate(-6, -2)" d="M22.0001 13.1819C21.9849 12.672 21.51 12.1971 21.0001 12.1819L16.9957 12.1818L16.9957 10.1818H21.0001C21.5051 10.202 22.0153 9.69172 22.0001 9.18183C21.98 8.67688 21.5051 8.20201 21.0001 8.18188L17.0001 8.18179L17.0001 6.1818L15.0001 6.1818C11.8628 6.23039 11.0001 8.1818 11.0001 10.1818L7.00009 10.1818L7.00009 11.1818L7.00009 12.1818L11.0001 12.1818C11.0001 14.1818 12.0001 16.1818 15.0001 16.1818H16.9957L16.9957 14.1819L21.0001 14.1819C21.5048 14.1918 22.0101 13.6865 22.0001 13.1819Z" fill="#BDBDBD"/>
</svg>
