<svg width="18" height="18" viewBox="0 0 18 18" fill="none" xmlns="http://www.w3.org/2000/svg">
<path d="M15.0001 11.1819C14.9849 10.672 14.51 10.1971 14.0001 10.1819L9.99566 10.1818L9.99566 8.18183H14.0001C14.5051 8.20197 15.0153 7.69172 15.0001 7.18183C14.98 6.67688 14.5051 6.20201 14.0001 6.18188L10.0001 6.18179L10.0001 4.1818L8.00009 4.1818C4.86276 4.23039 4.00009 6.1818 4.00013 8.18184L8.91634e-05 8.1818L8.94163e-05 9.18183L8.95005e-05 10.1818L4.00013 10.1818C4.00013 12.1818 5.00012 14.1818 8.00009 14.1818H9.99566L9.99566 12.1819L14.0001 12.1819C14.5048 12.1918 15.0101 11.6865 15.0001 11.1819Z" fill="#0CD660"/>
<path fill-rule="evenodd" clip-rule="evenodd" d="M2 1H16C16.5523 1 17 1.44772 17 2V16C17 16.5523 16.5523 17 16 17H2C1.44772 17 1 16.5523 1 16V13H0V16C0 17.1046 0.89543 18 2 18H16C17.1046 18 18 17.1046 18 16V2C18 0.895431 17.1046 0 16 0H2C0.895431 0 0 0.89543 0 2V10H1V2C1 1.44772 1.44772 1 2 1Z" fill="#0CD660"/>
</svg>
