<?xml version="1.0" encoding="utf-8"?>
<!-- Generator: Adobe Illustrator 23.0.4, SVG Export Plug-In . SVG Version: 6.00 Build 0)  -->
<svg version="1.1" id="Layer_1" xmlns="http://www.w3.org/2000/svg" xmlns:xlink="http://www.w3.org/1999/xlink" x="0px" y="0px"
	 viewBox="0 0 32 32" style="enable-background:new 0 0 32 32;" xml:space="preserve">
<path d="M26.7,12.4v4.4c0,0.3,0,0.7,0,1c0,0.3,0,0.7,0,1v0.3c-0.3,2-1.1,3.9-2.3,5.4c-0.4-0.3-1-0.8-1.8-1.2c0.6-1.2,1-2.6,1.2-4.2
	h-1.3c-0.1,1.4-0.5,2.6-1.1,3.7C17.8,22,17.8,22,15.7,22c-1.9,0.1-3.5,0.5-4.7,1c-0.6-1.1-1-2.4-1.1-3.8H8.5
	c0.2,1.6,0.6,3.1,1.2,4.3c-0.9,0.5-1.6,1-1.9,1.3c-1.6-1.9-2.6-4.3-2.6-7c0-1.1,0.2-2.2,0.5-3.2v-3c-1.1,1.9-1.7,4-1.7,6.2
	c0,6.5,5.2,11.8,11.7,12c0.1,0,0.2,0,0.3,0c0.2,0,0.4,0,0.6,0c6.3-0.3,11.4-5.5,11.4-12C28,15.9,27.5,14.1,26.7,12.4z M8.7,25.7
	c0.3-0.3,0.9-0.7,1.7-1.1c1,1.6,2.2,2.9,3.2,3.7C11.7,27.9,10.1,27,8.7,25.7z M15.6,28.3c-1-0.7-2.7-2.1-4.1-4.2
	c1.1-0.4,2.4-0.8,4.1-0.9V28.3z M16.8,28.1v-5c1.6,0.1,2.9,0.4,3.9,0.8C19.5,26,17.9,27.4,16.8,28.1z M18.7,28.2
	c1-0.9,2.2-2.1,3.2-3.8c0.7,0.4,1.2,0.7,1.6,1C22.2,26.8,20.6,27.7,18.7,28.2z"/>
<path d="M16.2,20.1l-2.3-2.3H7.1v-15h18.2v15h-7.1L16.2,20.1z M8.4,16.5h6.1l1.7,1.7l1.6-1.7h6.4V4H8.4V16.5z"/>
<path d="M21.5,12.9h-11v1.2h11V12.9z"/>
<path d="M21.5,9.3h-11v1.2h11V9.3z"/>
<path d="M21.5,5.8h-11V7h11V5.8z"/>
</svg>
