<?xml version="1.0" encoding="utf-8"?>
<!-- Generator: Adobe Illustrator 23.0.4, SVG Export Plug-In . SVG Version: 6.00 Build 0)  -->
<svg version="1.1" id="Layer_1" xmlns="http://www.w3.org/2000/svg" xmlns:xlink="http://www.w3.org/1999/xlink" x="0px" y="0px"
	 viewBox="0 0 32 32" style="enable-background:new 0 0 32 32;" xml:space="preserve">
<path d="M21.6,8.5c-0.2,0.4-0.4,0.7-0.6,1.1c3.4,1.8,5.8,5.4,5.8,9.5c0,2.5-0.9,4.9-2.4,6.7c-0.4-0.3-1-0.8-1.8-1.2
	c0.5-1,0.9-2,1.1-3.2h-1.3c-0.2,1-0.5,1.9-0.9,2.7c-1.3-0.5-3-0.9-5.1-0.9c-2.2,0-4,0.5-5.4,1c-0.4-0.8-0.8-1.8-1-2.8H8.7
	c0.2,1.2,0.6,2.3,1.1,3.3c-0.9,0.5-1.6,1-1.9,1.3c-1.6-1.9-2.6-4.3-2.6-7c0-4.3,2.5-8,6.1-9.7C11.2,9,11,8.6,10.8,8.2
	C6.8,10.3,4,14.4,4,19c0,6.6,5.4,12,12,12c0.2,0,0.4,0,0.6,0C22.9,30.7,28,25.4,28,19C28,14.5,25.4,10.5,21.6,8.5z M8.7,26.9
	c0.3-0.3,0.9-0.7,1.7-1.1c1,1.6,2.2,2.9,3.2,3.8C11.7,29,10.1,28.1,8.7,26.9z M11.5,25.2c1.1-0.4,2.4-0.8,4.1-0.9v5.1
	C14.6,28.7,12.9,27.3,11.5,25.2z M16.8,24.3c1.6,0.1,2.9,0.4,3.9,0.8c-1.3,2-2.9,3.4-3.9,4.2V24.3z M18.7,29.4
	c1-0.9,2.2-2.2,3.2-3.8c0.7,0.4,1.2,0.7,1.6,1C22.2,27.9,20.6,28.9,18.7,29.4z"/>
<path d="M16.2,22.2l-2.3-2.3H8.1v-3.5c0.3-1.6,1.8-4.5,5.3-4.5H19c3.6,0,5.1,3,5.3,4.5v0.1v3.4h-6.1L16.2,22.2z M9.4,18.7h5.1
	l1.7,1.7l1.6-1.7h5.4v-2.1c-0.2-0.5-1-3.4-4.2-3.4h-5.5c-3.3,0-4,3-4.1,3.4V18.7z"/>
<path d="M16.1,10.6c-2.5,0-4.5-2-4.5-4.5c0-2.5,2-4.5,4.5-4.5c2.5,0,4.5,2,4.5,4.5C20.6,8.6,18.6,10.6,16.1,10.6z M16.1,2.8
	c-1.8,0-3.3,1.5-3.3,3.3s1.5,3.2,3.3,3.2s3.3-1.5,3.3-3.3S17.9,2.8,16.1,2.8z"/>
</svg>
