<svg width="63" height="18" viewBox="0 0 63 18" fill="none" xmlns="http://www.w3.org/2000/svg">
  <rect width="63" height="18" rx="2" fill="#D50000"/>
  <path d="M23.2949 13V5.17969H25.9751C26.8595 5.17969 27.5327 5.35693 27.9946 5.71143C28.4565 6.06592 28.6875 6.59408 28.6875 7.2959C28.6875 7.65397 28.5908 7.97624 28.3975 8.26269C28.2041 8.54915 27.9212 8.77116 27.5488 8.92871C27.9714 9.04329 28.2972 9.25993 28.5264 9.57861C28.7591 9.89372 28.8755 10.2733 28.8755 10.7173C28.8755 11.4513 28.6392 12.0153 28.1665 12.4092C27.6974 12.8031 27.0243 13 26.147 13H23.2949ZM24.6538 9.47119V11.915H26.1631C26.5892 11.915 26.9222 11.8094 27.1621 11.5981C27.402 11.3869 27.522 11.0933 27.522 10.7173C27.522 9.90446 27.1066 9.48909 26.2759 9.47119H24.6538ZM24.6538 8.47217H25.9858C26.4084 8.47217 26.7378 8.37728 26.9741 8.1875C27.214 7.99414 27.334 7.722 27.334 7.37109C27.334 6.98437 27.223 6.70508 27.001 6.5332C26.7826 6.36133 26.4406 6.27539 25.9751 6.27539H24.6538V8.47217ZM36.3052 9.50879H33.0933V11.915H36.8477V13H31.7344V5.17969H36.8101V6.27539H33.0933V8.43457H36.3052V9.50879ZM45.2119 6.27539H42.7734V13H41.4253V6.27539H39.0083V5.17969H45.2119V6.27539ZM51.4761 11.1792H48.4468L47.813 13H46.4004L49.3545 5.17969H50.5737L53.5332 13H52.1152L51.4761 11.1792ZM48.8281 10.0835H51.0947L49.9614 6.83936L48.8281 10.0835Z" fill="white"/>
  <path d="M14.5 11.4C14.7122 11.4 14.9156 11.3157 15.0657 11.1657C15.2157 11.0157 15.3 10.8122 15.3 10.6C15.3 10.156 14.94 9.8 14.5 9.8C14.2878 9.8 14.0843 9.88429 13.9343 10.0343C13.7843 10.1843 13.7 10.3878 13.7 10.6C13.7 10.8122 13.7843 11.0157 13.9343 11.1657C14.0843 11.3157 14.2878 11.4 14.5 11.4ZM16.9 7.8C17.1122 7.8 17.3156 7.88429 17.4657 8.03431C17.6157 8.18434 17.7 8.38783 17.7 8.6V12.6C17.7 12.8122 17.6157 13.0157 17.4657 13.1657C17.3156 13.3157 17.1122 13.4 16.9 13.4H12.1C11.8878 13.4 11.6843 13.3157 11.5343 13.1657C11.3843 13.0157 11.3 12.8122 11.3 12.6V8.6C11.3 8.156 11.66 7.8 12.1 7.8H12.5V7C12.5 6.46957 12.7107 5.96086 13.0858 5.58579C13.4608 5.21071 13.9696 5 14.5 5C14.7626 5 15.0227 5.05173 15.2654 5.15224C15.508 5.25275 15.7285 5.40007 15.9142 5.58579C16.0999 5.7715 16.2472 5.99198 16.3477 6.23463C16.4483 6.47728 16.5 6.73736 16.5 7V7.8H16.9ZM14.5 5.8C14.1817 5.8 13.8765 5.92643 13.6515 6.15147C13.4264 6.37652 13.3 6.68174 13.3 7V7.8H15.7V7C15.7 6.68174 15.5736 6.37652 15.3485 6.15147C15.1235 5.92643 14.8182 5.8 14.5 5.8Z" fill="white"/>
</svg>
