<?xml version="1.0" encoding="utf-8"?>
<!-- Generator: Adobe Illustrator 23.0.4, SVG Export Plug-In . SVG Version: 6.00 Build 0)  -->
<svg version="1.1" id="Layer_1" xmlns="http://www.w3.org/2000/svg" xmlns:xlink="http://www.w3.org/1999/xlink" x="0px" y="0px"
	 viewBox="0 0 32 32" style="enable-background:new 0 0 32 32;" xml:space="preserve">
<path d="M26.8,28H5.2V6h8.2v1.3h-7v19.4h19v-4h1.3V28z"/>
<path d="M21.9,13.5H21V7.3h0.9c0.9,0,1.7,0.3,2.4,0.9c0.7,0.6,1,1.3,1,2.2c0,0.2,0.1,0.4,0.2,0.5c0.3,0.3,0.7,0.3,1,0
	c0.1-0.1,0.2-0.3,0.2-0.5c0-1.2-0.5-2.3-1.4-3.1C24.3,6.4,23.2,6,21.9,6H21V4.7c0-0.2-0.1-0.4-0.2-0.5c-0.3-0.3-0.7-0.3-1,0
	c-0.1,0.1-0.2,0.3-0.2,0.5v1.2h-0.9c-1.3,0-2.4,0.4-3.3,1.3C14.5,8.1,14,9.1,14,10.3s0.5,2.3,1.4,3.1c0.9,0.9,2.1,1.3,3.3,1.3h0.9
	V21h-0.9c-0.9,0-1.7-0.3-2.4-0.9c-0.7-0.6-1-1.3-1-2.2c0-0.2-0.1-0.4-0.2-0.5c-0.1-0.1-0.3-0.2-0.5-0.2c-0.2,0-0.4,0.1-0.5,0.2
	S14,17.7,14,17.9c0,1.2,0.5,2.3,1.4,3.1c0.9,0.9,2.1,1.3,3.3,1.3h0.9v1.2c0,0.2,0.1,0.4,0.2,0.5c0.3,0.3,0.7,0.3,1,0
	c0.1-0.1,0.2-0.3,0.2-0.5v-1.2h0.9c1.3,0,2.4-0.4,3.3-1.3c0.9-0.9,1.4-1.9,1.4-3.1c0-1.2-0.5-2.3-1.4-3.1
	C24.2,13.9,23.2,13.5,21.9,13.5z M19.6,13.5h-0.9c-0.9,0-1.7-0.3-2.4-0.9c-0.7-0.6-1-1.3-1-2.2c0-0.9,0.3-1.6,1-2.2
	c0.7-0.6,1.5-0.9,2.4-0.9h0.9V13.5z M24.2,20.1c-0.7,0.6-1.5,0.9-2.4,0.9H21v-6.1h0.9c0.9,0,1.7,0.3,2.4,0.9c0.7,0.6,1,1.3,1,2.2
	C25.2,18.8,24.8,19.5,24.2,20.1z"/>
</svg>
