<?xml version="1.0" encoding="utf-8"?>
<!-- Generator: Adobe Illustrator 23.0.4, SVG Export Plug-In . SVG Version: 6.00 Build 0)  -->
<svg version="1.1" id="Layer_1" xmlns="http://www.w3.org/2000/svg" xmlns:xlink="http://www.w3.org/1999/xlink" x="0px" y="0px"
	 viewBox="0 0 32 32" style="enable-background:new 0 0 32 32;" xml:space="preserve">
<path d="M8,16h16v8.1H8V16z M7,25.1h18V15H7V25.1z M27,26.5c0,0.4-0.3,0.5-0.5,0.5h-21C5.2,27,5,26.7,5,26.5V12.7h22V26.5z M27,11.7
	H5V8.6c0-0.4,0.3-0.5,0.5-0.5H10v2h3v-2h7v2h3v-2h3.5c0.4,0,0.5,0.3,0.5,0.5L27,11.7L27,11.7z M22,9.1h-1V5.1h1V9.1z M12,9.1h-1V5.1
	h1V9.1z M28,26.5V8.6c0-0.6-0.4-1.5-1.5-1.5H23V4h-3v3.1h-7V4h-3v3.1H5.5C4.9,7.1,4,7.5,4,8.6v17.9C4,27.1,4.4,28,5.5,28h21
	C27.1,28,28,27.5,28,26.5z"/>
</svg>
