<?xml version="1.0" encoding="utf-8"?>
<!-- Generator: Adobe Illustrator 23.0.4, SVG Export Plug-In . SVG Version: 6.00 Build 0)  -->
<svg version="1.1" id="Layer_1" xmlns="http://www.w3.org/2000/svg" xmlns:xlink="http://www.w3.org/1999/xlink" x="0px" y="0px"
	 viewBox="0 0 32 32" style="enable-background:new 0 0 32 32;" xml:space="preserve">
<path d="M19.3,23.9l-0.6-0.8H25v-1h-6.3l0.6-0.7l-0.7-0.7l-1.7,2l1.7,1.9L19.3,23.9z"/>
<path d="M9,18.3H8v-1h1V18.3z M10,16.2H7v3.1h3L10,16.2L10,16.2z"/>
<path d="M14,18.3h-1v-1h1V18.3z M15,16.2h-3v3.1h3V16.2z"/>
<path d="M19,18.3h-1v-1h1V18.3z M20,16.2h-3v3.1h3V16.2z"/>
<path d="M24,18.3h-1v-1h1V18.3z M25,16.2h-3v3.1h3V16.2z"/>
<path d="M14,23.3h-1v-1h1V23.3z M15,21.2h-3v3.1h3V21.2z"/>
<path d="M9,23.3H8v-1h1V23.3z M10,21.2H7v3.1h3L10,21.2L10,21.2z"/>
<path d="M27,11.7H5V8.6c0-0.4,0.3-0.5,0.5-0.5H10v2.1h3V8.1h7v2.1h3V8.1h3.5c0.4,0,0.5,0.3,0.5,0.5L27,11.7L27,11.7z M27,26.5
	c0,0.4-0.3,0.5-0.5,0.5h-21C5.2,27,5,26.7,5,26.5V12.7h22V26.5z M11,5h1v4.1h-1V5z M21,5h1v4.1h-1V5z M26.5,7.1H23V4h-3v3.1h-7V4h-3
	v3.1H5.5C4.9,7.1,4,7.4,4,8.6v17.9C4,27.1,4.4,28,5.5,28h21c0.6,0,1.5-0.5,1.5-1.5V8.6C28,8,27.6,7.1,26.5,7.1z"/>
</svg>
