<?xml version="1.0" encoding="utf-8"?>
<!-- Generator: Adobe Illustrator 23.0.4, SVG Export Plug-In . SVG Version: 6.00 Build 0)  -->
<svg version="1.1" id="Layer_1" xmlns="http://www.w3.org/2000/svg" xmlns:xlink="http://www.w3.org/1999/xlink" x="0px" y="0px"
	 viewBox="0 0 32 32" style="enable-background:new 0 0 32 32;" xml:space="preserve">
<style type="text/css">
	.st0{clip-path:url(#SVGID_2_); fill: #9e9e9e}
	.st1{fill:none;}
</style>
<g>
	<defs>
		<rect id="SVGID_1_" x="3.8" y="5.6" width="24" height="21.9"/>
	</defs>
	<clipPath id="SVGID_2_">
		<use xlink:href="#SVGID_1_"  style="overflow:visible;"/>
	</clipPath>
	<path class="st0" d="M26.3,10.4c0,0,0.4,0.1,0,0.3l-10.3,3.9c0,0-0.4,0.1-0.4,0.5v11.1c0,0,0,0.4-0.4,0.2L5.1,22.7
		c0,0-0.4-0.1-0.4-0.5V10.9c0,0,0-0.4,0.4-0.5l10.4-3.9c0,0,0.4-0.1,0.7,0l3.2,1.2c0,0,0.4,0.1,0,0.3L8.8,11.9c0,0-0.4,0.1-0.4,0.5
		v3.2c0,0,0,0.4,0.4,0.5l1.8,0.6c0,0,0.4,0.1,0.4-0.3v-2.9c0,0,0-0.4,0.4-0.5l10.7-4c0,0,0.4-0.1,0.7,0L26.3,10.4z M27.4,23.2
		c0,0,0.4-0.1,0.4-0.5V10.5c0,0,0-0.4-0.4-0.5L16.3,5.7c0,0-0.4-0.1-0.7,0L4.1,10c0,0-0.4,0.1-0.4,0.5v12.2c0,0,0,0.4,0.4,0.5
		l11.1,4.3c0,0,0.4,0.1,0.7,0L27.4,23.2z"/>
</g>
<rect x="0" class="st1" width="32" height="32"/>
</svg>
