<svg width="30" height="40" viewBox="0 0 30 40" fill="none" xmlns="http://www.w3.org/2000/svg">
<path fill-rule="evenodd" clip-rule="evenodd" d="M7 10.5C7 11.8807 5.88071 13 4.5 13C3.11929 13 2 11.8807 2 10.5C2 9.11929 3.11929 8 4.5 8C5.88071 8 7 9.11929 7 10.5ZM4 13.9646V19H5H8V18H5V17H7V16H5V13.9646C6.53285 13.7453 7.7453 12.5328 7.96456 11H14V29H1V11H1.03544C1.03494 10.9965 1.03445 10.993 1.03396 10.9895C1.24916 12.5273 2.46365 13.7448 4 13.9646ZM1.03544 10C1.27806 8.30385 2.73676 7 4.5 7C6.26324 7 7.72194 8.30385 7.96456 10H14H15V11V29V30H14H1H0V29V11V10H1H1.03544ZM4 21H11V22H4V21ZM11 24H4V25H11V24Z" fill="#2962FF"/>
</svg>
