<svg width="18" height="13" viewBox="0 0 18 13" fill="none" xmlns="http://www.w3.org/2000/svg">
<path d="M16.5 7.08984H1.5C1.26562 7.08984 1.07031 7.01172 0.914062 6.83594C0.738281 6.67969 0.660156 6.48438 0.660156 6.25C0.660156 6.01562 0.738281 5.82031 0.914062 5.64453C1.07031 5.48828 1.26562 5.41016 1.5 5.41016H16.5C16.7344 5.41016 16.9297 5.48828 17.1055 5.64453C17.2617 5.82031 17.3398 6.01562 17.3398 6.25C17.3398 6.48438 17.2617 6.67969 17.1055 6.83594C16.9297 7.01172 16.7344 7.08984 16.5 7.08984ZM16.5 2.08984H1.5C1.26562 2.08984 1.07031 2.01172 0.914062 1.83594C0.738281 1.67969 0.660156 1.48438 0.660156 1.25C0.660156 1.01562 0.738281 0.820312 0.914062 0.644531C1.07031 0.488281 1.26562 0.410156 1.5 0.410156H16.5C16.7344 0.410156 16.9297 0.488281 17.1055 0.644531C17.2617 0.820312 17.3398 1.01562 17.3398 1.25C17.3398 1.48438 17.2617 1.67969 17.1055 1.83594C16.9297 2.01172 16.7344 2.08984 16.5 2.08984ZM16.5 12.0898H1.5C1.26562 12.0898 1.07031 12.0117 0.914062 11.8359C0.738281 11.6797 0.660156 11.4844 0.660156 11.25C0.660156 11.0156 0.738281 10.8203 0.914062 10.6445C1.07031 10.4883 1.26562 10.4102 1.5 10.4102H16.5C16.7344 10.4102 16.9297 10.4883 17.1055 10.6445C17.2617 10.8203 17.3398 11.0156 17.3398 11.25C17.3398 11.4844 17.2617 11.6797 17.1055 11.8359C16.9297 12.0117 16.7344 12.0898 16.5 12.0898Z" fill="#ACACBB"/>
</svg>
