<?xml version="1.0" encoding="utf-8"?>
<!-- Generator: Adobe Illustrator 23.0.4, SVG Export Plug-In . SVG Version: 6.00 Build 0)  -->
<svg version="1.1" id="Layer_1" xmlns="http://www.w3.org/2000/svg" xmlns:xlink="http://www.w3.org/1999/xlink" x="0px" y="0px"
	 viewBox="0 0 32 32" style="enable-background:new 0 0 32 32;" xml:space="preserve">
<path d="M16,28C9.4,28,4,22.6,4,16S9.4,4,16,4s12,5.4,12,12S22.6,28,16,28z M16,5C9.9,5,5,9.9,5,16s4.9,11,11,11s11-4.9,11-11
	S22.1,5,16,5z"/>
<path d="M16.5,5h-1v23h1V5z"/>
<path d="M15.8,28c-0.3-0.2-7.3-4.2-7.3-11.8c0-7.6,6.9-11.9,7.2-12L16.3,5c-0.1,0-6.8,4.2-6.8,11.2c0,7,6.7,10.9,6.7,11L15.8,28z"/>
<path d="M16.5,28L16,27.1c0.1,0,6.7-4,6.7-11C22.8,9.2,16.1,5,16,5l0.5-0.9c0.3,0.2,7.2,4.5,7.2,12C23.8,23.8,16.8,27.8,16.5,28z"/>
<path d="M8,24.2l-0.7-0.7c0.1-0.1,3-3.3,8.8-3.3c5.8,0,8.6,3.1,8.7,3.3L24,24.2c0,0-2.6-2.9-7.9-2.9C10.7,21.2,8,24.1,8,24.2z"/>
<path d="M16.1,12.1c-5.8,0-8.8-3.1-8.9-3.2L8,8.2c0,0,2.8,2.9,8.1,2.9c5.3,0,7.9-2.9,7.9-2.9l0.8,0.7C24.7,9,21.9,12.1,16.1,12.1z"
	/>
</svg>
