<?xml version="1.0" encoding="utf-8"?>
<!-- Generator: Adobe Illustrator 23.0.4, SVG Export Plug-In . SVG Version: 6.00 Build 0)  -->
<svg version="1.1" id="Layer_1" xmlns="http://www.w3.org/2000/svg" xmlns:xlink="http://www.w3.org/1999/xlink" x="0px" y="0px"
	 viewBox="0 0 32 32" style="enable-background:new 0 0 32 32;" xml:space="preserve">
<style type="text/css">
	.no-api-icon-svg-123{fill:none;}
</style>
<path d="M28.7,7L16.4,1.1C16.3,1,16.1,1,16,1c-0.1,0-0.3,0-0.4,0.1L3.3,7C3.1,7.2,2.9,7.5,2.9,7.8v15.4c0,0.3,0.2,0.6,0.4,0.7
	l12.3,7C15.7,31,15.8,31,16,31c0,0,0,0,0,0c0,0,0,0,0,0c0.1,0,0.3,0,0.4-0.1l12.3-7c0.3-0.1,0.4-0.4,0.4-0.7V7.8
	C29.1,7.5,28.9,7.2,28.7,7z M16.8,28.8V25c0-0.5-0.4-0.8-0.8-0.8s-0.8,0.4-0.8,0.8v3.7L4.5,22.7V8.9c1.1,0.3,3.3,1.3,4.6,3.8
	c-0.3,0.4-0.6,0.8-0.7,1.3c-0.3,1.2,0.1,2.4,0.4,2.8C8.9,17,9,17,9.1,17c0.1,0,0.1,0,0.2,0l5.6-3.4c0.1,0,0.1-0.1,0.1-0.2
	c0-0.1,0-0.2-0.1-0.3c0,0-0.6-0.6-1.5-1c-1-0.5-2-0.6-2.9-0.2C9.3,9.5,7.3,8.2,5.9,7.6L16,2.8l10.5,5.1l-7.2,4.2
	c-0.4,0.2-0.5,0.7-0.3,1.1c0.2,0.3,0.4,0.4,0.7,0.4c0.1,0,0.3,0,0.4-0.1l7.3-4.3v7.1c0,0.1-0.1,0.1-0.1,0.2c0,0-1.4,3.6-4.2,4.4
	c-1.2,0.4-2.6,0.2-4-0.6c0.3-0.4,0.4-0.9,0.4-1.4c0-1.2-0.6-2.1-1-2.5c-0.1-0.1-0.1-0.1-0.2-0.1c0,0,0,0,0,0c-0.1,0-0.2,0-0.2,0.1
	l-0.5,0.5l-1.2-1.1c-0.3-0.3-0.9-0.3-1.2,0.1c-0.3,0.3-0.3,0.9,0.1,1.2l1.1,1L15.7,19l-1.2-1.1c-0.3-0.3-0.9-0.3-1.2,0.1
	c-0.3,0.3-0.3,0.9,0.1,1.2l1.1,1l-0.6,0.6c-0.1,0.1-0.1,0.2-0.1,0.3c0,0.1,0.1,0.2,0.1,0.2c0,0,0.7,0.4,1.6,0.6
	c0.3,0.1,0.6,0.1,0.8,0.1c0.6,0,1.1-0.1,1.6-0.4c1.4,0.8,2.7,1.2,4,1.2c0.6,0,1.2-0.1,1.7-0.3c1.7-0.5,3-1.8,3.8-2.9v3.1L16.8,28.8z
	"/>
<rect y="0" class="no-api-icon-svg-123" width="32" height="32"/>
</svg>
