<svg width="63" height="18" viewBox="0 0 63 18" fill="none" xmlns="http://www.w3.org/2000/svg">
  <rect width="63" height="18" rx="2" fill="#F2994A"/>
  <path d="M15.98 13V5.17969H18.6602C19.5446 5.17969 20.2178 5.35693 20.6797 5.71143C21.1416 6.06592 21.3726 6.59408 21.3726 7.2959C21.3726 7.65397 21.2759 7.97624 21.0825 8.26269C20.8892 8.54915 20.6063 8.77116 20.2339 8.92871C20.6564 9.04329 20.9823 9.25993 21.2114 9.57861C21.4442 9.89372 21.5605 10.2733 21.5605 10.7173C21.5605 11.4513 21.3242 12.0153 20.8516 12.4092C20.3825 12.8031 19.7093 13 18.832 13H15.98ZM17.3389 9.47119V11.915H18.8481C19.2743 11.915 19.6073 11.8094 19.8472 11.5981C20.0871 11.3869 20.207 11.0933 20.207 10.7173C20.207 9.90446 19.7917 9.48909 18.9609 9.47119H17.3389ZM17.3389 8.47217H18.6709C19.0934 8.47217 19.4229 8.37728 19.6592 8.1875C19.8991 7.99414 20.019 7.722 20.019 7.37109C20.019 6.98437 19.908 6.70508 19.686 6.5332C19.4676 6.36133 19.1257 6.27539 18.6602 6.27539H17.3389V8.47217ZM28.9902 9.50879H25.7783V11.915H29.5327V13H24.4194V5.17969H29.4951V6.27539H25.7783V8.43457H28.9902V9.50879ZM37.897 6.27539H35.4585V13H34.1104V6.27539H31.6934V5.17969H37.897V6.27539ZM44.1611 11.1792H41.1318L40.498 13H39.0854L42.0396 5.17969H43.2588L46.2183 13H44.8003L44.1611 11.1792ZM41.5132 10.0835H43.7798L42.6465 6.83936L41.5132 10.0835Z" fill="white"/>
</svg>
