<?xml version="1.0" encoding="utf-8"?>
<!-- Generator: Adobe Illustrator 23.0.4, SVG Export Plug-In . SVG Version: 6.00 Build 0)  -->
<svg version="1.1" id="Layer_1" xmlns="http://www.w3.org/2000/svg" xmlns:xlink="http://www.w3.org/1999/xlink" x="0px" y="0px"
	 viewBox="0 0 32 32" style="enable-background:new 0 0 32 32;" xml:space="preserve">
<path d="M19,18.3h-1v-1h1V18.3z M20,16.2h-3v3.1h3V16.2z"/>
<path d="M24,18.3h-1v-1h1V18.3z M25,16.2h-3v3.1h3V16.2z"/>
<path d="M24,23.3h-1v-1h1V23.3z M25,21.3h-3v3.1h3V21.3z"/>
<path d="M19,23.3h-1v-1h1V23.3z M20,21.3h-3v3.1h3V21.3z"/>
<path d="M13,22.3h1v1h-1V22.3z M12,24.3h3v-3.1h-3V24.3z"/>
<path d="M8,22.3h1v1H8V22.3z M7,24.3h3v-3.1H7V24.3z"/>
<path d="M27,11.7H5V8.6c0-0.4,0.3-0.5,0.5-0.5H10v2.1h3V8.1h7v2.1h3V8.1h3.5c0.4,0,0.5,0.3,0.5,0.5L27,11.7L27,11.7z M27,26.5
	c0,0.4-0.3,0.5-0.5,0.5h-21C5.2,27,5,26.7,5,26.5V12.7h22V26.5z M11,5h1v4.1h-1V5z M21,5h1v4.1h-1V5z M26.5,7.1H23V4h-3v3.1h-7V4h-3
	v3.1H5.5C4.9,7.1,4,7.4,4,8.6v17.9C4,27.1,4.4,28,5.5,28h21c0.6,0,1.5-0.5,1.5-1.5V8.6C28,8,27.6,7.1,26.5,7.1z"/>
<path d="M12.6,19l0.7,0.7l1.7-2l-1.7-1.9l-0.7,0.6l0.6,0.7H6.9v1.1h6.3L12.6,19z"/>
</svg>
