<?xml version="1.0" encoding="utf-8"?>
<!-- Generator: Adobe Illustrator 23.0.4, SVG Export Plug-In . SVG Version: 6.00 Build 0)  -->
<svg version="1.1" id="Layer_1" xmlns="http://www.w3.org/2000/svg" xmlns:xlink="http://www.w3.org/1999/xlink" x="0px" y="0px"
	 viewBox="0 0 32 32" style="enable-background:new 0 0 32 32;" xml:space="preserve">
<path d="M24,16c0,2.1-0.8,4.2-2.3,5.7S18.2,24,16,24s-4.2-0.8-5.7-2.3S8,18.1,8,16s0.8-4.2,2.3-5.7S13.9,8,16,8
	c0.8,0,1.5,0.1,2.2,0.3l1.6-1.6C18.6,6.2,17.3,6,16,6s-2.6,0.2-3.8,0.8C11,7.2,9.8,8,8.9,8.9C7.1,10.8,6,13.3,6,16s1.1,5.2,2.9,7.1
	c0.9,0.9,2,1.7,3.2,2.2S14.7,26,16,26c2.7,0,5.2-1.1,7.1-2.9C25,21.2,26,18.7,26,16H24z"/>
<path d="M11.5,14.4l1.4-1.4l3.1,3.1l8.6-8.6L26,8.9l-10,10L11.5,14.4z"/>
</svg>
