<?xml version="1.0" encoding="utf-8"?>
<!-- Generator: Adobe Illustrator 23.0.4, SVG Export Plug-In . SVG Version: 6.00 Build 0)  -->
<svg version="1.1" id="Layer_1" xmlns="http://www.w3.org/2000/svg" xmlns:xlink="http://www.w3.org/1999/xlink" x="0px" y="0px"
	 viewBox="0 0 32 32" style="enable-background:new 0 0 32 32;" xml:space="preserve">
<style type="text/css">
	.st0{fill-rule:evenodd;clip-rule:evenodd;}
</style>
<path class="st0" d="M16,6C10.5,6,6,10.5,6,16s4.5,10,10,10s10-4.5,10-10S21.5,6,16,6z M8,16c0-4.4,3.6-8,8-8c1.8,0,3.5,0.6,4.9,1.8
	L9.6,21C8.6,19.5,8,17.8,8,16z M16,24c-1.8,0-3.5-0.6-4.9-1.8L22.4,11c1.1,1.4,1.8,3.1,1.8,4.9C24,20.4,20.4,24,16,24z"/>
</svg>
