<svg width="18" height="18" viewBox="0 0 18 18" fill="none" xmlns="http://www.w3.org/2000/svg">
<path d="M7.33984 8.41016H1.5C1.26562 8.41016 1.07031 8.33203 0.914062 8.15625C0.738281 8 0.660156 7.80469 0.660156 7.58984V1.75C0.660156 1.51562 0.738281 1.32031 0.914062 1.14453C1.07031 0.988281 1.26562 0.910156 1.5 0.910156H7.33984C7.55469 0.910156 7.75 0.988281 7.92578 1.14453C8.08203 1.32031 8.16016 1.51562 8.16016 1.75V7.58984C8.16016 7.80469 8.08203 8 7.92578 8.15625C7.75 8.33203 7.55469 8.41016 7.33984 8.41016ZM2.33984 2.58984V6.75H6.5V2.58984H2.33984ZM16.5 8.41016H10.6602C10.4453 8.41016 10.25 8.33203 10.0938 8.15625C9.91797 8 9.83984 7.80469 9.83984 7.58984V1.75C9.83984 1.51562 9.91797 1.32031 10.0938 1.14453C10.25 0.988281 10.4453 0.910156 10.6602 0.910156H16.5C16.7344 0.910156 16.9297 0.988281 17.1055 1.14453C17.2617 1.32031 17.3398 1.51562 17.3398 1.75V7.58984C17.3398 7.80469 17.2617 8 17.1055 8.15625C16.9297 8.33203 16.7344 8.41016 16.5 8.41016ZM11.5 2.58984V6.75H15.6602V2.58984H11.5ZM16.5 17.5898H10.6602C10.4453 17.5898 10.25 17.5117 10.0938 17.3359C9.91797 17.1797 9.83984 16.9844 9.83984 16.75V10.9102C9.83984 10.6953 9.91797 10.5 10.0938 10.3242C10.25 10.168 10.4453 10.0898 10.6602 10.0898H16.5C16.7344 10.0898 16.9297 10.168 17.1055 10.3242C17.2617 10.5 17.3398 10.6953 17.3398 10.9102V16.75C17.3398 16.9844 17.2617 17.1797 17.1055 17.3359C16.9297 17.5117 16.7344 17.5898 16.5 17.5898ZM11.5 11.75V15.9102H15.6602V11.75H11.5ZM7.33984 17.5898H1.5C1.26562 17.5898 1.07031 17.5117 0.914062 17.3359C0.738281 17.1797 0.660156 16.9844 0.660156 16.75V10.9102C0.660156 10.6953 0.738281 10.5 0.914062 10.3242C1.07031 10.168 1.26562 10.0898 1.5 10.0898H7.33984C7.55469 10.0898 7.75 10.168 7.92578 10.3242C8.08203 10.5 8.16016 10.6953 8.16016 10.9102V16.75C8.16016 16.9844 8.08203 17.1797 7.92578 17.3359C7.75 17.5117 7.55469 17.5898 7.33984 17.5898ZM2.33984 11.75V15.9102H6.5V11.75H2.33984Z" fill="#ACACBB"/>
</svg>
