<svg width="22" height="22" viewBox="0 0 22 22" fill="none" xmlns="http://www.w3.org/2000/svg">
<path fill-rule="evenodd" clip-rule="evenodd" d="M11 20C15.9706 20 20 15.9706 20 11C20 6.02944 15.9706 2 11 2C6.02944 2 2 6.02944 2 11C2 15.9706 6.02944 20 11 20ZM11 22C17.0751 22 22 17.0751 22 11C22 4.92487 17.0751 0 11 0C4.92487 0 0 4.92487 0 11C0 17.0751 4.92487 22 11 22ZM13 15C13 16.1046 12.1046 17 11 17C9.89543 17 9 16.1046 9 15C9 13.8954 9.89543 13 11 13C12.1046 13 13 13.8954 13 15ZM12 12V5H10V12H12Z" fill="#F2C94C"/>
</svg>
